<svg width="120" height="38" viewBox="0 0 120 38" fill="none" xmlns="http://www.w3.org/2000/svg">
<g clip-path="url(#clip0_317_99)">
<g filter="url(#filter0_d_317_99)">
<path d="M113.406 36.6897H5.59375C3.61719 36.6897 2 35.0836 2 33.1207V4.56897C2 2.60603 3.61719 1 5.59375 1H113.406C115.383 1 117 2.60603 117 4.56897V33.1207C117 35.0836 115.383 36.6897 113.406 36.6897Z" fill="white"/>
<path d="M26.2577 18.6655C26.2577 15.8995 28.5936 14.5611 28.6835 14.4719C27.3358 12.5982 25.3593 12.3305 24.6405 12.2413C22.9335 12.0629 21.2265 13.2228 20.4179 13.2228C19.5194 13.2228 18.1718 12.2413 16.7343 12.2413C14.8476 12.2413 13.1405 13.312 12.1522 15.0073C10.1757 18.3978 11.6132 23.3943 13.4999 26.1603C14.4882 27.4986 15.5663 29.0155 17.0038 28.9262C18.4413 28.837 18.9804 28.034 20.6874 28.034C22.3944 28.034 22.8436 28.9262 24.371 28.9262C25.8983 28.9262 26.8866 27.5879 27.7851 26.2495C28.8632 24.7327 29.3124 23.2159 29.3124 23.1267C29.2226 23.0374 26.2577 21.9667 26.2577 18.6655Z" fill="#110D34"/>
<path d="M23.4729 10.4576C24.1917 9.47617 24.7307 8.22703 24.6409 6.88867C23.5628 6.9779 22.1253 7.60247 21.4065 8.58393C20.6878 9.38695 20.0588 10.7253 20.2385 11.9744C21.4065 12.0637 22.6643 11.3499 23.4729 10.4576Z" fill="#110D34"/>
<path d="M46.7424 28.7484H44.7659L43.6877 25.3579H39.9143L38.926 28.7484H37.0393L40.8127 17.2385H43.1487L46.7424 28.7484ZM43.3284 23.9303L42.3401 20.8967C42.2502 20.629 42.0706 19.826 41.7112 18.7553C41.6213 19.2015 41.4416 20.0045 41.1721 20.8967L40.1838 23.9303H43.3284Z" fill="#110D34"/>
<path d="M56.3555 22.5383C56.3555 23.9658 55.9961 25.0365 55.1875 25.9288C54.4688 26.6426 53.6602 26.9995 52.582 26.9995C51.5039 26.9995 50.6953 26.6426 50.2461 25.8396V30.2115H48.3594V21.2891C48.3594 20.3969 48.3594 19.5046 48.2695 18.5232H49.8867L49.9766 19.8615C50.6055 18.8801 51.5039 18.3447 52.7617 18.3447C53.75 18.3447 54.5586 18.7016 55.1875 19.5046C55.9961 20.2184 56.3555 21.1999 56.3555 22.5383ZM54.4688 22.5383C54.4688 21.7352 54.2891 21.0215 53.9297 20.5753C53.5703 20.04 53.0313 19.7723 52.3125 19.7723C51.8633 19.7723 51.4141 19.9508 51.0547 20.2184C50.6953 20.4861 50.4258 20.9322 50.3359 21.3783C50.2461 21.646 50.2461 21.8245 50.2461 21.9137V23.3413C50.2461 23.9658 50.4258 24.412 50.7852 24.8581C51.1445 25.3042 51.6836 25.4827 52.2227 25.4827C52.9414 25.4827 53.4805 25.215 53.8398 24.6796C54.2891 24.1443 54.4688 23.4305 54.4688 22.5383Z" fill="#110D34"/>
<path d="M65.9687 22.5383C65.9687 23.9658 65.6094 25.0365 64.8008 25.9288C64.082 26.6426 63.2734 26.9995 62.1953 26.9995C61.1172 26.9995 60.3086 26.6426 59.8594 25.8396V30.2115H57.9727V21.2891C57.9727 20.3969 57.9727 19.5046 57.8828 18.5232H59.5L59.5898 19.8615C60.2187 18.8801 61.1172 18.3447 62.375 18.3447C63.3633 18.3447 64.1719 18.7016 64.8008 19.5046C65.6094 20.2184 65.9687 21.1999 65.9687 22.5383ZM64.082 22.5383C64.082 21.7352 63.9023 21.0215 63.543 20.5753C63.1836 20.04 62.6445 19.7723 61.9258 19.7723C61.4766 19.7723 61.0273 19.9508 60.668 20.2184C60.3086 20.4861 60.0391 20.9322 59.9492 21.3783C59.8594 21.646 59.8594 21.8245 59.8594 21.9137V23.3413C59.8594 23.9658 60.0391 24.412 60.3984 24.8581C60.7578 25.3042 61.2969 25.4827 61.8359 25.4827C62.5547 25.4827 63.0938 25.215 63.4531 24.6796C63.9023 24.1443 64.082 23.4305 64.082 22.5383Z" fill="#110D34"/>
<path d="M76.75 25.5362C76.75 26.5177 76.3906 27.3207 75.7617 27.9453C75.043 28.6591 73.9648 28.9268 72.6172 28.9268C71.3594 28.9268 70.3711 28.6591 69.6523 28.213L70.1016 26.6962C70.9102 27.1423 71.8086 27.4099 72.7969 27.4099C73.5156 27.4099 74.0547 27.2315 74.4141 26.9638C74.7734 26.6069 74.9531 26.25 74.9531 25.7147C74.9531 25.2686 74.7734 24.8224 74.5039 24.5548C74.1445 24.1979 73.6055 23.9302 72.8867 23.6625C70.8203 22.9487 69.832 21.7888 69.832 20.3612C69.832 19.3798 70.1914 18.666 70.9102 18.0414C71.6289 17.4168 72.5273 17.1492 73.7852 17.1492C74.8633 17.1492 75.6719 17.3276 76.3906 17.6845L75.9414 19.2013C75.3125 18.8444 74.5938 18.666 73.6953 18.666C73.0664 18.666 72.5273 18.8444 72.168 19.1121C71.8984 19.3798 71.7187 19.7367 71.7187 20.1828C71.7187 20.6289 71.8984 20.9858 72.2578 21.3427C72.5273 21.6104 73.1562 21.878 73.9648 22.2349C74.9531 22.5918 75.6719 23.1272 76.2109 23.6625C76.4805 24.1087 76.75 24.7332 76.75 25.5362Z" fill="#110D34"/>
<path d="M82.8594 21.8784H80.793V25.8935C80.793 26.875 81.1523 27.4103 81.8711 27.4103C82.2305 27.4103 82.5 27.4103 82.6797 27.3211L82.7695 28.7487C82.4102 28.9271 81.9609 28.9271 81.332 28.9271C80.6133 28.9271 79.9844 28.7487 79.625 28.3026C79.1758 27.8564 78.9961 27.1426 78.9961 26.072V21.8784H77.7383V20.4508H78.9961V18.934L80.793 18.3987V20.4508H82.8594V21.8784Z" fill="#110D34"/>
<path d="M92.1133 24.5542C92.1133 25.8034 91.7539 26.8741 91.0352 27.6771C90.2266 28.4801 89.2383 28.9262 87.9805 28.9262C86.7227 28.9262 85.7344 28.4801 85.0156 27.6771C84.2969 26.8741 83.9375 25.8926 83.9375 24.6435C83.9375 23.3943 84.2969 22.3236 85.1055 21.5206C85.8242 20.7176 86.9023 20.2715 88.1602 20.2715C89.418 20.2715 90.4062 20.7176 91.125 21.5206C91.7539 22.3236 92.1133 23.3051 92.1133 24.5542ZM90.1367 24.6435C90.1367 23.8404 89.957 23.2159 89.5977 22.6805C89.2383 22.056 88.6094 21.6991 87.8906 21.6991C87.1719 21.6991 86.543 22.056 86.1836 22.6805C85.8242 23.2159 85.6445 23.9297 85.6445 24.6435C85.6445 25.4465 85.8242 26.0711 86.1836 26.6064C86.543 27.231 87.1719 27.5879 87.8906 27.5879C88.6094 27.5879 89.1484 27.231 89.5977 26.6064C89.957 26.0711 90.1367 25.3573 90.1367 24.6435Z" fill="#110D34"/>
<path d="M98.1328 22.0573C97.9531 22.0573 97.7734 21.9681 97.5039 21.9681C96.875 21.9681 96.3359 22.2357 95.9766 22.6819C95.707 23.128 95.5273 23.6633 95.5273 24.2879V28.6599H93.6406V22.9495C93.6406 21.9681 93.6406 21.1651 93.5508 20.362H95.168L95.2578 21.9681H95.3477C95.5273 21.4327 95.8867 20.9866 96.2461 20.6297C96.6953 20.362 97.1445 20.1836 97.5938 20.1836C97.7734 20.1836 97.9531 20.1836 98.043 20.1836L98.1328 22.0573Z" fill="#110D34"/>
<path d="M106.398 24.1973C106.398 24.5542 106.398 24.8219 106.309 25.0004H100.738C100.738 25.8034 101.008 26.4279 101.547 26.8741C101.996 27.231 102.625 27.4986 103.344 27.4986C104.152 27.4986 104.961 27.4094 105.59 27.1417L105.859 28.3909C105.051 28.7478 104.152 28.9262 103.074 28.9262C101.816 28.9262 100.738 28.5693 100.02 27.7663C99.3008 27.0525 98.9414 25.9818 98.9414 24.7327C98.9414 23.4836 99.3008 22.4129 99.9297 21.6098C100.648 20.7176 101.637 20.2715 102.895 20.2715C104.063 20.2715 105.051 20.7176 105.59 21.6098C106.219 22.3236 106.398 23.2159 106.398 24.1973ZM104.691 23.7512C104.691 23.2159 104.602 22.7698 104.332 22.3236C103.973 21.7883 103.523 21.5206 102.895 21.5206C102.266 21.5206 101.816 21.7883 101.457 22.2344C101.187 22.5913 101.008 23.1267 100.918 23.662H104.691V23.7512V23.7512Z" fill="#110D34"/>
<path d="M42.7891 10.1904C42.7891 11.1719 42.5195 11.9749 41.8906 12.5102C41.3516 12.9563 40.543 13.224 39.4648 13.224C38.9258 13.224 38.4766 13.224 38.1172 13.1348V7.6029C38.5664 7.51367 39.1055 7.51367 39.7344 7.51367C40.7227 7.51367 41.4414 7.69212 41.9805 8.13824C42.4297 8.58436 42.7891 9.29815 42.7891 10.1904ZM41.8008 10.1904C41.8008 9.56583 41.6211 9.03048 41.2617 8.67359C40.9023 8.31669 40.3633 8.13824 39.7344 8.13824C39.4648 8.13824 39.1953 8.13824 39.0156 8.22747V12.421C39.1055 12.421 39.375 12.421 39.6445 12.421C40.3633 12.421 40.9023 12.2426 41.2617 11.8857C41.6211 11.5288 41.8008 10.9042 41.8008 10.1904Z" fill="#110D34"/>
<path d="M47.8203 11.0828C47.8203 11.7074 47.6406 12.2427 47.2813 12.5996C46.9219 13.0457 46.3828 13.2242 45.7539 13.2242C45.125 13.2242 44.6758 13.0457 44.3164 12.5996C43.957 12.2427 43.7773 11.7074 43.7773 11.0828C43.7773 10.4582 43.957 9.92287 44.3164 9.56598C44.6758 9.11986 45.2148 8.94141 45.8437 8.94141C46.4727 8.94141 46.9219 9.11986 47.2813 9.56598C47.6406 9.92287 47.8203 10.4582 47.8203 11.0828ZM46.9219 11.0828C46.9219 10.7259 46.832 10.369 46.6523 10.1013C46.4727 9.74442 46.2031 9.6552 45.8437 9.6552C45.4844 9.6552 45.2148 9.83365 45.0352 10.1013C44.8555 10.369 44.7656 10.7259 44.7656 11.0828C44.7656 11.4397 44.8555 11.7966 45.0352 12.0643C45.2148 12.4211 45.4844 12.5104 45.8437 12.5104C46.2031 12.5104 46.4727 12.3319 46.6523 11.975C46.832 11.7966 46.9219 11.4397 46.9219 11.0828Z" fill="#110D34"/>
<path d="M54.7382 9.03027L53.4803 13.1346H52.6718L52.1327 11.3501C51.953 10.904 51.8632 10.4579 51.7733 10.0117C51.6835 10.4579 51.5936 10.904 51.4139 11.3501L50.8749 13.1346H50.0663L48.7186 9.03027H49.6171L50.0663 10.9932C50.1561 11.4393 50.246 11.8854 50.3358 12.3316C50.4257 11.9747 50.5155 11.5285 50.6952 10.9932L51.2343 9.03027H51.953L52.4921 10.904C52.6718 11.3501 52.7616 11.7962 52.8514 12.2423C52.9413 11.7962 53.0311 11.3501 53.121 10.904L53.66 9.03027H54.7382Z" fill="#110D34"/>
<path d="M59.4102 13.1343H58.5117V10.8145C58.5117 10.1007 58.2422 9.7438 57.7031 9.7438C57.4336 9.7438 57.2539 9.83303 57.0742 10.0115C56.8945 10.1899 56.8047 10.4576 56.8047 10.7253V13.1343H55.9062V10.1899C55.9062 9.83303 55.9062 9.47613 55.9062 9.03001H56.7148V9.65458C56.8047 9.47613 56.9844 9.29768 57.1641 9.11924C57.4336 8.94079 57.7031 8.85156 57.9727 8.85156C58.332 8.85156 58.6914 8.94079 58.9609 9.20846C59.3203 9.47613 59.4102 9.92225 59.4102 10.5468V13.1343Z" fill="#110D34"/>
<path d="M61.9255 13.1345H61.0271V7.15649H61.9255V13.1345Z" fill="#110D34"/>
<path d="M67.3164 11.0828C67.3164 11.7074 67.1367 12.2427 66.7773 12.5996C66.418 13.0457 65.8789 13.2242 65.25 13.2242C64.6211 13.2242 64.1719 13.0457 63.8125 12.5996C63.4531 12.2427 63.2734 11.7074 63.2734 11.0828C63.2734 10.4582 63.4531 9.92287 63.8125 9.56598C64.1719 9.20908 64.7109 8.94141 65.3398 8.94141C65.9688 8.94141 66.418 9.11986 66.7773 9.56598C67.1367 9.92287 67.3164 10.4582 67.3164 11.0828ZM66.418 11.0828C66.418 10.7259 66.3281 10.369 66.1484 10.1013C65.9688 9.74442 65.6992 9.6552 65.3398 9.6552C64.9805 9.6552 64.7109 9.83365 64.5313 10.1013C64.3516 10.369 64.2617 10.7259 64.2617 11.0828C64.2617 11.4397 64.3516 11.7966 64.5313 12.0643C64.7109 12.4211 64.9805 12.5104 65.3398 12.5104C65.6992 12.5104 65.9688 12.3319 66.1484 11.975C66.3281 11.7966 66.418 11.4397 66.418 11.0828Z" fill="#110D34"/>
<path d="M71.7187 13.1349H70.9102L70.8203 12.6888C70.5508 13.0457 70.1016 13.2242 69.6523 13.2242C69.293 13.2242 68.9336 13.1349 68.7539 12.8673C68.5742 12.5996 68.3945 12.3319 68.3945 12.0643C68.3945 11.5289 68.5742 11.172 69.0234 10.9043C69.4727 10.6367 70.0117 10.5474 70.8203 10.5474V10.4582C70.8203 9.92287 70.5508 9.6552 70.0117 9.6552C69.5625 9.6552 69.293 9.74442 68.9336 9.92287L68.7539 9.2983C69.1133 9.03063 69.5625 8.94141 70.1914 8.94141C71.2695 8.94141 71.8086 9.47675 71.8086 10.6367V12.1535C71.7187 12.5996 71.7187 12.8673 71.7187 13.1349ZM70.8203 11.7074V11.0828C69.832 11.0828 69.293 11.3505 69.293 11.8858C69.293 12.0643 69.3828 12.2427 69.4727 12.3319C69.5625 12.4211 69.7422 12.5104 69.9219 12.5104C70.1016 12.5104 70.2812 12.4211 70.4609 12.3319C70.6406 12.2427 70.7305 12.0643 70.8203 11.8858C70.8203 11.8858 70.8203 11.7966 70.8203 11.7074Z" fill="#110D34"/>
<path d="M76.9297 13.1339H76.1211V12.5093C75.8516 13.0447 75.4023 13.2231 74.7734 13.2231C74.2344 13.2231 73.875 13.0447 73.5156 12.6878C73.1562 12.3309 73.0664 11.7955 73.0664 11.171C73.0664 10.5464 73.2461 10.0111 73.6055 9.56495C73.9648 9.20805 74.4141 9.0296 74.8633 9.0296C75.4023 9.0296 75.7617 9.20805 76.0313 9.56495V7.24512H76.9297V12.0632C76.9297 12.4201 76.9297 12.777 76.9297 13.1339ZM76.0313 11.4387V10.7249C76.0313 10.6356 76.0313 10.5464 76.0313 10.4572C75.9414 10.2787 75.8516 10.1003 75.6719 9.92184C75.4922 9.74339 75.3125 9.74339 75.043 9.74339C74.6836 9.74339 74.4141 9.92184 74.2344 10.1895C74.0547 10.4572 73.9648 10.8141 73.9648 11.2602C73.9648 11.7063 74.0547 11.974 74.2344 12.2417C74.4141 12.5093 74.6836 12.6878 75.043 12.6878C75.3125 12.6878 75.582 12.5986 75.7617 12.3309C75.9414 11.974 76.0313 11.7063 76.0313 11.4387Z" fill="#110D34"/>
<path d="M84.7461 11.0828C84.7461 11.7074 84.5664 12.2427 84.207 12.5996C83.8477 13.0457 83.3086 13.2242 82.6797 13.2242C82.0508 13.2242 81.6016 13.0457 81.2422 12.5996C80.8828 12.2427 80.7031 11.7074 80.7031 11.0828C80.7031 10.4582 80.8828 9.92287 81.2422 9.56598C81.6016 9.11986 82.1406 8.94141 82.7695 8.94141C83.3984 8.94141 83.8477 9.11986 84.207 9.56598C84.5664 9.92287 84.7461 10.4582 84.7461 11.0828ZM83.7578 11.0828C83.7578 10.7259 83.668 10.369 83.4883 10.1013C83.3086 9.74442 83.0391 9.6552 82.6797 9.6552C82.3203 9.6552 82.0508 9.83365 81.8711 10.1013C81.6914 10.369 81.6016 10.7259 81.6016 11.0828C81.6016 11.4397 81.6914 11.7966 81.8711 12.0643C82.0508 12.4211 82.3203 12.5104 82.6797 12.5104C83.0391 12.5104 83.3086 12.3319 83.4883 11.975C83.668 11.7966 83.7578 11.4397 83.7578 11.0828Z" fill="#110D34"/>
<path d="M89.6875 13.1343H88.7891V10.8145C88.7891 10.1007 88.5195 9.7438 87.9805 9.7438C87.7109 9.7438 87.5313 9.83303 87.3516 10.0115C87.1719 10.1899 87.082 10.4576 87.082 10.7253V13.1343H86.1836V10.1899C86.1836 9.83303 86.1836 9.47613 86.1836 9.03001H86.9922V9.65458C87.082 9.47613 87.2617 9.29768 87.4414 9.11924C87.7109 8.94079 87.9805 8.85156 88.25 8.85156C88.6094 8.85156 88.9688 8.94079 89.2383 9.20846C89.5977 9.47613 89.6875 9.92225 89.6875 10.5468V13.1343Z" fill="#110D34"/>
<path d="M95.7969 9.74409H94.8086V11.707C94.8086 12.2424 94.9883 12.4208 95.3477 12.4208C95.5273 12.4208 95.6172 12.4208 95.7969 12.4208V13.1346C95.6172 13.2238 95.3477 13.2238 95.0781 13.2238C94.7188 13.2238 94.4492 13.1346 94.2695 12.8669C94.0898 12.6885 94 12.2424 94 11.7962V9.74409H93.3711V9.03029H94V8.3165L94.8984 8.04883V9.03029H95.8867V9.74409H95.7969Z" fill="#110D34"/>
<path d="M100.648 13.1345H99.7499V10.8147C99.7499 10.1009 99.4803 9.74399 98.9413 9.74399C98.4921 9.74399 98.2225 9.92244 98.0428 10.3686C98.0428 10.4578 98.0428 10.547 98.0428 10.7255V13.1345H97.1444V7.15649H98.0428V9.65477C98.3124 9.20865 98.7616 8.94098 99.3007 8.94098C99.66 8.94098 100.019 9.0302 100.199 9.29787C100.469 9.56555 100.648 10.1009 100.648 10.6362V13.1345Z" fill="#110D34"/>
<path d="M105.59 10.904C105.59 11.0824 105.59 11.1717 105.59 11.3501H102.895C102.895 11.7962 103.074 12.0639 103.254 12.2423C103.523 12.4208 103.793 12.51 104.152 12.51C104.602 12.51 104.961 12.4208 105.23 12.3316L105.41 12.9561C105.051 13.1346 104.602 13.2238 104.062 13.2238C103.434 13.2238 102.895 13.0454 102.535 12.6885C102.176 12.3316 101.996 11.7962 101.996 11.1717C101.996 10.5471 102.176 10.0117 102.535 9.65484C102.895 9.20872 103.344 9.03027 103.973 9.03027C104.602 9.03027 105.051 9.20872 105.32 9.65484C105.5 9.92251 105.59 10.3686 105.59 10.904ZM104.781 10.6363C104.781 10.3686 104.691 10.101 104.602 9.92251C104.422 9.65484 104.242 9.56562 103.883 9.56562C103.613 9.56562 103.344 9.65484 103.164 9.92251C102.984 10.101 102.895 10.3686 102.895 10.6363H104.781Z" fill="#110D34"/>
</g>
</g>
<defs>
<filter id="filter0_d_317_99" x="-25.2209" y="-26.2209" width="169.442" height="90.1315" filterUnits="userSpaceOnUse" color-interpolation-filters="sRGB">
<feFlood flood-opacity="0" result="BackgroundImageFix"/>
<feColorMatrix in="SourceAlpha" type="matrix" values="0 0 0 0 0 0 0 0 0 0 0 0 0 0 0 0 0 0 127 0" result="hardAlpha"/>
<feMorphology radius="3.02455" operator="dilate" in="SourceAlpha" result="effect1_dropShadow_317_99"/>
<feOffset/>
<feGaussianBlur stdDeviation="12.0982"/>
<feComposite in2="hardAlpha" operator="out"/>
<feColorMatrix type="matrix" values="0 0 0 0 0.516667 0 0 0 0 0.516667 0 0 0 0 0.516667 0 0 0 0.2 0"/>
<feBlend mode="normal" in2="BackgroundImageFix" result="effect1_dropShadow_317_99"/>
<feBlend mode="normal" in="SourceGraphic" in2="effect1_dropShadow_317_99" result="shape"/>
</filter>
<clipPath id="clip0_317_99">
<rect width="120" height="38" fill="white"/>
</clipPath>
</defs>
</svg>
