<svg width="120" height="38" viewBox="0 0 120 38" fill="none" xmlns="http://www.w3.org/2000/svg">
<g clip-path="url(#clip0_317_99)">
<g clip-path="url(#clip1_317_99)" filter="url(#filter0_d_317_99)">
<path d="M113.406 36.6894H5.59375C3.61719 36.6894 2 35.0834 2 33.1204V4.56872C2 2.60579 3.61719 0.999756 5.59375 0.999756H113.406C115.383 0.999756 117 2.60579 117 4.56872V33.1204C117 35.0834 115.383 36.6894 113.406 36.6894Z" fill="white"/>
<path fill-rule="evenodd" clip-rule="evenodd" d="M10.8052 18.4875V9.11892C10.8052 8.58357 11.2544 8.13745 11.7036 8.13745C12.1528 8.13745 12.3325 8.22668 12.6021 8.40512L29.9419 17.8629C30.3013 18.0413 30.481 18.309 30.481 18.5767C30.481 18.8443 30.3013 19.112 29.9419 19.2905L12.6021 28.7482C12.4224 28.8375 12.1528 29.0159 11.7036 29.0159C11.2544 29.0159 10.8052 28.5698 10.8052 28.0344V18.4875Z" fill="url(#paint0_linear_317_99)"/>
<path fill-rule="evenodd" clip-rule="evenodd" d="M22.0338 18.5767L11.5221 8.13745C11.6119 8.13745 11.6119 8.13745 11.7018 8.13745C12.151 8.13745 12.3307 8.22668 12.6002 8.40512L25.358 15.3646L22.0338 18.5767Z" fill="url(#paint1_linear_317_99)"/>
<path fill-rule="evenodd" clip-rule="evenodd" d="M25.2686 21.6996L22.0342 18.4876L25.3584 15.1863L29.9404 17.6846C30.2998 17.863 30.4795 18.1307 30.4795 18.3983C30.4795 18.666 30.2998 18.9337 29.9404 19.1121L25.2686 21.6996Z" fill="url(#paint2_linear_317_99)"/>
<path fill-rule="evenodd" clip-rule="evenodd" d="M11.6143 28.8371L22.0361 18.4871L25.2705 21.6991L12.6025 28.5694C12.333 28.7478 12.1533 28.8371 11.6143 28.8371C11.7041 28.8371 11.7041 28.8371 11.6143 28.8371Z" fill="url(#paint3_linear_317_99)"/>
<path fill-rule="evenodd" clip-rule="evenodd" d="M65.8791 31.2467C65.4299 30.8898 65.0705 30.2652 64.8908 29.9083L66.3283 29.2838C66.4182 29.4622 66.5978 29.7299 66.7775 29.9976C67.1369 30.3545 67.676 30.7113 68.215 30.7113C68.7541 30.7113 69.383 30.4437 69.7424 29.9976C70.0119 29.5514 70.1916 29.1053 70.1916 28.4807V27.9454C69.1135 29.2838 66.8674 29.1053 65.6096 27.6777C64.2619 26.2501 64.2619 23.8411 65.6096 22.4135C66.9572 21.0751 68.9338 20.8967 70.1017 22.1458V21.5213H71.6291V28.2131C71.6291 29.9083 71.0002 30.8898 70.1916 31.5144C69.6525 31.9605 68.8439 32.1389 68.1252 32.1389C67.3166 32.0497 66.508 31.782 65.8791 31.2467ZM103.524 31.6036L105.051 28.0346L102.356 21.8782H103.883L105.77 26.2501L107.656 21.8782H109.184L105.051 31.6036H103.524ZM96.2463 28.2131C95.7971 27.767 95.6174 27.1424 95.6174 26.5178C95.6174 25.9825 95.7971 25.4471 96.1564 25.0902C96.7853 24.4657 97.6838 24.198 98.6721 24.198C99.301 24.198 99.84 24.2872 100.289 24.5549C100.289 23.4842 99.3908 23.0381 98.6721 23.0381C98.0431 23.0381 97.4142 23.395 97.1447 24.0195L95.7971 23.4842C96.0666 22.8596 96.7853 21.6997 98.5822 21.6997C99.4806 21.6997 100.379 21.9674 100.918 22.592C101.457 23.2165 101.637 23.9303 101.637 24.9118V28.6592H100.11V28.0346C99.9299 28.3023 99.5705 28.4807 99.301 28.6592C98.9416 28.8376 98.4924 28.9269 98.0432 28.9269C97.5041 28.8376 96.6955 28.6592 96.2463 28.2131ZM48.3596 25.001C48.3596 23.2165 49.7072 21.2536 52.133 21.2536C54.4689 21.2536 55.9064 23.2165 55.9064 25.001C55.9064 26.7855 54.5588 28.7484 52.133 28.7484C49.7072 28.7484 48.3596 26.7855 48.3596 25.001ZM56.4455 25.001C56.4455 23.2165 57.7932 21.2536 60.2189 21.2536C62.5549 21.2536 63.9924 23.2165 63.9924 25.001C63.9924 26.7855 62.6447 28.7484 60.2189 28.7484C57.883 28.7484 56.4455 26.7855 56.4455 25.001ZM38.2072 26.9639C35.9611 24.7333 36.051 21.0751 38.2971 18.7553C39.465 17.5954 40.9025 17.0601 42.4299 17.0601C43.8674 17.0601 45.3049 17.5954 46.383 18.6661L45.3049 19.826C43.6877 18.22 41.0822 18.3092 39.5549 19.9152C37.9377 21.6105 37.9377 24.198 39.5549 25.8932C41.1721 27.5885 43.8674 27.6777 45.4846 25.9825C46.0236 25.4471 46.2033 24.7333 46.2932 24.0195H42.5197V22.4135H47.8205C47.9103 22.7704 47.9103 23.2165 47.9103 23.6626C47.9103 25.001 47.3713 26.3394 46.4728 27.2316C45.4846 28.2131 44.0471 28.7484 42.6096 28.7484C40.9924 28.6592 39.3752 28.1239 38.2072 26.9639ZM76.2111 27.5885C74.8635 26.1609 74.8635 23.7519 76.2111 22.2351C77.5588 20.8075 79.8049 20.8075 81.0627 22.2351C81.5119 22.6812 81.7814 23.3057 82.051 23.9303L77.1096 25.9825C77.3791 26.607 78.008 27.1424 78.9064 27.1424C79.715 27.1424 80.2541 26.8747 80.7931 26.0717L82.1408 26.9639C81.9611 27.1424 81.7814 27.3208 81.6916 27.4993C80.1642 29.0161 77.5588 29.0161 76.2111 27.5885ZM85.5549 28.6592V18.7553H88.7892C90.676 18.7553 92.2033 20.0937 92.2033 21.6997C92.2033 23.3057 90.8556 24.6441 89.1486 24.6441H87.1721V28.57L85.5549 28.6592ZM93.1017 28.6592V18.7553H94.6291V28.6592H93.1017ZM72.7971 28.4807V17.417H74.4142V28.4807H72.7971ZM100.199 25.7148C99.84 25.4471 99.301 25.3579 98.7619 25.3579C97.6838 25.3579 97.0549 25.8932 97.0549 26.5178C97.0549 27.1424 97.6838 27.4993 98.3127 27.4993C99.2111 27.4993 100.199 26.7855 100.199 25.7148ZM54.1994 25.001C54.1994 23.9303 53.4807 22.7704 52.133 22.7704C50.7853 22.7704 50.0666 23.9303 50.0666 25.001C50.0666 26.0717 50.7853 27.2316 52.133 27.2316C53.3908 27.2316 54.1994 26.0717 54.1994 25.001ZM62.2853 25.001C62.2853 23.9303 61.5666 22.7704 60.2189 22.7704C58.8713 22.7704 58.1525 23.9303 58.1525 25.001C58.1525 26.0717 58.8713 27.2316 60.2189 27.2316C61.5666 27.2316 62.2853 26.0717 62.2853 25.001ZM70.2814 25.6256C70.2814 25.5364 70.2814 25.4471 70.3713 25.3579C70.3713 25.2687 70.3713 25.0902 70.3713 25.001C70.3713 24.9118 70.3713 24.7333 70.3713 24.6441V24.5549C70.3713 24.4657 70.2814 24.2872 70.2814 24.198C70.0119 23.3057 69.2033 22.6812 68.3947 22.6812C67.3166 22.6812 66.4181 23.7519 66.4181 24.9118C66.4181 26.1609 67.3166 27.1424 68.4846 27.1424C69.2033 27.2316 69.9221 26.607 70.2814 25.6256ZM76.84 24.8226L80.1642 23.395C79.8049 22.7704 79.2658 22.592 78.8166 22.592C77.4689 22.6812 76.6603 24.1088 76.84 24.8226ZM90.5861 21.7889C90.5861 20.8967 89.8674 20.2721 88.8791 20.2721H87.0822V23.395H88.9689C89.8674 23.395 90.5861 22.6812 90.5861 21.7889Z" fill="#110D34"/>
<path fill-rule="evenodd" clip-rule="evenodd" d="M104.694 29.8189H104.603V29.7292H104.694H104.603V29.8189H104.694Z" fill="white"/>
<path fill-rule="evenodd" clip-rule="evenodd" d="M104.874 29.8189C104.874 29.7292 104.874 29.7292 104.874 29.8189C104.782 29.7292 104.782 29.7292 104.874 29.8189C104.782 29.8189 104.782 29.8189 104.874 29.8189ZM104.874 29.7292C104.874 29.8189 104.874 29.8189 104.874 29.7292C104.874 29.8189 104.782 29.8189 104.874 29.7292C104.874 29.7292 104.782 29.7292 104.874 29.7292Z" fill="white"/>
<path fill-rule="evenodd" clip-rule="evenodd" d="M104.962 29.7292H104.871H104.962V29.8189V29.7292Z" fill="white"/>
<path d="M36.9502 10.0111C36.9502 8.40505 38.1182 7.42358 39.5557 7.42358C40.5439 7.42358 41.1728 7.8697 41.6221 8.49427L40.9033 8.94039C40.6338 8.5835 40.1846 8.31583 39.5557 8.31583C38.5674 8.31583 37.8486 9.02962 37.8486 10.1003C37.8486 11.171 38.5674 11.8848 39.5557 11.8848C40.0947 11.8848 40.5439 11.6171 40.7236 11.4387V10.6357H39.2861V9.83264H41.7119V11.7063C41.2627 12.2417 40.5439 12.5986 39.6455 12.5986C38.1182 12.5986 36.9502 11.5279 36.9502 10.0111Z" fill="#110D34"/>
<path d="M42.7881 12.51V7.51343H46.2021V8.31644H43.5967V9.56558H46.1123V10.3686H43.5967V11.7962H46.2021V12.5992L42.7881 12.51Z" fill="#110D34"/>
<path d="M48.7192 12.51V8.31644H47.1919V7.51343H51.145V8.31644H49.6177V12.51C49.6177 12.51 48.7192 12.51 48.7192 12.51Z" fill="#110D34"/>
<path d="M54.1982 12.51V7.51343H55.0967V12.51H54.1982V12.51Z" fill="#110D34"/>
<path d="M57.5244 12.51V8.31644H55.9971V7.51343H59.9502V8.31644H58.4229V12.51C58.4229 12.51 57.5244 12.51 57.5244 12.51Z" fill="#110D34"/>
<path d="M62.8247 10.0111C62.8247 8.49427 63.9028 7.42358 65.4302 7.42358C66.9575 7.42358 68.0356 8.49427 68.0356 10.0111C68.0356 11.5279 66.9575 12.5986 65.4302 12.5986C63.9028 12.5986 62.8247 11.4387 62.8247 10.0111ZM67.0474 10.0111C67.0474 8.94039 66.4185 8.2266 65.3403 8.2266C64.3521 8.2266 63.6333 9.02962 63.6333 10.0111C63.6333 11.0818 64.2622 11.7956 65.3403 11.7956C66.4185 11.7956 67.0474 10.9925 67.0474 10.0111Z" fill="#110D34"/>
<path d="M72.5264 12.51L69.9209 8.94101V12.51H69.0225V7.51343H69.9209L72.5264 10.9932V7.51343H73.4248V12.51H72.5264V12.51Z" fill="#110D34"/>
</g>
</g>
<defs>
<filter id="filter0_d_317_99" x="-25.2209" y="-26.2209" width="169.442" height="90.1315" filterUnits="userSpaceOnUse" color-interpolation-filters="sRGB">
<feFlood flood-opacity="0" result="BackgroundImageFix"/>
<feColorMatrix in="SourceAlpha" type="matrix" values="0 0 0 0 0 0 0 0 0 0 0 0 0 0 0 0 0 0 127 0" result="hardAlpha"/>
<feMorphology radius="3.02455" operator="dilate" in="SourceAlpha" result="effect1_dropShadow_317_99"/>
<feOffset/>
<feGaussianBlur stdDeviation="12.0982"/>
<feComposite in2="hardAlpha" operator="out"/>
<feColorMatrix type="matrix" values="0 0 0 0 0.516667 0 0 0 0 0.516667 0 0 0 0 0.516667 0 0 0 0.2 0"/>
<feBlend mode="normal" in2="BackgroundImageFix" result="effect1_dropShadow_317_99"/>
<feBlend mode="normal" in="SourceGraphic" in2="effect1_dropShadow_317_99" result="shape"/>
</filter>
<linearGradient id="paint0_linear_317_99" x1="16.6072" y1="6.86681" x2="21.5715" y2="27.396" gradientUnits="userSpaceOnUse">
<stop stop-color="#006884"/>
<stop offset="1" stop-color="#8AD1D0"/>
</linearGradient>
<linearGradient id="paint1_linear_317_99" x1="10.4676" y1="9.8063" x2="24.1311" y2="17.2442" gradientUnits="userSpaceOnUse">
<stop stop-color="#24BBB6"/>
<stop offset="1" stop-color="#DBE692"/>
</linearGradient>
<linearGradient id="paint2_linear_317_99" x1="26.2568" y1="22.0745" x2="26.2568" y2="14.9826" gradientUnits="userSpaceOnUse">
<stop stop-color="#FCC072"/>
<stop offset="1" stop-color="#F58A5B"/>
</linearGradient>
<linearGradient id="paint3_linear_317_99" x1="13.1102" y1="30.6572" x2="23.8617" y2="19.6393" gradientUnits="userSpaceOnUse">
<stop stop-color="#712B8F"/>
<stop offset="1" stop-color="#EA1D27"/>
</linearGradient>
<clipPath id="clip0_317_99">
<rect width="120" height="38" fill="white"/>
</clipPath>
<clipPath id="clip1_317_99">
<rect width="115" height="35.6897" fill="white" transform="translate(2 1)"/>
</clipPath>
</defs>
</svg>
