<svg width="82" height="84" viewBox="0 0 82 84" fill="none" xmlns="http://www.w3.org/2000/svg">
<g filter="url(#filter0_d_4_17)">
<rect x="8" width="66" height="66" rx="20" fill="#F5F5F5"/>
<g filter="url(#filter1_f_4_17)">
<path d="M52 49.5L60.5 44.5V36.5L51.5 30.5" stroke="#FF5C28" stroke-width="2"/>
</g>
<path fill-rule="evenodd" clip-rule="evenodd" d="M41.3045 13.0905L51.5366 19.6132C51.6931 19.7128 51.771 19.8775 51.7575 20.0399L51.7576 28.9864L61.7683 35.3681C61.9336 35.4685 62.005 35.6233 61.9984 35.8006L61.9985 44.9599C62.012 45.1224 61.9341 45.287 61.7776 45.3866L51.5538 51.9041C51.3692 52.0324 51.1097 52.0319 50.9257 51.9027L41 45.5753L31.0638 51.9095C30.8902 52.0248 30.6492 52.0334 30.4632 51.915L20.2224 45.3866C20.066 45.287 19.988 45.1224 20.0015 44.96L20.0014 35.7999C19.9936 35.6137 20.071 35.466 20.2417 35.362L30.2544 28.9241V20.1125C30.278 19.8429 30.4464 19.6373 30.6902 19.4684L40.7039 13.085C40.8898 12.9665 41.131 12.9751 41.3045 13.0905ZM50.3328 20.0034L46.8714 17.7968L43.2919 20.0787L45.316 20.8739C45.8155 21.0685 45.6864 21.7479 45.1505 21.7837L43.785 21.9456L43.5509 22.7482C43.4391 23.1319 42.8972 23.223 42.6395 22.9151L41.1917 21.4175L37.5385 23.7463L41 25.9529L50.3328 20.0034ZM44.4612 16.2605L40.9999 14.0539L31.667 20.0034L35.1284 22.2099L38.7078 19.9281L36.6838 19.133C36.2028 18.9447 36.2879 18.2752 36.8493 18.2232L38.2148 18.0613L38.4489 17.2586C38.5608 16.8749 39.1026 16.7838 39.3603 17.0917L40.808 18.5893L44.4612 16.2605ZM50.7238 20.9116L41.5189 26.7798V34.8546L50.7239 28.9864L50.7238 20.9116ZM40.481 26.7798L31.2924 20.9221V28.9246L40.481 34.8491V26.7798ZM36.6306 23.1676L45.9635 17.2181L45.3692 16.8393L36.0363 22.7888L36.6306 23.1676ZM42.2899 20.7175L42.0463 20.8728L42.7982 21.6505C42.8695 21.4103 42.8986 21.1726 43.1937 21.0726L42.2899 20.7175ZM39.7098 19.2894L39.9534 19.1341L39.2016 18.3563C39.131 18.5984 39.1029 18.8336 38.8061 18.9344L39.7098 19.2894ZM40.096 35.7616L36.6543 33.5426L33.0512 35.8395L35.0753 36.6346C35.5748 36.8293 35.4457 37.5086 34.9098 37.5445L33.5442 37.7064L33.3101 38.509C33.1982 38.8926 32.6564 38.9837 32.3987 38.6759L30.951 37.1783L27.2978 39.5071L30.7592 41.7137L40.096 35.7616ZM34.2578 31.9974L30.773 29.7505L21.4233 35.7621L24.8877 37.9707L28.4672 35.6888L26.4431 34.8937C25.9436 34.6991 26.0727 34.0197 26.6086 33.9839L27.9741 33.822L28.2082 33.0193C28.32 32.6357 28.8619 32.5446 29.1196 32.8524L30.5673 34.3501L34.2578 31.9974ZM40.4811 36.6738L31.276 42.5418L31.2761 50.6166L40.4811 44.7486V36.6738ZM30.2422 42.5418L21.0352 36.6724L21.0353 44.7472L30.2423 50.6166L30.2422 42.5418ZM25.7955 38.5495L26.3899 38.9282L35.7227 32.9787L35.1285 32.5999L25.7955 38.5495ZM29.4692 35.0501L29.7127 34.8948L28.9609 34.117C28.8903 34.359 28.8623 34.5942 28.5655 34.695L29.4692 35.0501ZM32.0491 36.4781L31.8056 36.6335L32.5576 37.4112C32.629 37.1705 32.6582 36.9332 32.953 36.8332L32.0491 36.4781ZM41.519 36.6737V44.7485L50.7219 50.6152V42.5404L41.519 36.6737ZM60.5737 35.764L57.1123 33.5575L53.5328 35.8394L55.5569 36.6345C56.0564 36.8292 55.9273 37.5085 55.3914 37.5444L54.026 37.7063L53.7919 38.5089C53.68 38.8925 53.1382 38.9836 52.8805 38.6758L51.4327 37.1782L47.7795 39.507L51.2409 41.7136L60.5737 35.764ZM54.7022 32.0212L51.2408 29.8146L41.908 35.7641L45.3693 37.9706L48.9487 35.6888L46.9246 34.8937C46.4251 34.699 46.5542 34.0197 47.0901 33.9838L48.4557 33.822L48.6898 33.0192C48.8016 32.6356 49.3435 32.5445 49.6012 32.8524L51.0489 34.35L54.7022 32.0212ZM60.9648 36.6723L51.7598 42.5404V50.6153L60.9648 44.7471L60.9648 36.6723ZM56.2044 32.9787L55.6101 32.5999L46.2772 38.5495L46.8715 38.9282L56.2044 32.9787ZM52.5308 36.4781L52.2872 36.6335L53.0391 37.4112C53.1105 37.1705 53.1398 36.9332 53.4346 36.8332L52.5308 36.4781ZM49.9507 35.0501L50.1943 34.8947L49.4425 34.117C49.3712 34.357 49.3419 34.595 49.047 34.695L49.9507 35.0501Z" fill="#333333" stroke="#333333" stroke-width="0.2"/>
</g>
<defs>
<filter id="filter0_d_4_17" x="0" y="0" width="82" height="84" filterUnits="userSpaceOnUse" color-interpolation-filters="sRGB">
<feFlood flood-opacity="0" result="BackgroundImageFix"/>
<feColorMatrix in="SourceAlpha" type="matrix" values="0 0 0 0 0 0 0 0 0 0 0 0 0 0 0 0 0 0 127 0" result="hardAlpha"/>
<feOffset dy="10"/>
<feGaussianBlur stdDeviation="4"/>
<feComposite in2="hardAlpha" operator="out"/>
<feColorMatrix type="matrix" values="0 0 0 0 0 0 0 0 0 0 0 0 0 0 0 0 0 0 0.02 0"/>
<feBlend mode="normal" in2="BackgroundImageFix" result="effect1_dropShadow_4_17"/>
<feBlend mode="normal" in="SourceGraphic" in2="effect1_dropShadow_4_17" result="shape"/>
</filter>
<filter id="filter1_f_4_17" x="45.9453" y="24.6679" width="20.5547" height="30.694" filterUnits="userSpaceOnUse" color-interpolation-filters="sRGB">
<feFlood flood-opacity="0" result="BackgroundImageFix"/>
<feBlend mode="normal" in="SourceGraphic" in2="BackgroundImageFix" result="shape"/>
<feGaussianBlur stdDeviation="2.5" result="effect1_foregroundBlur_4_17"/>
</filter>
</defs>
</svg>
