<svg width="156" height="42" viewBox="0 0 156 42" fill="none" xmlns="http://www.w3.org/2000/svg">
<path fill-rule="evenodd" clip-rule="evenodd" d="M39.2738 29.4293C40.5372 26.7584 41.2438 23.7727 41.2438 20.6219C41.2438 9.23274 32.0111 0 20.6219 0C9.23274 0 0 9.23274 0 20.6219C0 23.7727 0.706612 26.7584 1.97001 29.4293H11.8769C13.534 29.4293 14.3803 27.4406 13.2313 26.2465L5.89132 18.6179C3.82318 16.4684 5.34651 12.8888 8.32934 12.8888H32.6391C35.4772 12.8888 37.054 16.1728 35.2794 18.3876L28.88 26.3744C27.8941 27.6049 28.7701 29.4293 30.3469 29.4293H39.2738ZM36.9739 33.1885H30.3469C25.6167 33.1885 22.9887 27.7152 25.9464 24.0238L31.8562 16.648H9.2127L15.9402 23.64C19.3871 27.2225 16.8483 33.1885 11.8769 33.1885H4.26995C8.04021 38.0871 13.9624 41.2438 20.6219 41.2438C27.2814 41.2438 33.2036 38.0871 36.9739 33.1885Z" fill="url(#paint0_linear_1155_8658)"/>
<path d="M131.017 34.8476C129.258 34.8476 127.692 34.4621 126.319 33.6911C124.946 32.896 123.885 31.8359 123.138 30.5107C122.392 29.1855 122.018 27.7398 122.018 26.1737C122.018 24.5353 122.355 23.0053 123.03 21.5838C123.729 20.1381 124.693 18.9816 125.921 18.1142C127.15 17.2468 128.56 16.8131 130.15 16.8131C131.596 16.8131 132.824 17.0902 133.836 17.6444C134.872 18.1985 135.643 18.8611 136.149 19.6321C136.679 20.4032 136.944 21.0898 136.944 21.6922C136.944 22.1259 136.655 22.5114 136.077 22.8487L124.873 29.2457C125.476 30.4023 126.295 31.2817 127.331 31.8841C128.367 32.4623 129.584 32.7514 130.981 32.7514C131.752 32.7514 132.559 32.5587 133.403 32.1732C134.27 31.7877 134.957 31.3299 135.463 30.7998C135.631 30.5589 135.872 30.4384 136.185 30.4384C136.499 30.4384 136.752 30.5468 136.944 30.7637C137.161 30.9564 137.27 31.2094 137.27 31.5226C137.27 31.7636 137.173 32.0045 136.981 32.2455C136.33 32.9924 135.439 33.6188 134.306 34.1248C133.198 34.6067 132.102 34.8476 131.017 34.8476ZM134.704 21.4031C134.366 20.5839 133.836 19.9695 133.113 19.5599C132.391 19.1503 131.415 18.9455 130.186 18.9455C129.029 18.9455 127.993 19.2707 127.078 19.9213C126.162 20.5477 125.439 21.4031 124.909 22.4873C124.403 23.5715 124.138 24.7642 124.114 26.0653C124.114 26.5472 124.138 26.9327 124.187 27.2218L134.704 21.4031Z" fill="#3C3737"/>
<path d="M107.086 34.8115C106.773 34.8115 106.496 34.7031 106.255 34.4862C106.038 34.2453 105.929 33.9803 105.929 33.6911C105.929 33.402 106.014 33.1731 106.182 33.0044L117.242 19.0539H107.447C107.134 19.0539 106.869 18.9455 106.652 18.7286C106.435 18.5118 106.327 18.2347 106.327 17.8974C106.327 17.6082 106.435 17.3552 106.652 17.1384C106.869 16.8974 107.134 16.777 107.447 16.777H119.41C119.723 16.777 119.988 16.8974 120.205 17.1384C120.446 17.3552 120.567 17.6082 120.567 17.8974C120.567 18.1865 120.482 18.4154 120.314 18.584L109.254 32.5346H119.627C119.94 32.5346 120.205 32.6551 120.422 32.896C120.639 33.1129 120.747 33.3779 120.747 33.6911C120.747 33.9803 120.639 34.2453 120.422 34.4862C120.205 34.7031 119.94 34.8115 119.627 34.8115H107.086Z" fill="#FD7C3B"/>
<path d="M101.602 34.8477C101.312 34.8477 101.047 34.7513 100.806 34.5585C100.566 34.3417 100.445 34.1007 100.445 33.8357V11.1028C100.445 10.7896 100.553 10.5366 100.77 10.3438C100.987 10.127 101.264 10.0186 101.602 10.0186C101.891 10.0186 102.144 10.127 102.361 10.3438C102.602 10.5607 102.722 10.8137 102.722 11.1028V33.8357C102.722 34.1007 102.602 34.3417 102.361 34.5585C102.144 34.7513 101.891 34.8477 101.602 34.8477Z" fill="#3C3737"/>
<path d="M93.6956 34.8477C93.4065 34.8477 93.1414 34.7513 92.9005 34.5585C92.6595 34.3417 92.5391 34.1007 92.5391 33.8357V11.1028C92.5391 10.7896 92.6475 10.5366 92.8643 10.3438C93.0812 10.127 93.3583 10.0186 93.6956 10.0186C93.9847 10.0186 94.2377 10.127 94.4546 10.3438C94.6955 10.5607 94.816 10.8137 94.816 11.1028V33.8357C94.816 34.1007 94.6955 34.3417 94.4546 34.5585C94.2377 34.7513 93.9847 34.8477 93.6956 34.8477Z" fill="#3C3737"/>
<path d="M82.2758 34.8476C80.5169 34.8476 78.9508 34.4621 77.5774 33.6911C76.2041 32.896 75.1439 31.8359 74.397 30.5107C73.6501 29.1855 73.2766 27.7398 73.2766 26.1737C73.2766 24.5353 73.6139 23.0053 74.2886 21.5838C74.9873 20.1381 75.9511 18.9816 77.1799 18.1142C78.4087 17.2468 79.8182 16.8131 81.4084 16.8131C82.8541 16.8131 84.0829 17.0902 85.0948 17.6444C86.1309 18.1985 86.9019 18.8611 87.4079 19.6321C87.938 20.4032 88.203 21.0898 88.203 21.6922C88.203 22.1259 87.9139 22.5114 87.3356 22.8487L76.1318 29.2457C76.7341 30.4023 77.5533 31.2817 78.5894 31.8841C79.6254 32.4623 80.8422 32.7514 82.2397 32.7514C83.0107 32.7514 83.8178 32.5587 84.6611 32.1732C85.5285 31.7877 86.2152 31.3299 86.7212 30.7998C86.8898 30.5589 87.1308 30.4384 87.444 30.4384C87.7572 30.4384 88.0102 30.5468 88.203 30.7637C88.4198 30.9564 88.5283 31.2094 88.5283 31.5226C88.5283 31.7636 88.4319 32.0045 88.2391 32.2455C87.5886 32.9924 86.6971 33.6188 85.5647 34.1248C84.4563 34.6067 83.36 34.8476 82.2758 34.8476ZM85.9622 21.4031C85.6249 20.5839 85.0948 19.9695 84.372 19.5599C83.6492 19.1503 82.6734 18.9455 81.4446 18.9455C80.288 18.9455 79.252 19.2707 78.3364 19.9213C77.4208 20.5477 76.698 21.4031 76.1679 22.4873C75.6619 23.5715 75.3969 24.7642 75.3728 26.0653C75.3728 26.5472 75.3969 26.9327 75.4451 27.2218L85.9622 21.4031Z" fill="#FD7C3B"/>
<path d="M61.5394 34.8476C59.3951 34.8476 57.5639 34.3898 56.046 33.4742C54.5521 32.5346 53.504 31.3178 52.9017 29.824C52.7571 29.583 52.6848 29.3421 52.6848 29.1011C52.6848 28.7638 52.8053 28.4867 53.0462 28.2699C53.2872 28.0289 53.5763 27.9085 53.9136 27.9085C54.516 27.9085 54.9135 28.2217 55.1063 28.8482C55.5159 29.9806 56.311 30.9082 57.4916 31.631C58.6963 32.3298 60.0456 32.6791 61.5394 32.6791C62.7201 32.6791 63.7682 32.4743 64.6837 32.0647C65.6234 31.6551 66.3462 31.101 66.8522 30.4022C67.3823 29.7035 67.6473 28.9204 67.6473 28.053C67.6473 26.9447 67.1895 25.9809 66.274 25.1617C65.3584 24.3425 63.8043 23.6318 61.6117 23.0294C56.576 21.656 54.0582 19.4153 54.0582 16.3071C54.0582 15.1265 54.3835 14.0784 55.034 13.1628C55.7086 12.2472 56.6724 11.5244 57.9253 10.9943C59.2023 10.4643 60.6841 10.1992 62.3707 10.1992C64.756 10.1992 66.6113 10.657 67.9365 11.5726C69.2616 12.4641 69.9242 13.6688 69.9242 15.1867C69.9242 15.4999 69.8158 15.777 69.599 16.018C69.3821 16.2348 69.1171 16.3432 68.8039 16.3432C68.5147 16.3432 68.2617 16.2469 68.0449 16.0541C67.8521 15.8614 67.7437 15.6325 67.7196 15.3674C67.5991 14.4519 67.045 13.7049 66.0571 13.1267C65.0933 12.5484 63.8284 12.2593 62.2623 12.2593C60.3829 12.2593 58.9252 12.6086 57.8892 13.3074C56.8772 14.0061 56.3712 14.9699 56.3712 16.1987C56.3712 17.2347 56.8411 18.1142 57.7807 18.837C58.7445 19.5598 60.2143 20.1983 62.19 20.7525C64.7922 21.4753 66.7318 22.427 68.0087 23.6077C69.3098 24.7642 69.9604 26.1857 69.9604 27.8723C69.9604 29.1734 69.5749 30.3661 68.8039 31.4503C68.0328 32.5105 66.9968 33.3417 65.6957 33.9441C64.3946 34.5464 63.0092 34.8476 61.5394 34.8476Z" fill="#3C3737"/>
<path fill-rule="evenodd" clip-rule="evenodd" d="M130.15 16.9446C128.585 16.9446 127.202 17.3708 125.997 18.2216C124.788 19.0752 123.838 20.2138 123.149 21.6406C122.483 23.0436 122.15 24.5541 122.15 26.1737C122.15 27.7179 122.518 29.1412 123.253 30.446C123.988 31.7496 125.03 32.7929 126.384 33.5768C127.735 34.3352 129.279 34.716 131.017 34.716C132.081 34.716 133.16 34.4797 134.253 34.0044C135.371 33.5049 136.244 32.8895 136.879 32.1612C137.058 31.9377 137.138 31.7255 137.138 31.5226C137.138 31.2436 137.043 31.0276 136.857 30.8619L136.851 30.8568L136.846 30.851C136.68 30.6647 136.464 30.5699 136.185 30.5699C135.912 30.5699 135.713 30.672 135.57 30.8752L135.565 30.8834L135.558 30.8906C135.037 31.436 134.335 31.9026 133.457 32.293C132.6 32.6846 131.774 32.8829 130.981 32.8829C129.565 32.8829 128.326 32.5899 127.267 31.9989L127.265 31.9977C126.205 31.3817 125.369 30.483 124.757 29.3064L124.698 29.1942L136.011 22.735C136.011 22.7351 136.011 22.735 136.011 22.735C136.572 22.4076 136.813 22.057 136.813 21.6921C136.813 21.1274 136.564 20.467 136.041 19.7066L136.039 19.7043C135.548 18.956 134.796 18.3069 133.774 17.7603L133.773 17.7597C132.785 17.2185 131.579 16.9446 130.15 16.9446ZM125.845 18.0067C127.098 17.1227 128.534 16.6815 130.15 16.6815C131.612 16.6815 132.863 16.9617 133.899 17.5285C134.948 18.09 135.738 18.7656 136.258 19.5588C136.795 20.34 137.076 21.0525 137.076 21.6921C137.076 22.1946 136.738 22.6151 136.143 22.9623L136.142 22.9629L125.049 29.2966C125.635 30.3776 126.417 31.2004 127.396 31.7697C128.409 32.3349 129.603 32.6199 130.981 32.6199C131.73 32.6199 132.518 32.4327 133.348 32.0535L133.349 32.0529C134.201 31.6741 134.87 31.2275 135.361 30.7159C135.556 30.4428 135.836 30.3068 136.185 30.3068C136.53 30.3068 136.818 30.427 137.038 30.6704C137.281 30.8897 137.401 31.1778 137.401 31.5226C137.401 31.8009 137.289 32.07 137.083 32.3276L137.08 32.3319C136.414 33.0964 135.505 33.733 134.36 34.2449L134.359 34.2454C133.236 34.7336 132.121 34.9791 131.017 34.9791C129.238 34.9791 127.65 34.5891 126.254 33.8058L126.253 33.8049C124.86 32.9986 123.783 31.9218 123.024 30.5752C122.265 29.2297 121.886 27.7617 121.886 26.1737C121.886 24.5166 122.228 22.9672 122.911 21.5273C123.619 20.063 124.597 18.8878 125.845 18.0067ZM127.003 19.8132C127.941 19.1469 129.003 18.8139 130.186 18.8139C131.427 18.8139 132.428 19.0204 133.178 19.4454C133.928 19.8705 134.478 20.5085 134.825 21.3529L134.87 21.4613L124.087 27.427L124.057 27.2434C124.007 26.944 123.983 26.5504 123.983 26.0652L123.983 26.0628C124.007 24.745 124.276 23.534 124.79 22.4316L124.791 22.4295C125.33 21.327 126.067 20.4536 127.003 19.8132ZM130.186 19.0769C129.056 19.0769 128.047 19.3942 127.154 20.0284L127.152 20.0298C126.257 20.6421 125.549 21.4789 125.028 22.5441C124.531 23.6096 124.27 24.7831 124.246 26.0664C124.246 26.4453 124.261 26.7607 124.29 27.014L134.536 21.3454C134.208 20.6055 133.712 20.0503 133.049 19.6742C132.353 19.28 131.402 19.0769 130.186 19.0769Z" fill="#3C3737"/>
<path fill-rule="evenodd" clip-rule="evenodd" d="M107.447 16.9085C107.173 16.9085 106.943 17.012 106.75 17.2263L106.745 17.2315C106.552 17.4253 106.458 17.6453 106.458 17.8973C106.458 18.2036 106.556 18.4459 106.745 18.6355C106.937 18.8271 107.168 18.9223 107.447 18.9223H117.514L106.281 33.092L106.275 33.0974C106.136 33.2363 106.061 33.4289 106.061 33.6911C106.061 33.9417 106.153 34.1746 106.348 34.393C106.564 34.5858 106.809 34.6799 107.086 34.6799H119.627C119.905 34.6799 120.135 34.5856 120.327 34.3956C120.523 34.1764 120.616 33.9427 120.616 33.6911C120.616 33.4119 120.521 33.1806 120.329 32.989L120.324 32.9841C120.131 32.7698 119.901 32.6661 119.627 32.6661H108.982L120.215 18.4963L120.221 18.491C120.36 18.3521 120.435 18.1594 120.435 17.8973C120.435 17.6502 120.334 17.4314 120.117 17.2361L120.107 17.2268C119.914 17.0125 119.685 16.9085 119.41 16.9085H107.447ZM106.557 17.0478C106.797 16.7819 107.096 16.6454 107.447 16.6454H119.41C119.76 16.6454 120.058 16.781 120.298 17.0452C120.56 17.2827 120.698 17.5683 120.698 17.8973C120.698 18.2105 120.607 18.4737 120.412 18.6714L109.527 32.403H119.627C119.978 32.403 120.277 32.5395 120.518 32.8054C120.758 33.0471 120.879 33.345 120.879 33.6911C120.879 34.0167 120.756 34.3122 120.52 34.5742L120.515 34.5793C120.273 34.8214 119.974 34.943 119.627 34.943H107.086C106.739 34.943 106.431 34.8217 106.167 34.584L106.156 34.5747C105.921 34.3127 105.798 34.0167 105.798 33.6911C105.798 33.3779 105.889 33.1147 106.084 32.917L116.97 19.1854H107.447C107.1 19.1854 106.801 19.0637 106.559 18.8216C106.315 18.5775 106.195 18.2657 106.195 17.8973C106.195 17.5721 106.319 17.2871 106.557 17.0478Z" fill="#FD7C3B"/>
<path fill-rule="evenodd" clip-rule="evenodd" d="M93.6955 10.15C93.3893 10.15 93.1469 10.2472 92.9573 10.4368L92.9518 10.4423L92.9517 10.4421C92.7653 10.6077 92.6705 10.8237 92.6705 11.1027V33.8356C92.6705 34.0543 92.7677 34.261 92.9856 34.4581C93.204 34.632 93.4395 34.7161 93.6955 34.7161C93.9523 34.7161 94.1742 34.6316 94.367 34.4602C94.5866 34.2625 94.6844 34.0551 94.6844 33.8356V11.1027C94.6844 10.8556 94.5835 10.6368 94.3665 10.4415L94.3614 10.4369L94.3615 10.4368C94.1676 10.2429 93.9475 10.15 93.6955 10.15ZM92.774 10.248C93.0177 10.0058 93.3285 9.88696 93.6955 9.88696C94.0207 9.88696 94.3057 10.0101 94.5451 10.2483C94.8083 10.4863 94.9475 10.7727 94.9475 11.1027V33.8356C94.9475 34.1461 94.8045 34.4205 94.5425 34.6562L94.5419 34.6568C94.3011 34.8709 94.017 34.9791 93.6955 34.9791C93.3745 34.9791 93.0808 34.8713 92.8183 34.6612L92.8123 34.6564L92.8124 34.6562C92.5505 34.4205 92.4075 34.1461 92.4075 33.8356V11.1027C92.4075 10.7567 92.5286 10.4676 92.774 10.248Z" fill="#3C3737"/>
<path fill-rule="evenodd" clip-rule="evenodd" d="M81.4084 16.9446C79.8437 16.9446 78.461 17.3708 77.2557 18.2216C76.0464 19.0752 75.0968 20.2138 74.4071 21.6406C73.7413 23.0436 73.4081 24.5541 73.4081 26.1737C73.4081 27.7179 73.7761 29.1412 74.5115 30.446C75.2463 31.7496 76.289 32.793 77.6426 33.5768C78.9939 34.3353 80.5371 34.716 82.2758 34.716C83.3398 34.716 84.418 34.4797 85.5115 34.0044C86.6294 33.5049 87.503 32.8895 88.138 32.1612C88.3163 31.9377 88.3967 31.7255 88.3967 31.5226C88.3967 31.2436 88.3019 31.0276 88.1155 30.8619L88.1098 30.8568L88.1046 30.851C87.939 30.6647 87.723 30.5699 87.444 30.5699C87.1704 30.5699 86.9711 30.672 86.8289 30.8752L86.8232 30.8834L86.8163 30.8906C86.2956 31.436 85.5935 31.9026 84.7152 32.293C83.8584 32.6846 83.0327 32.8829 82.2396 32.8829C80.8237 32.8829 79.5841 32.5899 78.5252 31.9989L78.5232 31.9977C77.4638 31.3817 76.6279 30.483 76.0151 29.3064L75.9566 29.1942L87.2693 22.735C87.2691 22.7351 87.2694 22.735 87.2693 22.735C87.8304 22.4076 88.0714 22.0569 88.0714 21.6921C88.0714 21.1274 87.8222 20.467 87.2994 19.7066L87.2978 19.7043C86.8068 18.956 86.0546 18.3069 85.0327 17.7603L85.0316 17.7597C84.0433 17.2185 82.8374 16.9446 81.4084 16.9446ZM77.104 18.0067C78.3563 17.1227 79.7926 16.6815 81.4084 16.6815C82.8703 16.6815 84.1219 16.9617 85.1574 17.5286C86.2069 18.0901 86.9962 18.7656 87.517 19.5588C88.0539 20.34 88.3345 21.0525 88.3345 21.6921C88.3345 22.1946 87.9969 22.6151 87.4018 22.9623L87.4008 22.9629L76.3077 29.2966C76.8934 30.3776 77.6757 31.2004 78.6545 31.7697C79.6675 32.3349 80.8611 32.6199 82.2396 32.6199C82.9883 32.6199 83.7768 32.4327 84.6064 32.0535L84.6077 32.0529C85.4599 31.6741 86.1288 31.2275 86.6194 30.7159C86.8142 30.4428 87.0947 30.3068 87.444 30.3068C87.7887 30.3068 88.0768 30.427 88.2961 30.6705C88.5396 30.8897 88.6597 31.1779 88.6597 31.5226C88.6597 31.8009 88.5479 32.07 88.3418 32.3276L88.3384 32.3319C87.6725 33.0964 86.7639 33.733 85.6183 34.2449L85.6171 34.2454C84.4941 34.7336 83.38 34.9791 82.2758 34.9791C80.497 34.9791 78.9082 34.5891 77.513 33.8058L77.5115 33.8049C76.1187 32.9986 75.0413 31.9218 74.2823 30.5752C73.524 29.2297 73.145 27.7617 73.145 26.1737C73.145 24.5166 73.4863 22.9672 74.1697 21.5273C74.8774 20.063 75.8557 18.8878 77.104 18.0067ZM78.2611 19.8133C79.1994 19.1469 80.2619 18.8139 81.4445 18.8139C82.6859 18.8139 83.6869 19.0204 84.4368 19.4454C85.187 19.8705 85.7361 20.5085 86.0838 21.3529L86.1284 21.4613L75.3459 27.427L75.3153 27.2434C75.2654 26.944 75.2412 26.5504 75.2412 26.0652V26.0628C75.2656 24.745 75.5342 23.534 76.0487 22.4316L76.0497 22.4295C76.5887 21.327 77.3256 20.4536 78.2611 19.8133ZM81.4445 19.0769C80.3144 19.0769 79.3052 19.3942 78.4125 20.0284L78.4106 20.0298C77.5158 20.6421 76.8075 21.4788 76.2866 22.5439C75.7895 23.6095 75.5282 24.783 75.5043 26.0664C75.5043 26.4453 75.5194 26.7607 75.5488 27.014L85.7945 21.3454C85.4665 20.6055 84.9708 20.0503 84.3071 19.6742C83.6113 19.28 82.6607 19.0769 81.4445 19.0769Z" fill="#FB8F48"/>
<path fill-rule="evenodd" clip-rule="evenodd" d="M62.3706 10.3307C60.6978 10.3307 59.2339 10.5936 57.9761 11.1156C56.7413 11.6381 55.7985 12.3473 55.1405 13.2399C54.5071 14.1318 54.1897 15.1527 54.1897 16.3071C54.1897 17.8202 54.8004 19.1227 56.034 20.2205C57.2717 21.322 59.1383 22.2184 61.6463 22.9024L61.6465 22.9025C63.8447 23.5064 65.4229 24.2237 66.3616 25.0637C67.3017 25.9048 67.7788 26.9029 67.7788 28.053C67.7788 28.9489 67.5045 29.7595 66.9579 30.4805C66.4358 31.2009 65.6931 31.7681 64.7368 32.185C63.8017 32.6032 62.735 32.8106 61.5394 32.8106C60.0241 32.8106 58.6518 32.456 57.4256 31.7448L57.4229 31.7432L57.4229 31.7432C56.2208 31.0072 55.4038 30.0575 54.9825 28.8928L54.9804 28.8868L54.9805 28.8868C54.8897 28.5916 54.7545 28.3825 54.5821 28.2467C54.4107 28.1116 54.191 28.04 53.9136 28.04C53.6115 28.04 53.3557 28.1463 53.1392 28.3629L53.1343 28.3677L53.1342 28.3676C52.9222 28.5584 52.8163 28.7993 52.8163 29.1011C52.8163 29.3145 52.88 29.5323 53.0144 29.7562L53.0197 29.7651L53.0236 29.7747C53.6145 31.2401 54.6427 32.4359 56.115 33.3622C57.6083 34.2626 59.4144 34.716 61.5394 34.716C62.9905 34.716 64.3571 34.4188 65.6404 33.8247C66.9228 33.2309 67.9404 32.4136 68.697 31.3735C69.4523 30.3111 69.8288 29.1452 69.8288 27.8723C69.8288 26.2246 69.1953 24.8384 67.9213 23.7059L67.9194 23.7042C66.664 22.5435 64.7468 21.5992 62.1547 20.8792L62.1544 20.8791C60.1725 20.3232 58.6846 19.6793 57.7018 18.9422L57.7005 18.9412C56.7337 18.1976 56.2396 17.2818 56.2396 16.1986C56.2396 14.9266 56.7669 13.9223 57.8144 13.1991L57.8156 13.1983C58.8817 12.4792 60.3691 12.1277 62.2622 12.1277C63.8429 12.1277 65.1335 12.4193 66.1241 13.0134C67.1374 13.6067 67.723 14.385 67.85 15.3502L67.8507 15.3555L67.8506 15.3555C67.8717 15.5878 67.9653 15.7874 68.1351 15.9583C68.3273 16.128 68.5483 16.2117 68.8038 16.2117C69.0818 16.2117 69.3123 16.1173 69.5035 15.9273C69.6978 15.7103 69.7926 15.4651 69.7926 15.1867C69.7926 13.7152 69.1541 12.5502 67.863 11.6817L67.8616 11.6808C66.5667 10.7861 64.7414 10.3307 62.3706 10.3307ZM57.8748 10.8728C59.1709 10.3348 60.6704 10.0676 62.3706 10.0676C64.7701 10.0676 66.6551 10.5277 68.0105 11.4638C69.3693 12.3782 70.0557 13.6225 70.0557 15.1867C70.0557 15.5336 69.9344 15.8417 69.6967 16.1059L69.6921 16.1111L69.6919 16.1109C69.4498 16.353 69.1511 16.4747 68.8038 16.4747C68.4823 16.4747 68.1983 16.3665 67.9574 16.1524L67.9517 16.1472L67.9518 16.1471C67.7385 15.9338 67.6163 15.6774 67.5888 15.382C67.4742 14.5174 66.9518 13.8028 65.9906 13.2401L65.9894 13.2394C65.0526 12.6773 63.8135 12.3908 62.2622 12.3908C60.397 12.3908 58.9691 12.7378 57.9632 13.416C56.9872 14.0901 56.5027 15.0133 56.5027 16.1986C56.5027 17.1873 56.9481 18.0303 57.8602 18.7322C58.805 19.4405 60.2564 20.0735 62.2255 20.6258C64.8369 21.3512 66.7985 22.31 68.097 23.5101C69.4245 24.6906 70.0919 26.1472 70.0919 27.8723C70.0919 29.2013 69.6975 30.4205 68.911 31.5265L68.9102 31.5276C68.1248 32.6076 67.0704 33.4525 65.7509 34.0634C64.4321 34.674 63.0277 34.9791 61.5394 34.9791C59.3761 34.9791 57.5203 34.5171 55.978 33.5868L55.9759 33.5855C54.4641 32.6346 53.3978 31.4002 52.7834 29.8826C52.6322 29.6275 52.5532 29.3665 52.5532 29.1011C52.5532 28.7294 52.6874 28.417 52.9556 28.1744C53.2205 27.9107 53.5421 27.7769 53.9136 27.7769C54.2385 27.7769 54.5187 27.8618 54.7449 28.04C54.9694 28.2169 55.129 28.4765 55.231 28.8062C55.6291 29.9048 56.4015 30.809 57.5589 31.518C58.7418 32.2037 60.0675 32.5475 61.5394 32.5475C62.7047 32.5475 63.734 32.3454 64.63 31.9446L64.6311 31.9441C65.5533 31.5421 66.2558 31.0014 66.7456 30.325L66.7473 30.3227L66.7474 30.3227C67.2603 29.6465 67.5157 28.8913 67.5157 28.053C67.5157 26.9864 67.0773 26.057 66.1862 25.2597C65.2938 24.4612 63.7638 23.757 61.577 23.1562C59.0493 22.4669 57.1392 21.5563 55.8591 20.417C54.5748 19.274 53.9266 17.9021 53.9266 16.3071C53.9266 15.1006 54.2595 14.0256 54.9267 13.0866L54.928 13.0847L54.9281 13.0847C55.6192 12.1467 56.6036 11.4106 57.874 10.8731L57.8748 10.8728Z" fill="#3C3737"/>
<path d="M155.084 17.65C155.359 17.0568 155.101 16.3531 154.508 16.0782C153.914 15.8032 153.211 16.0613 152.936 16.6545L146.929 29.6161L140.329 16.8709C140.028 16.2903 139.314 16.0634 138.733 16.364C138.153 16.6647 137.926 17.3791 138.226 17.9597L145.67 32.3333L144.352 35.1776C143.684 36.6186 142.24 37.5407 140.652 37.5407H127.439C126.785 37.5407 126.255 38.0708 126.255 38.7246C126.255 39.3784 126.785 39.9084 127.439 39.9084H140.652C143.162 39.9084 145.444 38.4508 146.5 36.1731L155.084 17.65Z" fill="#3C3737"/>
<defs>
<linearGradient id="paint0_linear_1155_8658" x1="41.2438" y1="-3.86661" x2="2.10868" y2="34.6587" gradientUnits="userSpaceOnUse">
<stop offset="0.215" stop-color="#FF5019"/>
<stop offset="1" stop-color="#FAA85D"/>
</linearGradient>
</defs>
</svg>
