<svg width="156" height="42" viewBox="0 0 156 42" fill="none" xmlns="http://www.w3.org/2000/svg">
<path fill-rule="evenodd" clip-rule="evenodd" d="M39.2738 29.4293C40.5372 26.7584 41.2438 23.7727 41.2438 20.6219C41.2438 9.23274 32.0111 0 20.6219 0C9.23274 0 0 9.23274 0 20.6219C0 23.7727 0.706612 26.7584 1.97001 29.4293H11.8769C13.534 29.4293 14.3803 27.4406 13.2313 26.2465L5.89132 18.6179C3.82318 16.4684 5.34651 12.8888 8.32934 12.8888H32.6391C35.4772 12.8888 37.054 16.1728 35.2794 18.3876L28.88 26.3744C27.8941 27.6049 28.7701 29.4293 30.3469 29.4293H39.2738ZM36.9739 33.1885H30.3469C25.6167 33.1885 22.9887 27.7152 25.9464 24.0238L31.8562 16.648H9.2127L15.9402 23.64C19.3871 27.2225 16.8483 33.1885 11.8769 33.1885H4.26995C8.04021 38.0871 13.9624 41.2438 20.6219 41.2438C27.2814 41.2438 33.2036 38.0871 36.9739 33.1885Z" fill="url(#paint0_linear_15_113)"/>
<path d="M131.017 34.8477C129.258 34.8477 127.692 34.4622 126.319 33.6911C124.945 32.896 123.885 31.8359 123.138 30.5107C122.391 29.1855 122.018 27.7399 122.018 26.1737C122.018 24.5353 122.355 23.0053 123.03 21.5838C123.729 20.1381 124.692 18.9816 125.921 18.1142C127.15 17.2468 128.56 16.8131 130.15 16.8131C131.595 16.8131 132.824 17.0902 133.836 17.6444C134.872 18.1985 135.643 18.8611 136.149 19.6322C136.679 20.4032 136.944 21.0899 136.944 21.6922C136.944 22.1259 136.655 22.5114 136.077 22.8487L124.873 29.2457C125.476 30.4023 126.295 31.2817 127.331 31.8841C128.367 32.4623 129.584 32.7515 130.981 32.7515C131.752 32.7515 132.559 32.5587 133.403 32.1732C134.27 31.7877 134.957 31.3299 135.463 30.7998C135.631 30.5589 135.872 30.4384 136.185 30.4384C136.499 30.4384 136.752 30.5468 136.944 30.7637C137.161 30.9564 137.27 31.2094 137.27 31.5227C137.27 31.7636 137.173 32.0045 136.981 32.2455C136.33 32.9924 135.439 33.6189 134.306 34.1248C133.198 34.6067 132.101 34.8477 131.017 34.8477ZM134.704 21.4031C134.366 20.5839 133.836 19.9695 133.113 19.5599C132.391 19.1503 131.415 18.9455 130.186 18.9455C129.029 18.9455 127.993 19.2707 127.078 19.9213C126.162 20.5477 125.439 21.4031 124.909 22.4873C124.403 23.5716 124.138 24.7642 124.114 26.0653C124.114 26.5472 124.138 26.9327 124.187 27.2218L134.704 21.4031Z" fill="white"/>
<path d="M107.086 34.8115C106.773 34.8115 106.496 34.7031 106.255 34.4863C106.038 34.2453 105.929 33.9803 105.929 33.6911C105.929 33.402 106.014 33.1731 106.182 33.0045L117.242 19.0539H107.447C107.134 19.0539 106.869 18.9455 106.652 18.7286C106.435 18.5118 106.327 18.2347 106.327 17.8974C106.327 17.6082 106.435 17.3553 106.652 17.1384C106.869 16.8975 107.134 16.777 107.447 16.777H119.41C119.723 16.777 119.988 16.8975 120.205 17.1384C120.446 17.3553 120.567 17.6082 120.567 17.8974C120.567 18.1865 120.482 18.4154 120.314 18.5841L109.254 32.5346H119.627C119.94 32.5346 120.205 32.6551 120.422 32.896C120.639 33.1129 120.747 33.3779 120.747 33.6911C120.747 33.9803 120.639 34.2453 120.422 34.4863C120.205 34.7031 119.94 34.8115 119.627 34.8115H107.086Z" fill="#FD7C3B"/>
<path d="M101.602 34.8477C101.312 34.8477 101.047 34.7513 100.806 34.5585C100.566 34.3417 100.445 34.1007 100.445 33.8357V11.1028C100.445 10.7896 100.553 10.5366 100.77 10.3438C100.987 10.127 101.264 10.0186 101.602 10.0186C101.891 10.0186 102.144 10.127 102.361 10.3438C102.601 10.5607 102.722 10.8137 102.722 11.1028V33.8357C102.722 34.1007 102.601 34.3417 102.361 34.5585C102.144 34.7513 101.891 34.8477 101.602 34.8477Z" fill="white"/>
<path d="M93.6956 34.8477C93.4065 34.8477 93.1415 34.7513 92.9005 34.5585C92.6596 34.3417 92.5391 34.1007 92.5391 33.8357V11.1028C92.5391 10.7896 92.6476 10.5366 92.8644 10.3438C93.0812 10.127 93.3583 10.0186 93.6956 10.0186C93.9848 10.0186 94.2378 10.127 94.4546 10.3438C94.6956 10.5607 94.816 10.8137 94.816 11.1028V33.8357C94.816 34.1007 94.6956 34.3417 94.4546 34.5585C94.2378 34.7513 93.9848 34.8477 93.6956 34.8477Z" fill="white"/>
<path d="M82.2758 34.8477C80.517 34.8477 78.9508 34.4622 77.5775 33.6911C76.2041 32.896 75.1439 31.8359 74.397 30.5107C73.6501 29.1855 73.2766 27.7399 73.2766 26.1737C73.2766 24.5353 73.614 23.0053 74.2886 21.5838C74.9873 20.1381 75.9511 18.9816 77.1799 18.1142C78.4087 17.2468 79.8182 16.8131 81.4084 16.8131C82.8541 16.8131 84.0829 17.0902 85.0949 17.6444C86.1309 18.1985 86.9019 18.8611 87.4079 19.6322C87.938 20.4032 88.203 21.0899 88.203 21.6922C88.203 22.1259 87.9139 22.5114 87.3356 22.8487L76.1318 29.2457C76.7342 30.4023 77.5534 31.2817 78.5894 31.8841C79.6255 32.4623 80.8422 32.7515 82.2397 32.7515C83.0107 32.7515 83.8179 32.5587 84.6612 32.1732C85.5285 31.7877 86.2152 31.3299 86.7212 30.7998C86.8899 30.5589 87.1308 30.4384 87.444 30.4384C87.7573 30.4384 88.0103 30.5468 88.203 30.7637C88.4199 30.9564 88.5283 31.2094 88.5283 31.5227C88.5283 31.7636 88.4319 32.0045 88.2391 32.2455C87.5886 32.9924 86.6971 33.6189 85.5647 34.1248C84.4564 34.6067 83.3601 34.8477 82.2758 34.8477ZM85.9622 21.4031C85.6249 20.5839 85.0949 19.9695 84.372 19.5599C83.6492 19.1503 82.6734 18.9455 81.4446 18.9455C80.2881 18.9455 79.252 19.2707 78.3364 19.9213C77.4208 20.5477 76.698 21.4031 76.1679 22.4873C75.662 23.5716 75.3969 24.7642 75.3728 26.0653C75.3728 26.5472 75.3969 26.9327 75.4451 27.2218L85.9622 21.4031Z" fill="#FD7C3B"/>
<path d="M61.5395 34.8477C59.3951 34.8477 57.5639 34.3899 56.046 33.4743C54.5521 32.5346 53.504 31.3179 52.9017 29.824C52.7571 29.5831 52.6848 29.3421 52.6848 29.1012C52.6848 28.7639 52.8053 28.4868 53.0462 28.2699C53.2872 28.029 53.5763 27.9085 53.9136 27.9085C54.516 27.9085 54.9135 28.2217 55.1063 28.8482C55.5159 29.9806 56.311 30.9083 57.4916 31.6311C58.6963 32.3298 60.0456 32.6792 61.5395 32.6792C62.7201 32.6792 63.7682 32.4744 64.6837 32.0648C65.6234 31.6552 66.3462 31.101 66.8522 30.4023C67.3823 29.7035 67.6473 28.9205 67.6473 28.0531C67.6473 26.9448 67.1895 25.981 66.274 25.1618C65.3584 24.3426 63.8043 23.6318 61.6117 23.0294C56.576 21.6561 54.0582 19.4153 54.0582 16.3072C54.0582 15.1265 54.3835 14.0784 55.034 13.1629C55.7086 12.2473 56.6724 11.5244 57.9253 10.9944C59.2023 10.4643 60.6841 10.1993 62.3707 10.1993C64.756 10.1993 66.6113 10.6571 67.9365 11.5726C69.2617 12.4641 69.9242 13.6688 69.9242 15.1868C69.9242 15.5 69.8158 15.7771 69.599 16.018C69.3821 16.2349 69.1171 16.3433 68.8039 16.3433C68.5147 16.3433 68.2617 16.2469 68.0449 16.0542C67.8521 15.8614 67.7437 15.6325 67.7196 15.3675C67.5991 14.4519 67.045 13.705 66.0571 13.1267C65.0933 12.5485 63.8284 12.2593 62.2623 12.2593C60.3829 12.2593 58.9252 12.6087 57.8892 13.3074C56.8772 14.0062 56.3712 14.9699 56.3712 16.1987C56.3712 17.2348 56.8411 18.1142 57.7808 18.837C58.7445 19.5599 60.2143 20.1984 62.19 20.7525C64.7922 21.4754 66.7318 22.4271 68.0088 23.6077C69.3098 24.7642 69.9604 26.1858 69.9604 27.8724C69.9604 29.1735 69.5749 30.3661 68.8039 31.4504C68.0328 32.5105 66.9968 33.3418 65.6957 33.9441C64.3946 34.5465 63.0092 34.8477 61.5395 34.8477Z" fill="white"/>
<path fill-rule="evenodd" clip-rule="evenodd" d="M130.15 16.9447C128.585 16.9447 127.202 17.3709 125.997 18.2217C124.788 19.0753 123.838 20.2139 123.149 21.6406C122.483 23.0437 122.15 24.5542 122.15 26.1737C122.15 27.7179 122.518 29.1412 123.253 30.4461C123.988 31.7497 125.03 32.793 126.384 33.5768C127.735 34.3353 129.279 34.7161 131.017 34.7161C132.081 34.7161 133.16 34.4798 134.253 34.0045C135.371 33.5049 136.245 32.8895 136.88 32.1612C137.058 31.9377 137.138 31.7256 137.138 31.5227C137.138 31.2436 137.043 31.0276 136.857 30.862L136.851 30.8569L136.846 30.8511C136.68 30.6647 136.464 30.57 136.185 30.57C135.912 30.57 135.713 30.6721 135.57 30.8753L135.565 30.8834L135.558 30.8907C135.037 31.4361 134.335 31.9026 133.457 32.2931C132.6 32.6847 131.774 32.883 130.981 32.883C129.565 32.883 128.326 32.5899 127.267 31.9989L127.265 31.9978C126.205 31.3818 125.369 30.4831 124.757 29.3065L124.698 29.1943L136.011 22.7351C136.011 22.7351 136.011 22.7352 136.011 22.7351C136.572 22.4077 136.813 22.0571 136.813 21.6922C136.813 21.1275 136.564 20.467 136.041 19.7067L136.039 19.7043C135.548 18.9561 134.796 18.3069 133.774 17.7604L133.773 17.7598C132.785 17.2186 131.579 16.9447 130.15 16.9447ZM125.845 18.0068C127.098 17.1228 128.534 16.6816 130.15 16.6816C131.612 16.6816 132.863 16.9618 133.899 17.5286C134.948 18.0901 135.738 18.7657 136.259 19.5588C136.795 20.34 137.076 21.0526 137.076 21.6922C137.076 22.1947 136.738 22.6152 136.143 22.9624L136.142 22.963L125.049 29.2967C125.635 30.3776 126.417 31.2005 127.396 31.7698C128.409 32.3349 129.603 32.6199 130.981 32.6199C131.73 32.6199 132.518 32.4328 133.348 32.0536L133.349 32.053C134.201 31.6742 134.87 31.2276 135.361 30.7159C135.556 30.4429 135.836 30.3069 136.185 30.3069C136.53 30.3069 136.818 30.427 137.038 30.6705C137.281 30.8898 137.401 31.1779 137.401 31.5227C137.401 31.801 137.289 32.07 137.083 32.3277L137.08 32.332C136.414 33.0964 135.505 33.7331 134.36 34.2449L134.359 34.2455C133.236 34.7337 132.121 34.9792 131.017 34.9792C129.238 34.9792 127.65 34.5891 126.254 33.8058L126.253 33.805C124.86 32.9986 123.783 31.9218 123.024 30.5753C122.265 29.2298 121.886 27.7618 121.886 26.1737C121.886 24.5167 122.228 22.9673 122.911 21.5274C123.619 20.0631 124.597 18.8879 125.845 18.0068ZM127.003 19.8133C127.941 19.147 129.003 18.8139 130.186 18.8139C131.427 18.8139 132.428 19.0205 133.178 19.4454C133.928 19.8705 134.478 20.5085 134.825 21.353L134.87 21.4614L124.087 27.427L124.057 27.2435C124.007 26.9441 123.983 26.5505 123.983 26.0653L123.983 26.0629C124.007 24.745 124.276 23.534 124.79 22.4317L124.791 22.4296C125.33 21.327 126.067 20.4537 127.003 19.8133ZM130.186 19.077C129.056 19.077 128.047 19.3943 127.154 20.0285L127.152 20.0298C126.257 20.6422 125.549 21.479 125.028 22.5442C124.531 23.6097 124.27 24.7832 124.246 26.0665C124.246 26.4454 124.261 26.7608 124.29 27.0141L134.536 21.3455C134.208 20.6056 133.712 20.0504 133.049 19.6743C132.353 19.28 131.402 19.077 130.186 19.077Z" fill="white"/>
<path fill-rule="evenodd" clip-rule="evenodd" d="M107.447 16.9085C107.173 16.9085 106.943 17.0121 106.75 17.2264L106.745 17.2316C106.552 17.4254 106.459 17.6454 106.459 17.8974C106.459 18.2036 106.556 18.446 106.745 18.6356C106.937 18.8272 107.168 18.9224 107.447 18.9224H117.514L106.281 33.0921L106.275 33.0975C106.137 33.2364 106.061 33.429 106.061 33.6912C106.061 33.9418 106.153 34.1747 106.348 34.3931C106.564 34.5859 106.809 34.68 107.086 34.68H119.627C119.905 34.68 120.136 34.5857 120.327 34.3957C120.523 34.1765 120.616 33.9428 120.616 33.6912C120.616 33.412 120.521 33.1806 120.329 32.9891L120.324 32.9842C120.131 32.7698 119.902 32.6662 119.627 32.6662H108.982L120.215 18.4964L120.221 18.4911C120.36 18.3521 120.435 18.1595 120.435 17.8974C120.435 17.6503 120.334 17.4314 120.117 17.2362L120.107 17.2269C119.914 17.0126 119.685 16.9085 119.41 16.9085H107.447ZM106.557 17.0479C106.797 16.782 107.097 16.6455 107.447 16.6455H119.41C119.76 16.6455 120.058 16.7811 120.298 17.0453C120.56 17.2828 120.698 17.5684 120.698 17.8974C120.698 18.2106 120.607 18.4737 120.412 18.6715L109.527 32.4031H119.627C119.978 32.4031 120.277 32.5396 120.518 32.8055C120.758 33.0471 120.879 33.345 120.879 33.6912C120.879 34.0168 120.756 34.3123 120.52 34.5743L120.515 34.5794C120.273 34.8215 119.974 34.9431 119.627 34.9431H107.086C106.739 34.9431 106.431 34.8218 106.167 34.584L106.156 34.5747C105.921 34.3128 105.798 34.0168 105.798 33.6912C105.798 33.378 105.889 33.1148 106.084 32.917L116.97 19.1854H107.447C107.1 19.1854 106.801 19.0637 106.559 18.8216C106.315 18.5775 106.196 18.2658 106.196 17.8974C106.196 17.5722 106.319 17.2872 106.557 17.0479Z" fill="#FD7C3B"/>
<path fill-rule="evenodd" clip-rule="evenodd" d="M93.6956 10.1501C93.3894 10.1501 93.147 10.2472 92.9574 10.4368L92.9519 10.4423L92.9518 10.4421C92.7654 10.6078 92.6707 10.8238 92.6707 11.1028V33.8357C92.6707 34.0544 92.7678 34.2611 92.9857 34.4582C93.2042 34.632 93.4396 34.7161 93.6956 34.7161C93.9524 34.7161 94.1743 34.6317 94.3671 34.4603C94.5867 34.2625 94.6845 34.0551 94.6845 33.8357V11.1028C94.6845 10.8557 94.5836 10.6369 94.3666 10.4416L94.3615 10.437L94.3616 10.4368C94.1678 10.243 93.9476 10.1501 93.6956 10.1501ZM92.7741 10.2481C93.0178 10.0058 93.3286 9.88702 93.6956 9.88702C94.0208 9.88702 94.3058 10.0101 94.5452 10.2484C94.8084 10.4864 94.9476 10.7727 94.9476 11.1028V33.8357C94.9476 34.1462 94.8046 34.4205 94.5426 34.6563L94.542 34.6568C94.3012 34.8709 94.0171 34.9792 93.6956 34.9792C93.3746 34.9792 93.0809 34.8713 92.8184 34.6612L92.8124 34.6565L92.8125 34.6563C92.5506 34.4205 92.4076 34.1462 92.4076 33.8357V11.1028C92.4076 10.7567 92.5287 10.4677 92.7741 10.2481Z" fill="white"/>
<path fill-rule="evenodd" clip-rule="evenodd" d="M81.4084 16.9447C79.8437 16.9447 78.4611 17.3709 77.2558 18.2217C76.0465 19.0753 75.0969 20.2139 74.4072 21.6406C73.7414 23.0437 73.4082 24.5542 73.4082 26.1737C73.4082 27.7179 73.7761 29.1412 74.5116 30.4461C75.2464 31.7497 76.2891 32.7931 77.6427 33.5769C78.994 34.3353 80.5372 34.7161 82.2758 34.7161C83.3398 34.7161 84.4181 34.4798 85.5116 34.0045C86.6295 33.5049 87.5031 32.8895 88.1381 32.1612C88.3164 31.9377 88.3967 31.7256 88.3967 31.5227C88.3967 31.2436 88.302 31.0276 88.1156 30.862L88.1098 30.8569L88.1047 30.8511C87.9391 30.6647 87.7231 30.57 87.444 30.57C87.1704 30.57 86.9712 30.6721 86.829 30.8753L86.8233 30.8834L86.8164 30.8907C86.2957 31.4361 85.5936 31.9026 84.7153 32.2931C83.8584 32.6847 83.0328 32.883 82.2397 32.883C80.8238 32.883 79.5842 32.5899 78.5253 31.9989L78.5233 31.9978C77.4638 31.3818 76.6279 30.4831 76.0151 29.3065L75.9567 29.1943L87.2693 22.7351C87.2695 22.735 87.2692 22.7352 87.2693 22.7351C87.8304 22.4077 88.0715 22.057 88.0715 21.6922C88.0715 21.1275 87.8222 20.467 87.2995 19.7067L87.2979 19.7043C86.8068 18.9561 86.0547 18.3069 85.0328 17.7604L85.0317 17.7598C84.0434 17.2186 82.8375 16.9447 81.4084 16.9447ZM77.104 18.0068C78.3563 17.1228 79.7927 16.6816 81.4084 16.6816C82.8704 16.6816 84.122 16.9618 85.1575 17.5287C86.2069 18.0901 86.9963 18.7657 87.5171 19.5588C88.054 20.34 88.3345 21.0526 88.3345 21.6922C88.3345 22.1947 87.997 22.6152 87.4019 22.9624L87.4008 22.963L76.3078 29.2967C76.8934 30.3776 77.6758 31.2005 78.6546 31.7698C79.6676 32.3349 80.8611 32.6199 82.2397 32.6199C82.9884 32.6199 83.7769 32.4328 84.6065 32.0536L84.6077 32.053C85.46 31.6742 86.1289 31.2276 86.6194 30.7159C86.8143 30.4429 87.0948 30.3069 87.444 30.3069C87.7888 30.3069 88.0769 30.4271 88.2962 30.6705C88.5396 30.8898 88.6598 31.1779 88.6598 31.5227C88.6598 31.801 88.548 32.07 88.3419 32.3277L88.3384 32.332C87.6726 33.0964 86.7639 33.7331 85.6183 34.2449L85.6171 34.2455C84.4942 34.7337 83.3801 34.9792 82.2758 34.9792C80.4971 34.9792 78.9083 34.5891 77.5131 33.8058L77.5115 33.805C76.1188 32.9986 75.0414 31.9218 74.2824 30.5753C73.5241 29.2298 73.1451 27.7618 73.1451 26.1737C73.1451 24.5167 73.4864 22.9673 74.1698 21.5274C74.8775 20.0631 75.8558 18.8879 77.104 18.0068ZM78.2612 19.8134C79.1995 19.147 80.262 18.8139 81.4446 18.8139C82.686 18.8139 83.687 19.0205 84.4369 19.4454C85.1871 19.8705 85.7362 20.5085 86.0839 21.353L86.1285 21.4614L75.346 27.427L75.3154 27.2435C75.2655 26.9441 75.2413 26.5505 75.2413 26.0653V26.0629C75.2657 24.745 75.5343 23.534 76.0487 22.4317L76.0498 22.4296C76.5888 21.3271 77.3257 20.4537 78.2612 19.8134ZM81.4446 19.077C80.3145 19.077 79.3052 19.3943 78.4126 20.0285L78.4107 20.0299C77.5158 20.6421 76.8076 21.4789 76.2866 22.544C75.7896 23.6095 75.5283 24.7831 75.5044 26.0665C75.5044 26.4454 75.5195 26.7608 75.5489 27.0141L85.7946 21.3455C85.4666 20.6056 84.9708 20.0504 84.3072 19.6743C83.6114 19.28 82.6608 19.077 81.4446 19.077Z" fill="#FB8F48"/>
<path fill-rule="evenodd" clip-rule="evenodd" d="M62.3707 10.3308C60.6979 10.3308 59.234 10.5937 57.9762 11.1157C56.7414 11.6382 55.7986 12.3474 55.1406 13.24C54.5071 14.1319 54.1897 15.1528 54.1897 16.3072C54.1897 17.8203 54.8005 19.1228 56.034 20.2206C57.2717 21.3221 59.1384 22.2186 61.6463 22.9025L61.6466 22.9026C63.8448 23.5065 65.4229 24.2238 66.3617 25.0638C67.3018 25.9049 67.7789 26.903 67.7789 28.0531C67.7789 28.9491 67.5045 29.7596 66.9579 30.4806C66.4359 31.201 65.6932 31.7682 64.7368 32.1851C63.8018 32.6033 62.7351 32.8107 61.5395 32.8107C60.0242 32.8107 58.6518 32.4561 57.4256 31.7449L57.4229 31.7433L57.4229 31.7433C56.2209 31.0073 55.4038 30.0576 54.9826 28.8929L54.9804 28.8869L54.9806 28.8869C54.8898 28.5917 54.7545 28.3826 54.5822 28.2468C54.4108 28.1117 54.1911 28.0401 53.9136 28.0401C53.6116 28.0401 53.3558 28.1464 53.1392 28.363L53.1344 28.3679L53.1342 28.3677C52.9223 28.5585 52.8164 28.7994 52.8164 29.1012C52.8164 29.3146 52.8801 29.5324 53.0145 29.7563L53.0198 29.7652L53.0237 29.7748C53.6145 31.2402 54.6428 32.436 56.115 33.3623C57.6083 34.2627 59.4145 34.7161 61.5395 34.7161C62.9906 34.7161 64.3571 34.4189 65.6404 33.8248C66.9229 33.231 67.9405 32.4137 68.697 31.3736C69.4524 30.3113 69.8288 29.1453 69.8288 27.8724C69.8288 26.2247 69.1954 24.8385 67.9214 23.706L67.9195 23.7043C66.664 22.5436 64.7469 21.5993 62.1548 20.8793L62.1545 20.8792C60.1725 20.3233 58.6847 19.6794 57.7018 18.9423L57.7006 18.9413C56.7338 18.1977 56.2397 17.2819 56.2397 16.1987C56.2397 14.9267 56.7669 13.9225 57.8144 13.1992L57.8156 13.1984C58.8818 12.4793 60.3691 12.1278 62.2623 12.1278C63.8429 12.1278 65.1335 12.4194 66.1242 13.0135C67.1374 13.6069 67.723 14.3851 67.85 15.3503L67.8507 15.3556L67.8506 15.3556C67.8717 15.5879 67.9653 15.7875 68.1352 15.9584C68.3274 16.1281 68.5484 16.2118 68.8039 16.2118C69.0819 16.2118 69.3124 16.1174 69.5035 15.9275C69.6979 15.7104 69.7927 15.4652 69.7927 15.1868C69.7927 13.7153 69.1542 12.5504 67.863 11.6818L67.8617 11.6809C66.5667 10.7862 64.7415 10.3308 62.3707 10.3308ZM57.8749 10.8729C59.171 10.3349 60.6705 10.0677 62.3707 10.0677C64.7702 10.0677 66.6552 10.5278 68.0105 11.4639C69.3694 12.3783 70.0558 13.6226 70.0558 15.1868C70.0558 15.5337 69.9345 15.8419 69.6967 16.106L69.6921 16.1112L69.692 16.111C69.4499 16.3531 69.1511 16.4748 68.8039 16.4748C68.4824 16.4748 68.1983 16.3666 67.9575 16.1525L67.9517 16.1473L67.9519 16.1472C67.7386 15.9339 67.6163 15.6775 67.5889 15.3821C67.4743 14.5175 66.9518 13.8029 65.9907 13.2402L65.9894 13.2395C65.0526 12.6774 63.8135 12.3909 62.2623 12.3909C60.3971 12.3909 58.9692 12.7379 57.9633 13.4161C56.9873 14.0903 56.5028 15.0134 56.5028 16.1987C56.5028 17.1875 56.9481 18.0304 57.8603 18.7323C58.805 19.4406 60.2564 20.0736 62.2255 20.6259C64.837 21.3513 66.7986 22.3101 68.0971 23.5102C69.4246 24.6907 70.0919 26.1473 70.0919 27.8724C70.0919 29.2015 69.6975 30.4206 68.9111 31.5266L68.9102 31.5278C68.1248 32.6077 67.0704 33.4526 65.751 34.0635C64.4321 34.6741 63.0278 34.9792 61.5395 34.9792C59.3762 34.9792 57.5204 34.5172 55.978 33.5869L55.9759 33.5856C54.4642 32.6347 53.3978 31.4003 52.7835 29.8827C52.6322 29.6276 52.5533 29.3666 52.5533 29.1012C52.5533 28.7295 52.6875 28.4171 52.9557 28.1745C53.2205 27.9108 53.5422 27.777 53.9136 27.777C54.2385 27.777 54.5188 27.8619 54.745 28.0401C54.9694 28.217 55.1291 28.4766 55.231 28.8063C55.6291 29.9049 56.4016 30.8091 57.559 31.5181C58.7418 32.2038 60.0676 32.5476 61.5395 32.5476C62.7048 32.5476 63.7341 32.3455 64.63 31.9447L64.6312 31.9442C65.5534 31.5422 66.2559 31.0015 66.7457 30.3251L66.7474 30.3228L66.7474 30.3228C67.2604 29.6466 67.5158 28.8914 67.5158 28.0531C67.5158 26.9865 67.0773 26.0571 66.1863 25.2598C65.2939 24.4614 63.7639 23.7571 61.5771 23.1563C59.0494 22.467 57.1393 21.5564 55.8591 20.4171C54.5748 19.2741 53.9267 17.9022 53.9267 16.3072C53.9267 15.1007 54.2596 14.0257 54.9268 13.0867L54.9281 13.0848L54.9281 13.0848C55.6193 12.1468 56.6037 11.4107 57.8741 10.8732L57.8749 10.8729Z" fill="white"/>
<path fill-rule="evenodd" clip-rule="evenodd" d="M155.084 17.6501C155.359 17.0569 155.101 16.3532 154.508 16.0782C153.914 15.8033 153.211 16.0614 152.936 16.6546L146.929 29.6162L140.329 16.871C140.028 16.2905 139.314 16.0635 138.733 16.3642C138.153 16.6649 137.926 17.3793 138.226 17.9598L145.67 32.3335L144.352 35.1777C143.684 36.6187 142.24 37.5408 140.652 37.5408H127.439C126.785 37.5408 126.255 38.0709 126.255 38.7247C126.255 39.3785 126.785 39.9085 127.439 39.9085H140.652C143.163 39.9085 145.445 38.4509 146.5 36.1732L155.084 17.6501Z" fill="white"/>
<defs>
<linearGradient id="paint0_linear_15_113" x1="41.2438" y1="-3.86661" x2="2.10868" y2="34.6587" gradientUnits="userSpaceOnUse">
<stop offset="0.215" stop-color="#FF5019"/>
<stop offset="1" stop-color="#FAA85D"/>
</linearGradient>
</defs>
</svg>
