<svg width="82" height="84" viewBox="0 0 82 84" fill="none" xmlns="http://www.w3.org/2000/svg">
<g filter="url(#filter0_d_4_25)">
<rect x="8" width="66" height="66" rx="20" fill="#F5F5F5"/>
<g filter="url(#filter1_f_4_25)">
<path d="M45 34C47.3333 34 52 34.3111 52 35.5556C52 36.8 52 43.3333 52 46.4444L45.4667 48" stroke="#FF5C28" stroke-width="2"/>
</g>
<path d="M27.2101 15H44.4974C44.9655 15 45.3445 15.3794 45.3445 15.8471V32.1426C47.5163 31.9287 50.0958 32.1128 52.1254 32.9425C53.6716 33.5744 54.6323 34.5309 54.6456 35.6641C54.646 39.0877 54.646 42.511 54.646 45.9342C54.646 47.0777 53.6828 48.0434 52.1254 48.6799C49.9913 49.5523 47.2265 49.7198 44.9411 49.4345C44.8121 49.5141 44.6604 49.5597 44.4974 49.5597H27.2101C26.7424 49.5597 26.3634 49.1803 26.3634 48.7126C26.3634 37.7576 26.3634 26.8021 26.3634 15.8471C26.3634 15.3794 26.7424 15 27.2101 15ZM40.3743 31.4357C41.4013 31.5174 41.4013 33.0424 40.3743 33.1241C40.0073 34.2539 38.9508 35.0297 37.7567 35.0297C36.6426 35.0297 36.6426 33.3359 37.7567 33.3359C38.3442 33.3359 38.8132 32.8674 38.8132 32.2799C38.8132 31.6923 38.3442 31.2238 37.7567 31.2238C37.1737 31.2238 36.701 31.6969 36.701 32.2799C36.701 33.7966 35.4667 35.0297 33.9508 35.0297C32.755 35.0297 31.6948 34.2485 31.3324 33.1241C30.3066 33.0411 30.3066 31.5186 31.3324 31.4357C31.696 30.3075 32.7558 29.53 33.9508 29.53C35.0649 29.53 35.0649 31.2238 33.9508 31.2238C33.3666 31.2238 32.8943 31.694 32.8943 32.2799C32.8943 32.8653 33.3653 33.3359 33.9508 33.3359C34.5367 33.3359 35.0068 32.8653 35.0068 32.2799C35.0068 30.7615 36.2383 29.53 37.7567 29.53C38.9504 29.53 40.0073 30.3058 40.3743 31.4357ZM52.9518 44.8636C52.6997 45.0087 52.4235 45.1426 52.1254 45.2645C50.0958 46.0938 47.5163 46.2783 45.3445 46.0644V47.7793C47.2871 47.9858 49.6762 47.8593 51.4902 47.118C52.3933 46.7489 52.9518 46.3252 52.9518 45.9342V44.8636ZM52.9518 41.4482C52.6997 41.5934 52.4235 41.7273 52.1254 41.8492C50.0958 42.6785 47.5163 42.863 45.3445 42.649V44.364C47.2871 44.5704 49.6762 44.444 51.4902 43.7026C52.3933 43.3336 52.9518 42.9098 52.9518 42.5188V41.4482ZM52.9518 38.0329C52.6997 38.178 52.4235 38.312 52.1254 38.4334C50.0954 39.2635 47.5168 39.4472 45.3445 39.2333V40.9486C47.2871 41.1551 49.6762 41.0286 51.4902 40.2873C52.3933 39.9183 52.9518 39.4945 52.9518 39.1035V38.0329ZM45.3445 33.843V37.5333C47.2854 37.7402 49.6778 37.6129 51.4902 36.8719C52.3933 36.5029 52.9518 36.0792 52.9518 35.6882C52.9518 35.2972 52.3929 34.8734 51.4902 34.5044C49.6758 33.763 47.2871 33.6365 45.3445 33.843ZM35.8539 24.9321C39.912 24.9321 43.2017 28.2218 43.2017 32.2799C43.2017 36.3379 39.912 39.6276 35.8539 39.6276C31.7959 39.6276 28.5058 36.3379 28.5058 32.2799C28.5058 28.2218 31.7959 24.9321 35.8539 24.9321ZM35.8539 26.6259C32.7313 26.6259 30.2 29.1573 30.2 32.2799C30.2 35.4025 32.7313 37.9338 35.8539 37.9338C38.9766 37.9338 41.5079 35.4025 41.5079 32.2799C41.5079 29.1573 38.9766 26.6259 35.8539 26.6259ZM31.2001 17.6582H40.5078C40.9755 17.6582 41.3549 18.0372 41.3549 18.5053C41.3549 19.9109 42.304 21.1507 43.6507 21.5309V16.6938H28.0572V21.5309C29.4035 21.1507 30.353 19.9109 30.353 18.5053C30.353 18.0372 30.7324 17.6582 31.2001 17.6582ZM43.6507 43.0288C42.304 43.4091 41.3549 44.6488 41.3549 46.0544C41.3549 46.5225 40.9755 46.9015 40.5078 46.9015H31.2001C30.7324 46.9015 30.353 46.5225 30.353 46.0544C30.353 44.6488 29.4039 43.4091 28.0572 43.0288V47.866H43.6507V43.0288ZM39.7353 19.352H31.9726C31.6185 21.3385 30.0437 22.9133 28.0572 23.267V41.2923C30.0437 41.6464 31.6185 43.2212 31.9726 45.2077H39.7353C40.0894 43.2212 41.6642 41.6464 43.6503 41.2923V23.267C41.6642 22.9133 40.0894 21.3385 39.7353 19.352Z" fill="#333333"/>
</g>
<defs>
<filter id="filter0_d_4_25" x="0" y="0" width="82" height="84" filterUnits="userSpaceOnUse" color-interpolation-filters="sRGB">
<feFlood flood-opacity="0" result="BackgroundImageFix"/>
<feColorMatrix in="SourceAlpha" type="matrix" values="0 0 0 0 0 0 0 0 0 0 0 0 0 0 0 0 0 0 127 0" result="hardAlpha"/>
<feOffset dy="10"/>
<feGaussianBlur stdDeviation="4"/>
<feComposite in2="hardAlpha" operator="out"/>
<feColorMatrix type="matrix" values="0 0 0 0 0 0 0 0 0 0 0 0 0 0 0 0 0 0 0.02 0"/>
<feBlend mode="normal" in2="BackgroundImageFix" result="effect1_dropShadow_4_25"/>
<feBlend mode="normal" in="SourceGraphic" in2="effect1_dropShadow_4_25" result="shape"/>
</filter>
<filter id="filter1_f_4_25" x="41" y="29" width="16" height="23.9728" filterUnits="userSpaceOnUse" color-interpolation-filters="sRGB">
<feFlood flood-opacity="0" result="BackgroundImageFix"/>
<feBlend mode="normal" in="SourceGraphic" in2="BackgroundImageFix" result="shape"/>
<feGaussianBlur stdDeviation="2" result="effect1_foregroundBlur_4_25"/>
</filter>
</defs>
</svg>
