<svg width="82" height="84" viewBox="0 0 82 84" fill="none" xmlns="http://www.w3.org/2000/svg">
<g filter="url(#filter0_d_4_48)">
<rect x="8" width="66" height="66" rx="20" fill="#F5F5F5"/>
<g filter="url(#filter1_f_4_48)">
<path d="M54 20V32.5L45 35" stroke="#FF5C28" stroke-width="2"/>
</g>
<path fill-rule="evenodd" clip-rule="evenodd" d="M28.474 40.4001L28.6993 41.2626C34.4301 39.6776 37.9891 38.2362 43.9997 40.1637L47.4191 41.2603C48.7611 41.6904 49.4609 43.1833 48.9495 44.4899C52.623 43.4697 56.3041 42.4165 59.9841 41.4257C62.4263 40.7781 64.5006 44.3125 61.2926 46.0817C57.7876 48.015 48.7316 53.8015 45.1517 53.9886C43.8348 54.0574 42.5039 53.8152 41.1935 53.2602L34.3156 50.347C33.0886 49.8272 32.2509 49.9566 31.0564 50.2872C31.2584 51.0608 31.6512 51.8861 31.0246 52.0592L26.509 53.3084C26.2505 53.3798 25.983 53.2281 25.9116 52.9696L23.0156 41.881C22.9491 41.624 23.1013 41.3617 23.3563 41.2913L27.8718 40.0422C28.1416 39.9677 28.4064 40.131 28.474 40.4001ZM28.9448 42.2024L30.811 49.3472C32.2228 48.957 33.2584 48.8454 34.6924 49.4528L41.5703 52.366C42.7429 52.8626 43.9304 53.0795 45.1022 53.0183C48.3529 52.8483 57.5575 47.0314 60.8245 45.2293C63.02 44.0185 61.5976 42.0055 60.2315 42.3655C55.9737 43.5118 51.7345 44.7244 47.486 45.9044C47.0683 46.0477 46.6093 46.0714 46.1576 45.9442L40.7685 44.1856C40.1606 43.9882 40.4606 43.0633 41.0691 43.2609L46.4202 45.0081C47.1179 45.22 47.8717 44.7429 48.0902 43.998C48.3049 43.2358 47.8786 42.4273 47.1223 42.1849C44.2479 41.2634 41.749 40.2832 38.7206 40.2217C37.0774 40.1883 35.4262 40.4099 33.708 40.885L28.9448 42.2024ZM30.3048 51.2509L27.656 41.1097L24.0761 42.0997L26.7248 52.241L30.3048 51.2509ZM25.5609 43.1836L26.3351 46.1565C26.4952 46.7746 27.435 46.5312 27.2749 45.913L26.5008 42.9401C26.3406 42.322 25.4009 42.5654 25.5609 43.1836ZM28.6424 50.3771C29.186 49.4093 27.7306 48.5664 27.1848 49.5396C26.6396 50.5116 28.0977 51.3479 28.6424 50.3771ZM56.1717 17.5721L43.0782 14.0173C42.9972 13.995 42.9095 13.9935 42.8226 14.0171L29.7287 17.572C29.514 17.6229 29.3543 17.8158 29.3543 18.0459L29.3544 34.3313C29.3543 34.5458 29.497 34.7423 29.7139 34.8012L42.8358 38.36C42.9167 38.3822 43.0044 38.3837 43.0913 38.3601L56.1719 34.8052C56.3865 34.7542 56.5461 34.5614 56.5461 34.3313V18.046C56.5461 17.8159 56.3864 17.6229 56.1717 17.5721ZM55.572 33.9591L43.4483 37.254L43.4464 34.8878L49.3994 33.27C50.0173 33.1024 49.7625 32.1625 49.1444 32.3302L43.4456 33.879L43.4437 31.5558L49.3966 29.9379C50.0145 29.7703 49.7598 28.8304 49.1416 28.9981L43.4428 30.547L43.4356 21.9775L55.572 18.6827L55.572 33.9591ZM30.3284 33.9589V18.6827L33.2866 19.4857V26.5551C33.2866 26.9807 33.7914 27.1946 34.0994 26.9171L35.5584 25.794L37.1669 27.8635C37.4444 28.2796 38.092 28.0535 38.0596 27.5615V20.7816L42.4653 21.9777C42.4695 27.0698 42.4739 32.162 42.4781 37.254L30.3284 33.9589ZM34.2607 25.5674V19.7503L37.0854 20.5171V26.1724C35.5452 24.1907 35.976 24.2471 34.2607 25.5674ZM50.6813 17.0905L54.2007 18.0459L42.9501 21.1003L39.4309 20.1448L50.6813 17.0905ZM37.5725 19.6403L35.6322 19.1136L46.8826 16.0592L48.823 16.586L37.5725 19.6403ZM33.7737 18.609L31.6997 18.0459L42.9501 14.9915L45.0243 15.5546L33.7737 18.609Z" fill="#333333" stroke="#333333" stroke-width="0.5"/>
</g>
<defs>
<filter id="filter0_d_4_48" x="0" y="0" width="82" height="84" filterUnits="userSpaceOnUse" color-interpolation-filters="sRGB">
<feFlood flood-opacity="0" result="BackgroundImageFix"/>
<feColorMatrix in="SourceAlpha" type="matrix" values="0 0 0 0 0 0 0 0 0 0 0 0 0 0 0 0 0 0 127 0" result="hardAlpha"/>
<feOffset dy="10"/>
<feGaussianBlur stdDeviation="4"/>
<feComposite in2="hardAlpha" operator="out"/>
<feColorMatrix type="matrix" values="0 0 0 0 0 0 0 0 0 0 0 0 0 0 0 0 0 0 0.02 0"/>
<feBlend mode="normal" in2="BackgroundImageFix" result="effect1_dropShadow_4_48"/>
<feBlend mode="normal" in="SourceGraphic" in2="effect1_dropShadow_4_48" result="shape"/>
</filter>
<filter id="filter1_f_4_48" x="39.7324" y="15" width="20.2676" height="25.9635" filterUnits="userSpaceOnUse" color-interpolation-filters="sRGB">
<feFlood flood-opacity="0" result="BackgroundImageFix"/>
<feBlend mode="normal" in="SourceGraphic" in2="BackgroundImageFix" result="shape"/>
<feGaussianBlur stdDeviation="2.5" result="effect1_foregroundBlur_4_48"/>
</filter>
</defs>
</svg>
