<svg width="201" height="148" viewBox="0 0 201 148" fill="none" xmlns="http://www.w3.org/2000/svg">
<path d="M192.779 89.6896C192.611 95.945 191.563 102.146 189.666 108.109C189.623 108.247 189.577 108.383 189.532 108.522H177.916C177.929 108.398 177.941 108.259 177.953 108.109C178.728 99.2048 183.193 45.0133 177.854 35.7459C178.321 36.4977 193.679 61.398 192.779 89.6896Z" fill="#F0F0F0"/>
<path d="M191.907 108.109C191.81 108.247 191.709 108.385 191.606 108.522H182.892C182.958 108.404 183.034 108.266 183.123 108.109C184.563 105.51 188.824 97.7424 192.779 89.6895C197.029 81.0356 200.929 72.0532 200.6 68.8023C200.702 69.5355 203.643 91.8871 191.907 108.109Z" fill="#F0F0F0"/>
<path d="M23.1459 0.561401C17.8069 9.82879 22.2723 64.0203 23.0468 72.9242C23.0592 73.0749 23.0716 73.2133 23.084 73.3372H11.4683C11.4228 73.1989 11.3773 73.0626 11.334 72.9242C9.43671 66.9611 8.3889 60.7605 8.22144 54.5051C7.32097 26.2134 22.6791 1.3132 23.1459 0.561401Z" fill="#F0F0F0"/>
<path d="M0.399673 33.6178C0.0712601 36.8687 3.97072 45.8511 8.22127 54.505C12.1765 62.5579 16.4374 70.3259 17.8769 72.9241C17.9657 73.0811 18.0422 73.2194 18.1083 73.3372H9.3944C9.29113 73.2009 9.18994 73.0625 9.09285 72.9241C-2.64268 56.7026 0.29844 34.351 0.399673 33.6178Z" fill="#F0F0F0"/>
<path d="M189.476 108.275H116.021C115.448 108.274 114.899 108.046 114.494 107.641C114.089 107.236 113.861 106.687 113.86 106.114V10.4375C113.861 9.86475 114.089 9.31561 114.494 8.91059C114.899 8.50556 115.448 8.27773 116.021 8.27709H189.476C190.049 8.27773 190.598 8.50555 191.003 8.91058C191.408 9.3156 191.636 9.86475 191.636 10.4375V106.114C191.636 106.687 191.408 107.236 191.003 107.641C190.598 108.046 190.049 108.274 189.476 108.275ZM116.021 8.89436C115.611 8.89484 115.219 9.05759 114.93 9.34689C114.641 9.63618 114.478 10.0284 114.477 10.4375V106.114C114.478 106.524 114.641 106.916 114.93 107.205C115.219 107.494 115.611 107.657 116.021 107.658H189.476C189.885 107.657 190.277 107.494 190.566 107.205C190.856 106.916 191.018 106.524 191.019 106.114V10.4375C191.018 10.0284 190.856 9.63618 190.566 9.34689C190.277 9.05759 189.885 8.89484 189.476 8.89436H116.021Z" fill="#E6E6E6"/>
<path d="M167.011 50.1897H135.839C135.266 50.189 134.717 49.9612 134.312 49.5561C133.907 49.1511 133.679 48.602 133.678 48.0292V23.647C133.679 23.0742 133.907 22.5251 134.312 22.1201C134.717 21.715 135.266 21.4872 135.839 21.4866H167.011C167.584 21.4872 168.133 21.715 168.538 22.1201C168.943 22.5251 169.171 23.0742 169.171 23.647V48.0292C169.171 48.602 168.943 49.1511 168.538 49.5561C168.133 49.9612 167.584 50.189 167.011 50.1897Z" fill="#E6E6E6"/>
<path d="M166.945 90.9914H135.773C135.2 90.9907 134.651 90.7629 134.246 90.3579C133.841 89.9529 133.613 89.4037 133.613 88.8309V64.4488C133.613 63.876 133.841 63.3269 134.246 62.9218C134.651 62.5168 135.2 62.289 135.773 62.2883H166.945C167.518 62.289 168.067 62.5168 168.472 62.9218C168.877 63.3269 169.105 63.876 169.106 64.4488V88.8309C169.105 89.4037 168.877 89.9529 168.472 90.3579C168.067 90.7629 167.518 90.9907 166.945 90.9914ZM135.773 62.9056C135.364 62.9061 134.972 63.0688 134.683 63.3581C134.393 63.6474 134.231 64.0396 134.23 64.4488V88.8309C134.231 89.2401 134.393 89.6323 134.683 89.9216C134.972 90.2109 135.364 90.3736 135.773 90.3741H166.945C167.355 90.3736 167.747 90.2109 168.036 89.9216C168.325 89.6323 168.488 89.2401 168.489 88.8309V64.4488C168.488 64.0396 168.325 63.6474 168.036 63.3581C167.747 63.0688 167.355 62.9061 166.945 62.9056H135.773Z" fill="#3F3D56"/>
<path d="M175.587 97.7814H144.415C143.842 97.7807 143.293 97.5529 142.888 97.1479C142.483 96.7428 142.255 96.1937 142.254 95.6209V71.2387C142.255 70.6659 142.483 70.1168 142.888 69.7118C143.293 69.3068 143.842 69.0789 144.415 69.0783H175.587C176.16 69.0789 176.709 69.3068 177.114 69.7118C177.519 70.1168 177.747 70.6659 177.747 71.2387V95.6209C177.747 96.1937 177.519 96.7428 177.114 97.1479C176.709 97.5529 176.16 97.7807 175.587 97.7814Z" fill="#FF9E58"/>
<path d="M163.498 90.6424H147.849C147.829 90.6426 147.81 90.6411 147.79 90.6378L155.192 77.8174C155.237 77.7376 155.302 77.6712 155.382 77.6249C155.461 77.5787 155.551 77.5544 155.643 77.5544C155.735 77.5544 155.825 77.5787 155.904 77.6249C155.983 77.6712 156.049 77.7376 156.094 77.8174L161.061 86.4209L161.299 86.8325L163.498 90.6424Z" fill="white"/>
<path opacity="0.2" d="M163.498 90.6425H158.155L160.778 86.8327L160.967 86.5583L161.061 86.421L161.299 86.8327L163.498 90.6425Z" fill="black"/>
<path d="M172.212 90.6424H158.676L161.299 86.8325L161.488 86.5581L164.906 81.5931C164.966 81.5173 165.042 81.455 165.128 81.4103C165.214 81.3656 165.309 81.3395 165.405 81.3337C165.502 81.3279 165.599 81.3426 165.69 81.3767C165.781 81.4108 165.863 81.4636 165.932 81.5317C165.95 81.5511 165.967 81.5716 165.982 81.5931L172.212 90.6424Z" fill="white"/>
<path d="M171.578 77.7675C172.858 77.7675 173.896 76.7296 173.896 75.4492C173.896 74.1688 172.858 73.1309 171.578 73.1309C170.297 73.1309 169.259 74.1688 169.259 75.4492C169.259 76.7296 170.297 77.7675 171.578 77.7675Z" fill="white"/>
<path d="M84.1181 108.247H10.6629C10.0901 108.246 9.54098 108.019 9.13596 107.614C8.73094 107.209 8.50311 106.659 8.50244 106.087V81.7044C8.50311 81.1316 8.73094 80.5825 9.13596 80.1775C9.54098 79.7725 10.0901 79.5446 10.6629 79.544H84.1181C84.6909 79.5447 85.24 79.7725 85.645 80.1775C86.05 80.5825 86.2779 81.1316 86.2785 81.7044V106.087C86.2779 106.659 86.05 107.209 85.645 107.614C85.24 108.019 84.6909 108.246 84.1181 108.247Z" fill="#E6E6E6"/>
<path d="M83.8095 73.3712H10.3543C9.78151 73.3706 9.23238 73.1427 8.82737 72.7377C8.42235 72.3327 8.19452 71.7836 8.19385 71.2108V11.6442C8.19449 11.0714 8.42231 10.5222 8.82734 10.1172C9.23236 9.71219 9.78151 9.48436 10.3543 9.48372H83.8095C84.3823 9.48439 84.9314 9.71222 85.3364 10.1172C85.7414 10.5223 85.9693 11.0714 85.97 11.6442V71.2108C85.9693 71.7836 85.7414 72.3327 85.3364 72.7377C84.9314 73.1427 84.3823 73.3705 83.8095 73.3712ZM10.3543 10.101C9.94517 10.1015 9.55293 10.2642 9.26364 10.5535C8.97434 10.8428 8.8116 11.235 8.81112 11.6442V71.2108C8.8116 71.6199 8.97434 72.0121 9.26364 72.3014C9.55293 72.5907 9.94517 72.7535 10.3543 72.754H83.8095C84.2186 72.7535 84.6109 72.5907 84.9002 72.3014C85.1895 72.0121 85.3522 71.6199 85.3527 71.2108V11.6442C85.3522 11.235 85.1895 10.8428 84.9002 10.5535C84.6109 10.2642 84.2186 10.1015 83.8095 10.101H10.3543Z" fill="#3F3D56"/>
<path d="M95.8461 84.1734H22.3909C21.8181 84.1728 21.269 83.9449 20.864 83.5399C20.459 83.1349 20.2312 82.5858 20.2305 82.013V22.4464C20.2311 21.8736 20.459 21.3245 20.864 20.9195C21.269 20.5144 21.8181 20.2866 22.3909 20.2859H95.8461C96.4189 20.2866 96.968 20.5144 97.373 20.9195C97.7781 21.3245 98.0059 21.8736 98.0066 22.4464V82.013C98.0059 82.5858 97.778 83.1349 97.373 83.5399C96.968 83.9449 96.4189 84.1728 95.8461 84.1734Z" fill="#FF9E58"/>
<path d="M111.509 81.0648C112.009 80.7895 112.591 80.6972 113.152 80.8038L121.954 72.5784L120.493 65.2439L126.272 65.5573L126.789 74.4595L115.144 83.5282C115.093 83.9481 114.935 84.3477 114.685 84.6889C114.435 85.03 114.101 85.3011 113.716 85.4763C113.331 85.6515 112.908 85.7248 112.486 85.6892C112.065 85.6536 111.66 85.5103 111.309 85.273C110.959 85.0357 110.676 84.7125 110.487 84.3342C110.297 83.956 110.209 83.5355 110.229 83.113C110.249 82.6905 110.377 82.2803 110.601 81.9216C110.825 81.563 111.138 81.2679 111.509 81.0648Z" fill="#FFB8B8"/>
<path d="M101.789 142.98H98.0055L96.2056 128.385H101.79L101.789 142.98Z" fill="#FFB6B6"/>
<path d="M102.754 146.648L90.5537 146.647V146.493C90.5538 145.234 91.0541 144.026 91.9447 143.135C92.8353 142.245 94.0431 141.744 95.3025 141.744L102.755 141.745L102.754 146.648Z" fill="#2F2E41"/>
<path d="M130.184 142.98H126.4L124.6 128.385H130.184L130.184 142.98Z" fill="#FFB6B6"/>
<path d="M131.149 146.648L118.948 146.647V146.493C118.948 145.234 119.449 144.026 120.339 143.135C121.23 142.245 122.438 141.744 123.697 141.744L131.149 141.745L131.149 146.648Z" fill="#2F2E41"/>
<path d="M123.283 60.9247C122.826 60.3478 122.178 59.9532 121.456 59.8122C120.734 59.6713 119.985 59.7931 119.345 60.1559C118.712 60.5145 118.227 61.0853 117.974 61.7673C117.721 62.4494 117.718 63.1988 117.964 63.8832L119.819 69.0371L127.419 66.1492L123.283 60.9247Z" fill="#2F3BAB"/>
<path d="M122.601 83.6858C122.255 83.4264 121.883 83.2034 121.491 83.0205L107.66 85.1484L107.964 93.812C101.274 106.439 96.8504 120.844 94.4365 136.826L103.1 138.802C106.977 123.784 111.38 110.308 116.932 100.196L122.784 138.437L132.739 138.194C131.428 115.714 130.416 89.5058 122.601 83.6858Z" fill="#090812"/>
<path d="M112.277 58.7473C115.255 58.7473 117.668 56.3337 117.668 53.3562C117.668 50.3788 115.255 47.9651 112.277 47.9651C109.3 47.9651 106.886 50.3788 106.886 53.3562C106.886 56.3337 109.3 58.7473 112.277 58.7473Z" fill="#FFB8B8"/>
<path d="M124.132 67.2096C124.379 65.7187 124.137 64.188 123.442 62.8463C122.747 61.5045 121.636 60.4238 120.275 59.7656L114.196 60.0696C113.206 60.3259 112.288 60.8046 111.511 61.4693C110.734 62.134 110.119 62.9671 109.713 63.9053C107.078 70.0728 106.703 77.9583 107.812 86.9724L122.212 83.5468C120.237 79.1 121.825 73.2923 124.132 67.2096Z" fill="#2F3BAB"/>
<path d="M105.593 52.0414C105.593 51.3118 105.736 50.5894 106.015 49.9154C106.295 49.2414 106.704 48.629 107.22 48.1131C107.736 47.5972 108.348 47.188 109.022 46.9088C109.696 46.6296 110.418 46.4859 111.148 46.4859H111.467C112.473 45.6858 113.72 45.2506 115.006 45.2514C116.52 45.2514 117.973 45.853 119.043 46.9238C120.114 47.9945 120.716 49.4468 120.716 50.9611V58.2141C117.024 58.1221 112.843 58.8498 108.37 60.0659C109.498 56.9432 110.247 54.0724 109.735 52.0414H105.593Z" fill="#2F2E41"/>
<path d="M94.1729 77.0408C94.7444 77.04 95.2983 77.2383 95.7394 77.6016L107.411 74.6179L109.655 67.4837L114.572 70.5356L110.747 78.5909L96.1772 80.9481C95.9306 81.2917 95.5998 81.5662 95.2166 81.7452C94.8334 81.9242 94.4107 82.0017 93.9889 81.9704C93.5671 81.939 93.1605 81.7997 92.808 81.566C92.4555 81.3323 92.169 81.0119 91.976 80.6355C91.7829 80.2592 91.6898 79.8396 91.7056 79.4169C91.7214 78.9943 91.8455 78.5828 92.066 78.2219C92.2866 77.861 92.5962 77.5629 92.9651 77.356C93.334 77.1492 93.7499 77.0407 94.1729 77.0408Z" fill="#FFB8B8"/>
<path d="M116.93 65.3223C117.141 64.6173 117.093 63.8602 116.794 63.1877C116.496 62.5151 115.967 61.9715 115.303 61.6549C114.646 61.3419 113.9 61.2711 113.196 61.455C112.492 61.639 111.876 62.0657 111.457 62.6599L108.297 67.1347L115.02 71.7062L116.93 65.3223Z" fill="#2F3BAB"/>
<path d="M146.953 147.16H71.5548C71.5065 147.16 71.4586 147.151 71.4139 147.132C71.3692 147.114 71.3285 147.087 71.2943 147.053C71.2601 147.019 71.2329 146.978 71.2144 146.933C71.1958 146.889 71.1863 146.841 71.1863 146.793C71.1863 146.744 71.1958 146.696 71.2144 146.652C71.2329 146.607 71.2601 146.566 71.2943 146.532C71.3285 146.498 71.3692 146.471 71.4139 146.453C71.4586 146.434 71.5065 146.425 71.5548 146.425H146.953C147.001 146.425 147.049 146.434 147.094 146.453C147.138 146.471 147.179 146.498 147.213 146.532C147.247 146.566 147.275 146.607 147.293 146.652C147.312 146.696 147.321 146.744 147.321 146.793C147.321 146.841 147.312 146.889 147.293 146.933C147.275 146.978 147.247 147.019 147.213 147.053C147.179 147.087 147.138 147.114 147.094 147.132C147.049 147.151 147.001 147.16 146.953 147.16Z" fill="#CACACA"/>
<path fill-rule="evenodd" clip-rule="evenodd" d="M49.5385 26.9295C47.5842 26.9295 46 28.5138 46 30.468V69.3911C46 71.3453 47.5842 72.9295 49.5385 72.9295H73.1282C75.0824 72.9295 76.6667 71.3453 76.6667 69.3911V30.468C76.6667 28.5138 75.0824 26.9295 73.1282 26.9295H49.5385ZM61.3333 71.7501C62.6362 71.7501 63.6923 70.6939 63.6923 69.3911C63.6923 68.0883 62.6362 67.0321 61.3333 67.0321C60.0305 67.0321 58.9744 68.0883 58.9744 69.3911C58.9744 70.6939 60.0305 71.7501 61.3333 71.7501Z" fill="white"/>
<rect x="47.7692" y="28.6988" width="27.1282" height="36.5641" rx="2.94872" fill="white" stroke="#E7E7E7" stroke-width="1.17949"/>
<circle cx="79" cy="66.9295" r="11" fill="#F39577"/>
<path d="M84.0909 67.6996H81.1744V71.0204H79.6439V67.6996H76.7273V66.1594H79.6439V62.8386H81.1744V66.1594H84.0909V67.6996Z" fill="white"/>
<g filter="url(#filter0_d_752_34740)">
<circle cx="80" cy="66.9295" r="8.18182" stroke="white" stroke-width="1.63636" shape-rendering="crispEdges"/>
</g>
<defs>
<filter id="filter0_d_752_34740" x="69.3636" y="57.1114" width="19.6364" height="18.8182" filterUnits="userSpaceOnUse" color-interpolation-filters="sRGB">
<feFlood flood-opacity="0" result="BackgroundImageFix"/>
<feColorMatrix in="SourceAlpha" type="matrix" values="0 0 0 0 0 0 0 0 0 0 0 0 0 0 0 0 0 0 127 0" result="hardAlpha"/>
<feOffset dx="-1.63636" dy="-0.818182"/>
<feComposite in2="hardAlpha" operator="out"/>
<feColorMatrix type="matrix" values="0 0 0 0 0.952941 0 0 0 0 0.584314 0 0 0 0 0.466667 0 0 0 1 0"/>
<feBlend mode="normal" in2="BackgroundImageFix" result="effect1_dropShadow_752_34740"/>
<feBlend mode="normal" in="SourceGraphic" in2="effect1_dropShadow_752_34740" result="shape"/>
</filter>
</defs>
</svg>
