<svg width="171" height="135" viewBox="0 0 171 135" fill="none" xmlns="http://www.w3.org/2000/svg">
<path d="M40.8825 72.7266C39.5234 65.4528 41.6631 57.1776 47.6103 52.7747C47.2733 60.8146 49.7909 68.7146 54.7178 75.0769C56.6268 77.5237 59.0048 80.0464 58.9309 83.1489C58.885 85.0794 57.841 86.8778 56.4651 88.2326C55.0892 89.5875 53.3944 90.5644 51.7198 91.526L51.4591 91.9315C46.5502 86.3945 42.2416 80.0004 40.8825 72.7266Z" fill="#F0F0F0"/>
<path d="M47.7187 52.8859C45.22 58.4779 44.5469 64.7151 45.7949 70.7114C46.0407 72.0071 46.4891 73.2559 47.1237 74.4119C47.7783 75.518 48.7172 76.4287 49.8428 77.0492C50.8806 77.6489 52.0117 78.1421 52.8857 78.9837C53.3267 79.4211 53.6702 79.9468 53.8938 80.5263C54.1174 81.1058 54.2159 81.726 54.183 82.3462C54.1411 83.8938 53.5457 85.3341 52.9145 86.7224C52.2136 88.2637 51.4612 89.8536 51.5066 91.5866C51.5122 91.7965 51.186 91.7928 51.1805 91.5832C51.1015 88.5682 53.2812 86.1468 53.7669 83.2538C53.9935 81.9038 53.8147 80.4774 52.8657 79.431C52.0357 78.516 50.8698 78.0064 49.8137 77.4082C48.7068 76.8189 47.761 75.9676 47.059 74.9285C46.3676 73.8086 45.8718 72.5791 45.5928 71.2928C44.9186 68.4069 44.7024 65.433 44.952 62.48C45.2182 59.1081 46.0593 55.8066 47.4388 52.7183C47.5243 52.5272 47.8036 52.696 47.7187 52.8859Z" fill="white"/>
<path d="M45.2793 68.8043C44.2448 68.8771 43.2181 68.5799 42.3826 67.9656C41.547 67.3513 40.9571 66.46 40.718 65.4509C40.6704 65.2465 40.9857 65.1629 41.0334 65.3675C41.2543 66.3076 41.8039 67.1378 42.5831 67.7082C43.3623 68.2786 44.3198 68.5517 45.2827 68.4782C45.4919 68.4625 45.4873 68.7887 45.2793 68.8043Z" fill="white"/>
<path d="M49.2763 76.8144C50.6806 75.2264 51.4348 73.1674 51.3884 71.048C51.3837 70.838 51.7098 70.8416 51.7145 71.0514C51.7587 73.257 50.9695 75.3981 49.5045 77.0475C49.3647 77.2046 49.1373 76.9707 49.2763 76.8144Z" fill="white"/>
<path d="M45.6006 59.3105C46.0067 59.3658 46.4202 59.3193 46.8039 59.1752C47.1876 59.0311 47.5296 58.794 47.799 58.4852C47.9367 58.3264 48.164 58.5604 48.0272 58.7182C47.7279 59.058 47.35 59.3194 46.9264 59.4796C46.5028 59.6397 46.0464 59.6936 45.5971 59.6367C45.5543 59.6348 45.5139 59.6168 45.4839 59.5862C45.4539 59.5556 45.4367 59.5147 45.4358 59.4719C45.4365 59.4287 45.4541 59.3876 45.485 59.3573C45.5158 59.3271 45.5574 59.3103 45.6006 59.3105Z" fill="white"/>
<path d="M71.931 58.7912C71.8479 58.8928 71.7647 58.9944 71.6822 59.0987C70.5714 60.4705 69.5738 61.9302 68.6994 63.4636C68.6299 63.5811 68.5612 63.7012 68.4953 63.8204C66.4279 67.5371 65.0685 71.6052 64.4863 75.8181C64.2561 77.4948 64.1539 79.1865 64.1804 80.8786C64.2171 83.2155 64.4429 85.7464 63.7266 87.8957C63.6543 88.1208 63.5682 88.3411 63.4688 88.5556L51.9739 92.218C51.9436 92.2132 51.914 92.211 51.8836 92.2063L51.4313 92.3735C51.4239 92.2863 51.418 92.1957 51.4105 92.1086C51.406 92.058 51.404 92.0066 51.3995 91.9561C51.3973 91.9221 51.3952 91.8881 51.3912 91.8576C51.3904 91.8463 51.3898 91.835 51.3898 91.8263C51.3859 91.7958 51.3855 91.767 51.3824 91.7391C51.3482 91.2329 51.3166 90.7259 51.2903 90.2171C51.2895 90.2145 51.2895 90.2145 51.2912 90.2111C51.0939 86.3365 51.2183 82.4114 51.9346 78.6299C51.9562 78.5162 51.9768 78.3998 52.0036 78.2844C52.3359 76.5817 52.8068 74.909 53.4117 73.283C53.7457 72.3937 54.1245 71.5219 54.5467 70.6709C55.6419 68.4743 57.0757 66.4635 58.7957 64.7124C62.2249 61.2221 66.7322 58.8674 71.5619 58.7932C71.6855 58.7914 71.8066 58.7904 71.931 58.7912Z" fill="#F0F0F0"/>
<path d="M71.9517 58.9454C66.5899 61.906 62.2973 66.4807 59.6835 72.0198C59.0996 73.2023 58.7058 74.4694 58.5165 75.7745C58.3732 77.0518 58.5746 78.3441 59.0997 79.5173C59.5673 80.621 60.1734 81.6958 60.3646 82.8939C60.4533 83.5087 60.4111 84.1352 60.2408 84.7325C60.0704 85.3298 59.7757 85.8844 59.3759 86.3598C58.4107 87.5703 57.0682 88.3618 55.7284 89.0901C54.2407 89.8989 52.6828 90.7153 51.6757 92.1263C51.5537 92.2973 51.2955 92.098 51.4174 91.9273C53.1695 89.4723 56.3677 88.8514 58.4973 86.8339C59.491 85.8925 60.2071 84.6459 60.0793 83.239C59.9676 82.0088 59.3435 80.8999 58.8603 79.7865C58.3313 78.6495 58.0888 77.4004 58.1538 76.1481C58.276 74.8375 58.6204 73.5574 59.1721 72.3624C60.3713 69.6523 61.9891 67.1476 63.9664 64.94C66.209 62.408 68.8683 60.2784 71.8291 58.6431C72.0124 58.542 72.1338 58.8449 71.9517 58.9454Z" fill="white"/>
<path d="M60.4201 70.1867C59.5502 69.622 58.9095 68.7665 58.6122 67.773C58.3149 66.7795 58.3805 65.7127 58.7972 64.763C58.8821 64.5712 59.1843 64.6942 59.0992 64.8863C58.7095 65.7699 58.6486 66.7637 58.9273 67.6883C59.206 68.6129 59.806 69.4074 60.6191 69.9284C60.7957 70.0419 60.5956 70.2995 60.4201 70.1867Z" fill="white"/>
<path d="M58.7889 78.9889C60.8663 78.5664 62.7081 77.3765 63.9471 75.6563C64.0697 75.4858 64.3279 75.6851 64.2054 75.8554C62.9127 77.643 60.9935 78.8774 58.8308 79.3123C58.6246 79.3536 58.5838 79.0299 58.7889 78.9889Z" fill="white"/>
<path d="M66.3921 62.7998C66.6831 63.0884 67.0413 63.3002 67.4344 63.4162C67.8275 63.5322 68.2433 63.5488 68.6444 63.4644C68.8499 63.4205 68.8905 63.7442 68.6863 63.7878C68.2427 63.879 67.7835 63.8601 67.3489 63.7329C66.9143 63.6057 66.5175 63.3741 66.193 63.0581C66.16 63.0309 66.1385 62.9921 66.133 62.9496C66.1275 62.9071 66.1384 62.8642 66.1634 62.8294C66.1899 62.7953 66.2288 62.7731 66.2717 62.7676C66.3145 62.762 66.3578 62.7736 66.3921 62.7998Z" fill="white"/>
<path d="M89.9867 19.0152C90.0252 19.1845 90.0503 19.3566 90.0618 19.5298L103.539 27.3049L106.815 25.419L110.307 29.9909L104.832 33.893C104.39 34.2083 103.858 34.3715 103.315 34.3583C102.772 34.3451 102.248 34.1561 101.821 33.8196L87.9237 22.8558C87.2965 23.088 86.6135 23.1237 85.9655 22.9582C85.3175 22.7927 84.7353 22.4339 84.2962 21.9294C83.8571 21.425 83.5821 20.7988 83.5076 20.1341C83.4331 19.4695 83.5627 18.798 83.8792 18.2088C84.1956 17.6197 84.684 17.1408 85.2793 16.836C85.8745 16.5311 86.5485 16.4147 87.2115 16.5023C87.8745 16.5898 88.4952 16.8772 88.9909 17.3261C89.4867 17.775 89.834 18.3641 89.9867 19.0152Z" fill="#FFB6B6"/>
<path d="M103.727 26.4465C103.77 26.2482 103.855 26.0614 103.976 25.899C104.098 25.7365 104.253 25.6022 104.431 25.5051L110.653 22.1149C111.482 21.4895 112.525 21.2183 113.553 21.3606C114.581 21.503 115.511 22.0473 116.139 22.8743C116.766 23.7013 117.04 24.7434 116.9 25.7721C116.761 26.8008 116.219 27.7321 115.393 28.3617L110.407 33.4279C110.264 33.5725 110.092 33.6847 109.903 33.7569C109.713 33.8291 109.51 33.8596 109.308 33.8462C109.105 33.8329 108.908 33.7761 108.73 33.6797C108.551 33.5833 108.395 33.4496 108.273 33.2876L103.98 27.5948C103.857 27.4329 103.771 27.2464 103.728 27.0483C103.684 26.8501 103.684 26.6449 103.727 26.4465Z" fill="#3F3D56"/>
<path d="M114.843 6.73691C115.738 3.88376 117.774 1.26695 120.589 0.302432C123.405 -0.662086 127.528 0.80719 129.645 2.9168C133.517 6.77569 134.462 20.0324 131.801 24.2216C131.272 24.1936 129.446 24.1729 128.911 24.1529L128.153 21.6279V24.128C123.973 23.9988 119.622 24.0797 115.267 24.1633C114.877 21.1973 113.948 9.59006 114.843 6.73691Z" fill="#2F2E41"/>
<path d="M113.645 126.497H109.832L108.019 111.791L113.646 111.792L113.645 126.497Z" fill="#FFB6B6"/>
<path d="M147.02 124.127L143.331 125.088L137.866 111.315L143.311 109.896L147.02 124.127Z" fill="#FFB6B6"/>
<path d="M126.01 36.1769L126.874 38.4229L126.701 40.669L109.794 46.5249L110.633 36.6952L112.533 34.4489L126.01 36.1769Z" fill="#FFB6B6"/>
<path d="M120.664 15.9644C123.999 15.9644 126.703 13.2609 126.703 9.9259C126.703 6.59092 123.999 3.88739 120.664 3.88739C117.329 3.88739 114.625 6.59092 114.625 9.9259C114.625 13.2609 117.329 15.9644 120.664 15.9644Z" fill="#FFB7B7"/>
<path d="M116.515 2.06259C117.675 1.35525 119.004 0.972624 120.363 0.954711C121.722 0.936798 123.06 1.28426 124.239 1.96076C125.417 2.63727 126.392 3.61798 127.062 4.80033C127.732 5.98269 128.072 7.32327 128.046 8.68191C124.754 9.5232 121.247 9.87509 117.53 8.88453L116.68 6.80494L116.179 8.88607C115.042 9.68602 113.944 9.68458 112.886 8.88174C112.841 7.52694 113.153 6.18409 113.79 4.98743C114.426 3.79077 115.366 2.78222 116.515 2.06259Z" fill="#2F2E41"/>
<path d="M115.35 133.737H112.645L112.162 131.182L110.925 133.737H103.75C103.406 133.737 103.071 133.627 102.794 133.423C102.517 133.219 102.313 132.932 102.21 132.604C102.108 132.275 102.113 131.923 102.225 131.598C102.338 131.272 102.551 130.992 102.834 130.796L108.564 126.839V124.257L114.591 124.617L115.35 133.737Z" fill="#2F2E41"/>
<path d="M150.83 130.614L148.213 131.297L147.101 128.947L146.549 131.73L139.605 133.54C139.273 133.627 138.921 133.605 138.601 133.478C138.282 133.351 138.011 133.124 137.829 132.832C137.648 132.541 137.564 132.198 137.59 131.855C137.617 131.512 137.752 131.187 137.977 130.926L142.523 125.652L141.872 123.153L147.795 121.981L150.83 130.614Z" fill="#2F2E41"/>
<path d="M146.552 114.879L135.377 91.9096L131.868 63.9536C134.287 59.4614 129.795 50.3208 129.795 50.3208V46.483L112.394 49.7659C108.835 59.4734 107.109 69.7574 107.304 80.095L108.005 117.256H107.785C107.42 117.256 107.07 117.401 106.812 117.659C106.554 117.918 106.409 118.268 106.409 118.633C106.409 118.998 106.554 119.348 106.812 119.606C107.07 119.864 107.42 120.009 107.785 120.009H114.666C115.031 120.009 115.381 119.864 115.639 119.606C115.897 119.348 116.042 118.998 116.042 118.633C116.042 118.268 115.897 117.918 115.639 117.659C115.381 117.401 115.031 117.256 114.666 117.256H114.489L119.429 69.9804L125.173 93.3099L139.053 114.79C138.699 114.818 138.37 114.982 138.134 115.247C137.898 115.513 137.774 115.859 137.788 116.214C137.803 116.569 137.954 116.904 138.21 117.15C138.467 117.396 138.808 117.532 139.163 117.532H146.045C146.365 117.532 146.675 117.421 146.922 117.217C147.168 117.013 147.336 116.729 147.396 116.415C147.457 116.101 147.405 115.775 147.251 115.495C147.097 115.214 146.85 114.996 146.552 114.879Z" fill="#2F2E41"/>
<path d="M131.368 52.6737C131.311 52.4491 131.184 52.2484 131.006 52.1003C130.828 51.9522 130.607 51.8644 130.376 51.8493C130.146 49.227 128.631 32.4088 128.573 31.9154L128.571 31.8946L128.132 22.5202C128.116 22.1797 127.975 21.8571 127.737 21.6139C127.498 21.3706 127.178 21.2239 126.838 21.2017L124.52 21.0502C124.488 21.0491 124.458 21.0357 124.436 21.0128C124.414 20.99 124.401 20.9594 124.401 20.9276C124.401 20.6716 124.351 20.4182 124.253 20.1817C124.155 19.9452 124.011 19.7303 123.83 19.5493C123.65 19.3683 123.435 19.2248 123.198 19.1268C122.962 19.0289 122.708 18.9784 122.452 18.9784H115.59C115.145 18.9786 114.716 19.141 114.383 19.4351C114.05 19.7293 113.835 20.1349 113.78 20.5759C113.777 20.6063 113.763 20.6344 113.74 20.6546C113.717 20.6748 113.687 20.6857 113.657 20.685L113.656 20.685C112.876 20.6689 112.116 20.9329 111.515 21.429C110.913 21.9252 110.509 22.6206 110.376 23.3891C109.438 28.8476 107.558 41.2362 108.487 48.1236C108.811 50.5212 108.664 54.1272 108.542 56.1333C108.529 56.3272 108.556 56.5215 108.619 56.7052C108.682 56.889 108.781 57.0584 108.909 57.2039C108.636 57.2828 108.403 57.4649 108.261 57.7118C108.119 57.9586 108.078 58.251 108.148 58.5272C108.219 58.8104 108.4 59.0536 108.651 59.2033C108.901 59.353 109.201 59.3971 109.485 59.3257L130.57 54.0104C130.853 53.939 131.096 53.7581 131.246 53.5074C131.395 53.2567 131.439 52.9568 131.368 52.6737Z" fill="#2F3BAB"/>
<path d="M96.5204 92.0847C96.5165 91.4691 96.2947 90.8748 95.8943 90.4072C95.494 89.9395 94.941 89.6287 94.3334 89.53L56.9505 83.3913C56.5921 83.3319 56.2251 83.3482 55.8734 83.4391L47.1124 85.7044L42.0857 87.0057L32.8091 89.4038C32.2491 89.5492 31.7532 89.8764 31.3991 90.334C31.0451 90.7916 30.8529 91.3538 30.8528 91.9324V131.104C30.8556 131.701 31.0619 132.28 31.4378 132.744C31.8136 133.208 32.3365 133.53 32.9201 133.657L70.9971 133.226C71.1759 133.264 71.3583 133.283 71.5411 133.282C71.8076 133.283 72.0725 133.242 72.3267 133.163L94.9492 133.725C95.4831 133.559 95.9491 133.225 96.278 132.772C96.6068 132.32 96.7811 131.774 96.775 131.214L96.5204 92.0847Z" fill="white"/>
<path d="M96.5204 92.0847C96.5165 91.4691 96.2947 90.8748 95.8943 90.4072C95.494 89.9395 94.941 89.6287 94.3334 89.53L56.9505 83.3913C56.5921 83.3319 56.2251 83.3482 55.8734 83.4391L47.1124 85.7044L42.0857 87.0057L32.8091 89.4038C32.2491 89.5492 31.7532 89.8764 31.3991 90.334C31.0451 90.7916 30.8529 91.3538 30.8528 91.9324V131.104C30.8556 131.701 31.0619 132.28 31.4378 132.744C31.8136 133.208 32.3365 133.53 32.9201 133.657L70.9971 133.226C71.1759 133.264 71.3583 133.283 71.5411 133.282C71.8076 133.283 72.0725 133.242 72.3267 133.163L94.9492 133.725C95.4831 133.559 95.9491 133.225 96.278 132.772C96.6068 132.32 96.7811 131.774 96.775 131.214L96.5204 92.0847ZM94.7534 133.103L72.1309 133.641C71.8081 133.742 71.4651 133.758 71.1342 133.689L33.055 133.019C32.6175 132.924 32.2255 132.682 31.9438 132.334C31.6622 131.986 31.5076 131.552 31.5056 131.104V91.9324C31.5059 91.5314 31.6291 91.1401 31.8587 90.8113C32.0883 90.4825 32.4131 90.232 32.7895 90.0936C32.8493 90.0711 32.9103 90.0522 32.9723 90.037L42.7864 87.4997L48.59 85.9982L56.0366 84.0724C56.1962 84.0297 56.3609 84.0085 56.5262 84.0093C56.6326 84.0092 56.7389 84.0179 56.8439 84.0354L94.2268 90.1741C94.5276 90.2234 94.8128 90.3422 95.0598 90.5208C95.3068 90.6995 95.5089 90.9331 95.6499 91.2034C95.7911 91.4774 95.8657 91.7808 95.8675 92.089L96.1221 131.219C96.1269 131.638 95.9963 132.048 95.7497 132.387C95.5032 132.727 95.1538 132.978 94.7534 133.103Z" fill="#CCCCCC"/>
<path d="M95.6498 91.2034C95.6244 91.2201 95.5965 91.2326 95.5671 91.2404L84.5713 94.2129L81.1484 95.1377L71.4126 97.7686C71.3848 97.7754 71.3564 97.7791 71.3277 97.7795C71.3081 97.7791 71.2885 97.7777 71.269 97.7751L32.0125 90.618L31.8819 90.5941C31.7969 90.5781 31.7216 90.5291 31.6726 90.4578C31.6236 90.3865 31.6048 90.2987 31.6203 90.2136C31.6358 90.1284 31.6844 90.0529 31.7555 90.0035C31.8265 89.9541 31.9142 89.9349 31.9994 89.95L32.7894 90.0936L71.3147 97.1179L79.7056 94.8505L84.3995 93.5818L95.2254 90.655L95.3974 90.6093C95.4717 90.5897 95.5505 90.5968 95.6201 90.6295C95.6897 90.6621 95.7457 90.7181 95.7782 90.7877C95.7866 90.8044 95.7932 90.8219 95.7978 90.84C95.8157 90.9084 95.811 90.9808 95.7843 91.0463C95.7576 91.1118 95.7104 91.1669 95.6498 91.2034Z" fill="#CCCCCC"/>
<path d="M71.6543 133.358C71.4754 133.358 71.3296 133.214 71.3279 134.136L71.0015 98.557C70.9998 97.2758 71.1447 97.1284 71.3249 97.1267H71.3279C71.5068 97.1267 71.6526 97.2707 71.6543 98.5511L71.9807 134.13C71.9824 133.209 71.8375 133.357 71.6573 133.358H71.6543Z" fill="#CCCCCC"/>
<path d="M84.664 133.771L81.1485 133.809L79.7058 94.8506L42.893 87.5259C42.857 87.5195 42.8213 87.5107 42.7864 87.4997C42.5036 87.4192 42.2566 87.2451 42.0857 87.0058L47.1124 85.7045L48.59 85.9982L83.5204 92.9465C83.7041 92.9827 83.8778 93.0583 84.0295 93.168C84.1813 93.2777 84.3075 93.4188 84.3996 93.5819C84.5084 93.7712 84.6618 133.545 84.664 133.771Z" fill="#CCCCCC"/>
<path d="M112.823 20.7784C112.82 20.3145 112.653 19.8666 112.351 19.5142C112.049 19.1617 111.633 18.9275 111.175 18.8531L83.0009 14.2266C82.7308 14.1819 82.4542 14.1942 82.1891 14.2627L75.5864 15.9699L71.798 16.9507L64.8066 18.7579C64.3846 18.8676 64.0109 19.1141 63.744 19.459C63.4772 19.8039 63.3324 20.2276 63.3323 20.6636V43.755C63.3344 44.205 63.4899 44.6409 63.7732 44.9907C64.0564 45.3404 64.4505 45.5831 64.8903 45.6787L93.5872 51.7845C93.7219 51.8134 93.8594 51.8277 93.9972 51.8271C94.198 51.8275 94.3976 51.7971 94.5892 51.7369L111.639 46.3528C112.041 46.2272 112.392 45.9753 112.64 45.6343C112.888 45.2934 113.019 44.8817 113.015 44.4602L112.823 20.7784Z" fill="white"/>
<path d="M82.6818 15.9224C82.6613 15.9224 82.6408 15.925 82.6209 15.9303L65.2383 20.4256C65.1856 20.4392 65.1389 20.47 65.1056 20.513C65.0723 20.5561 65.0542 20.609 65.0542 20.6634V43.7544C65.0544 43.8106 65.0738 43.8651 65.1092 43.9088C65.1445 43.9525 65.1938 43.9829 65.2487 43.9948L93.9456 50.1005C93.9872 50.1092 94.0303 50.1071 94.0708 50.0944L111.121 44.7104C111.171 44.6947 111.215 44.6632 111.246 44.6206C111.277 44.578 111.293 44.5266 111.292 44.474L111.101 20.7923C111.101 20.7344 111.08 20.6785 111.042 20.6345C111.004 20.5905 110.952 20.5612 110.895 20.5519L82.7215 15.9256C82.7084 15.9235 82.6951 15.9225 82.6818 15.9224Z" fill="#FF9E58"/>
<path d="M112.823 20.7784C112.82 20.3145 112.653 19.8666 112.351 19.5142C112.049 19.1617 111.633 18.9275 111.175 18.8531L83.0009 14.2266C82.7308 14.1819 82.4542 14.1942 82.1891 14.2627L75.5864 15.9699L71.798 16.9507L64.8066 18.7579C64.3846 18.8676 64.0109 19.1141 63.744 19.459C63.4772 19.8039 63.3324 20.2276 63.3323 20.6636V43.755C63.3344 44.205 63.4899 44.6409 63.7732 44.9907C64.0564 45.3404 64.4505 45.5831 64.8903 45.6787L93.5872 51.7845C93.7219 51.8134 93.8594 51.8277 93.9972 51.8271C94.198 51.8275 94.3976 51.7971 94.5892 51.7369L111.639 46.3528C112.041 46.2272 112.392 45.9753 112.64 45.6343C112.888 45.2934 113.019 44.8817 113.015 44.4602L112.823 20.7784ZM111.491 45.8837L94.4416 51.2679C94.1984 51.3436 93.9399 51.356 93.6905 51.3039L64.992 45.1982C64.6622 45.1263 64.3668 44.9441 64.1545 44.6818C63.9423 44.4194 63.8258 44.0925 63.8243 43.755V20.6637C63.8245 20.3614 63.9174 20.0665 64.0904 19.8188C64.2634 19.571 64.5082 19.3822 64.7919 19.2778C64.8369 19.2609 64.8829 19.2467 64.9296 19.2352L72.3261 17.323L76.7 16.1914L82.3121 14.7399C82.4325 14.7078 82.5565 14.6918 82.6811 14.6924C82.7613 14.6923 82.8414 14.6989 82.9205 14.7121L111.094 19.3385C111.321 19.3757 111.536 19.4652 111.722 19.5998C111.908 19.7345 112.061 19.9106 112.167 20.1143C112.273 20.3208 112.329 20.5494 112.331 20.7817L112.523 44.4635C112.526 44.7796 112.428 45.0885 112.242 45.3443C112.056 45.6002 111.793 45.7893 111.491 45.8837Z" fill="#3F3D56"/>
<path d="M112.167 20.1144C112.148 20.1269 112.127 20.1364 112.105 20.1422L103.818 22.3825L101.238 23.0795L93.9006 25.0623C93.8796 25.0674 93.8582 25.0702 93.8366 25.0705C93.8218 25.0702 93.807 25.0691 93.7923 25.0672L64.2065 19.6732L64.1081 19.6552C64.044 19.6432 63.9872 19.6063 63.9502 19.5525C63.9132 19.4987 63.899 19.4325 63.9107 19.3683C63.9225 19.3042 63.9591 19.2472 64.0127 19.21C64.0663 19.1728 64.1325 19.1583 64.1967 19.1697L64.792 19.2779L93.8268 24.5719L100.151 22.863L103.688 21.9069L111.847 19.7011L111.977 19.6666C112.033 19.6519 112.092 19.6572 112.145 19.6818C112.197 19.7064 112.239 19.7486 112.264 19.8011C112.27 19.8136 112.275 19.8268 112.278 19.8405C112.292 19.892 112.288 19.9466 112.268 19.996C112.248 20.0454 112.213 20.0869 112.167 20.1144Z" fill="#3F3D56"/>
<path d="M94.0823 51.8846C94.0175 51.8846 93.9553 51.859 93.9092 51.8133C93.8631 51.7677 93.8369 51.7057 93.8363 51.6408L93.5903 24.8267C93.5898 24.7614 93.6151 24.6986 93.6608 24.6521C93.7065 24.6055 93.7689 24.579 93.8341 24.5784H93.8363C93.9012 24.5784 93.9634 24.604 94.0095 24.6497C94.0556 24.6953 94.0818 24.7573 94.0823 24.8222L94.3283 51.6363C94.3289 51.7016 94.3036 51.7644 94.2579 51.8109C94.2121 51.8575 94.1498 51.884 94.0846 51.8846H94.0823Z" fill="#3F3D56"/>
<path d="M103.818 48.6226L101.238 49.3196L100.151 22.8629L72.4066 17.3426C72.3794 17.3378 72.3525 17.3313 72.3262 17.323C72.1131 17.2623 71.9269 17.131 71.7981 16.9507L75.5865 15.97L76.7001 16.1914L103.026 21.4279C103.164 21.4553 103.295 21.5122 103.409 21.5949C103.524 21.6775 103.619 21.7839 103.688 21.9068C103.77 22.0495 103.816 48.452 103.818 48.6226Z" fill="#3F3D56"/>
<path d="M102.662 33.5381C102.794 33.651 102.916 33.7741 103.029 33.9062L118.483 32.1013L119.986 28.6331L125.517 30.2172L123.453 36.6157C123.286 37.1326 122.956 37.5814 122.513 37.8949C122.069 38.2083 121.536 38.3694 120.993 38.354L103.298 37.851C102.934 38.4116 102.407 38.8479 101.788 39.1018C101.17 39.3557 100.488 39.4153 99.8348 39.2726C99.1814 39.1298 98.587 38.7916 98.1306 38.3027C97.6742 37.8139 97.3774 37.1977 97.2797 36.5361C97.182 35.8745 97.2881 35.1988 97.5838 34.599C97.8795 33.9991 98.3508 33.5035 98.935 33.1781C99.5193 32.8526 100.189 32.7127 100.854 32.7771C101.52 32.8414 102.15 33.1068 102.662 33.5381Z" fill="#FFB6B6"/>
<path d="M118.121 31.3009C118.037 31.1162 117.994 30.9156 117.994 30.7127C117.995 30.5099 118.039 30.3095 118.124 30.1253L121.094 23.6915C121.385 22.6953 122.06 21.8554 122.97 21.3559C123.88 20.8565 124.951 20.7384 125.948 21.0274C126.945 21.3164 127.787 21.989 128.289 22.8977C128.791 23.8064 128.912 24.877 128.625 25.8748L127.647 32.9161C127.62 33.1171 127.549 33.3096 127.44 33.4807C127.33 33.6518 127.186 33.7973 127.015 33.9075C126.845 34.0176 126.653 34.0897 126.452 34.1189C126.251 34.1481 126.047 34.1337 125.852 34.0767L119.009 32.0713C118.815 32.0144 118.634 31.9161 118.481 31.7831C118.328 31.6501 118.205 31.4856 118.121 31.3009Z" fill="#2F3BAB"/>
<path d="M169.961 134.058H0.326783C0.240027 134.058 0.156907 134.023 0.0956502 133.962C0.0343929 133.9 0 133.817 0 133.73C0 133.643 0.0343929 133.56 0.0956502 133.499C0.156907 133.437 0.240027 133.403 0.326783 133.402H169.961C170.048 133.402 170.132 133.437 170.193 133.498C170.255 133.56 170.289 133.643 170.289 133.73C170.289 133.817 170.255 133.9 170.193 133.962C170.132 134.023 170.048 134.058 169.961 134.058Z" fill="#CACACA"/>
<path d="M33.0598 99.2339C38.5037 99.2339 42.9168 94.8208 42.9168 89.377C42.9168 83.9331 38.5037 79.52 33.0598 79.52C27.616 79.52 23.2029 83.9331 23.2029 89.377C23.2029 94.8208 27.616 99.2339 33.0598 99.2339Z" fill="#FF9E58"/>
<path d="M31.7154 94.5071C31.5452 94.5071 31.3773 94.4674 31.2251 94.3913C31.0728 94.3152 30.9404 94.2046 30.8383 94.0684L28.1492 90.4828C27.9747 90.2502 27.8998 89.9578 27.941 89.6699C27.9821 89.3821 28.1359 89.1223 28.3685 88.9479C28.6012 88.7734 28.8936 88.6985 29.1815 88.7396C29.4693 88.7808 29.7291 88.9346 29.9035 89.1672L31.6628 91.5128L36.1814 84.735C36.2611 84.6147 36.3637 84.5113 36.4834 84.4307C36.6031 84.3502 36.7375 84.294 36.8789 84.2655C37.0204 84.237 37.166 84.2367 37.3076 84.2646C37.4491 84.2925 37.5838 84.348 37.7039 84.428C37.8239 84.5081 37.927 84.611 38.0072 84.7309C38.0873 84.8509 38.1431 84.9855 38.1712 85.127C38.1992 85.2685 38.1991 85.4142 38.1708 85.5557C38.1424 85.6971 38.0865 85.8316 38.0061 85.9514L32.6278 94.0188C32.5305 94.1647 32.3997 94.2852 32.2462 94.3701C32.0928 94.4549 31.9212 94.5018 31.7459 94.5067C31.7357 94.5069 31.7256 94.5071 31.7154 94.5071Z" fill="white"/>
<path d="M75.0306 37.0213C74.9999 37.0212 74.9694 37.0178 74.9395 37.011L66.4067 35.0843C66.3 35.0601 66.2073 34.9945 66.1489 34.902C66.0905 34.8094 66.0712 34.6975 66.0953 34.5908C66.1194 34.484 66.1849 34.3912 66.2773 34.3327C66.3698 34.2742 66.4817 34.2548 66.5884 34.2787L75.1212 36.2054C75.2202 36.2278 75.3076 36.2859 75.3665 36.3686C75.4254 36.4514 75.4518 36.5529 75.4406 36.6538C75.4294 36.7548 75.3814 36.8481 75.3057 36.9158C75.2301 36.9836 75.1321 37.0211 75.0306 37.0213Z" fill="white"/>
<path d="M42.1916 114.569C42.1615 114.575 42.1309 114.578 42.1003 114.577L33.3539 114.43C33.2446 114.428 33.1405 114.383 33.0646 114.304C32.9886 114.225 32.947 114.12 32.9488 114.01C32.9506 113.901 32.9957 113.797 33.0743 113.721C33.1528 113.645 33.2583 113.603 33.3677 113.604L42.114 113.752C42.2155 113.753 42.3129 113.793 42.3874 113.862C42.462 113.931 42.5085 114.025 42.5181 114.126C42.5277 114.227 42.4997 114.328 42.4394 114.41C42.3792 114.491 42.291 114.548 42.1916 114.569Z" fill="#E6E6E6"/>
<path d="M45.2194 119.248C45.1894 119.254 45.1588 119.257 45.1281 119.257L36.3818 119.109C36.2724 119.107 36.1684 119.062 36.0924 118.983C36.0164 118.905 35.9748 118.799 35.9766 118.69C35.9784 118.58 36.0236 118.476 36.1021 118.4C36.1806 118.324 36.2861 118.282 36.3955 118.284L45.1418 118.431C45.2434 118.433 45.3407 118.472 45.4152 118.541C45.4898 118.61 45.5363 118.704 45.5459 118.805C45.5555 118.906 45.5275 119.007 45.4673 119.089C45.407 119.171 45.3188 119.227 45.2194 119.248Z" fill="#E6E6E6"/>
</svg>
