<svg width="153" height="143" viewBox="0 0 153 143" fill="none" xmlns="http://www.w3.org/2000/svg">
<g id="Group 5928">
<path id="Vector" d="M36.3592 73.5918C29.168 73.5918 22.1383 71.4593 16.1591 67.4641C10.1799 63.4689 5.51963 57.7904 2.76769 51.1466C0.0157523 44.5029 -0.704278 37.1923 0.698648 30.1393C2.10157 23.0863 5.56446 16.6077 10.6494 11.5228C15.7343 6.43786 22.2129 2.97499 29.2659 1.57206C36.3188 0.169134 43.6295 0.889168 50.2732 3.64111C56.917 6.39305 62.5955 11.0533 66.5907 17.0325C70.5859 23.0118 72.7183 30.0414 72.7183 37.2326C72.7075 46.8723 68.8733 56.1141 62.057 62.9304C55.2407 69.7467 45.9989 73.5809 36.3592 73.5918ZM36.3592 1.84873C29.3609 1.84873 22.5198 3.92396 16.701 7.81199C10.8821 11.7 6.34687 17.2262 3.66875 23.6918C0.99063 30.1573 0.289911 37.2718 1.65521 44.1356C3.0205 50.9994 6.39049 57.3042 11.339 62.2528C16.2875 67.2013 22.5923 70.5713 29.4561 71.9366C36.3199 73.3019 43.4344 72.6011 49.9 69.923C56.3656 67.2449 61.8918 62.7097 65.7798 56.8908C69.6678 51.072 71.743 44.2309 71.743 37.2326C71.7324 27.8515 68.0011 18.8576 61.3676 12.2241C54.7342 5.59067 45.7403 1.85933 36.3592 1.84873Z" fill="#3F3D56"/>
<path id="Vector_2" d="M46.5011 70.657C46.7608 70.2917 47.1023 69.9922 47.4983 69.7823C47.8944 69.5725 48.334 69.4581 48.7821 69.4483C49.2301 69.4385 49.6743 69.5336 50.0791 69.726C50.4839 69.9184 50.8382 70.2027 51.1136 70.5563L60.7816 67.2702L59.4413 72.4044L50.4659 74.7378C49.9039 75.1186 49.2259 75.2893 48.5506 75.2201C47.8753 75.1508 47.246 74.8461 46.773 74.3592C46.3 73.8724 46.0135 73.2345 45.9638 72.5575C45.9141 71.8806 46.1043 71.2077 46.5011 70.657Z" fill="#FFB8B8"/>
<path id="Vector_3" d="M128.213 141.693C129.312 129.978 132.346 118.521 137.195 107.78C138.546 104.791 140.034 101.867 141.657 99.0096C142.074 98.2743 140.933 97.6138 140.516 98.349C134.612 108.757 130.476 120.055 128.273 131.791C127.66 135.068 127.2 138.369 126.892 141.693C126.813 142.531 128.135 142.526 128.213 141.693Z" fill="#E6E6E6"/>
<path id="Vector_4" d="M144.605 101.172C149.181 101.172 152.891 97.4614 152.891 92.8848C152.891 88.3082 149.181 84.5981 144.605 84.5981C140.028 84.5981 136.318 88.3082 136.318 92.8848C136.318 97.4614 140.028 101.172 144.605 101.172Z" fill="#E6E6E6"/>
<path id="Vector_5" d="M129.159 141.915C129.856 134.354 131.783 126.96 134.863 120.028C135.721 118.099 136.666 116.212 137.697 114.368C137.748 114.271 137.761 114.159 137.731 114.053C137.702 113.948 137.633 113.858 137.539 113.802C137.445 113.747 137.333 113.731 137.227 113.757C137.121 113.783 137.03 113.849 136.972 113.942C133.222 120.659 130.596 127.95 129.197 135.525C128.808 137.64 128.515 139.77 128.319 141.915C128.27 142.456 129.109 142.453 129.159 141.915Z" fill="#E6E6E6"/>
<path id="Vector_6" d="M139.747 115.745C142.746 115.745 145.176 113.314 145.176 110.316C145.176 107.317 142.746 104.886 139.747 104.886C136.749 104.886 134.318 107.317 134.318 110.316C134.318 113.314 136.749 115.745 139.747 115.745Z" fill="#E6E6E6"/>
<path id="Vector_7" d="M127.958 141.617C123.838 135.17 120.802 128.088 118.971 120.654C118.463 118.585 118.049 116.495 117.731 114.385C117.713 114.276 117.653 114.179 117.564 114.113C117.475 114.048 117.365 114.019 117.255 114.034C117.146 114.049 117.047 114.105 116.979 114.192C116.91 114.279 116.878 114.389 116.889 114.499C118.052 122.18 120.467 129.617 124.036 136.512C125.034 138.437 126.118 140.313 127.289 142.141C127.584 142.602 128.252 142.076 127.958 141.617Z" fill="#E6E6E6"/>
<path id="Vector_8" d="M116.887 115.173C119.885 115.173 122.316 112.806 122.316 109.887C122.316 106.967 119.885 104.601 116.887 104.601C113.888 104.601 111.458 106.967 111.458 109.887C111.458 112.806 113.888 115.173 116.887 115.173Z" fill="#E6E6E6"/>
<path id="Vector_9" d="M94.1156 91.0347C94.3469 90.684 94.4985 90.2869 94.5597 89.8713C94.6209 89.4557 94.5903 89.0317 94.4699 88.6293C94.3496 88.2268 94.1424 87.8556 93.8631 87.5418C93.5838 87.2281 93.2391 86.9794 92.8532 86.8133L93.5936 76.6289L88.9636 79.2213L88.9704 88.4951C88.7343 89.1618 88.751 89.8919 89.0172 90.5471C89.2835 91.2023 89.7808 91.7371 90.415 92.0502C91.0492 92.3632 91.7762 92.4327 92.4583 92.2456C93.1403 92.0584 93.73 91.6275 94.1156 91.0347Z" fill="#FFB8B8"/>
<path id="Vector_10" d="M92.9639 51.445L94.2299 83.8542L89.0864 83.5685L87.9434 49.5643L89.0281 49.0538C89.4408 48.8596 89.8951 48.7706 90.3506 48.7948C90.806 48.819 91.2484 48.9556 91.6382 49.1924C92.0279 49.4292 92.353 49.7589 92.5843 50.152C92.8157 50.5451 92.9461 50.9893 92.9639 51.445Z" fill="#2F3BAB"/>
<path id="Vector_11" d="M77.0567 138.958L73.5535 138.957L71.887 125.445L77.0573 125.445L77.0567 138.958Z" fill="#FFB8B8"/>
<path id="Vector_12" d="M71.0513 137.957H77.8075V142.211H66.7974C66.7974 141.652 66.9074 141.099 67.1212 140.583C67.335 140.067 67.6483 139.598 68.0433 139.203C68.4383 138.808 68.9073 138.494 69.4234 138.28C69.9395 138.067 70.4927 137.957 71.0513 137.957Z" fill="#2F2E41"/>
<path id="Vector_13" d="M106.204 134.771L103.025 136.243L95.8357 124.681L100.528 122.509L106.204 134.771Z" fill="#FFB8B8"/>
<path id="Vector_14" d="M100.334 136.386L106.465 133.547L108.252 137.408L98.2605 142.033C97.7865 141.009 97.7387 139.839 98.1275 138.78C98.5163 137.721 99.3099 136.86 100.334 136.386Z" fill="#2F2E41"/>
<path id="Vector_15" d="M68.7386 94.8589L72.3516 136.089L77.2093 135.518L80.7995 97.8561L100.641 133.803L105.784 132.375C105.784 132.375 89.2291 82.8542 87.9433 78.7109C86.5336 74.1687 75.3703 72.4244 75.3703 72.4244L74.9416 71.9957C70.1448 78.453 68.2235 86.8314 68.7386 94.8589Z" fill="#2F2E41"/>
<path id="Vector_16" d="M87.9861 45.4769C91.8622 45.4769 95.0044 42.3347 95.0044 38.4586C95.0044 34.5825 91.8622 31.4403 87.9861 31.4403C84.11 31.4403 80.9678 34.5825 80.9678 38.4586C80.9678 42.3347 84.11 45.4769 87.9861 45.4769Z" fill="#FFB8B8"/>
<path id="Vector_17" d="M92.3922 52.0005L87.5145 77.4236C87.5145 77.4236 80.102 75.9434 77.4618 74.1604C76.4159 73.4517 75.4672 72.7202 74.667 72.0572C74.5099 71.9287 74.3613 71.8001 74.2157 71.6772C72.8955 70.5485 72.084 69.7084 72.084 69.7084C72.084 69.7084 72.5067 67.6367 73.024 65.185C73.6012 62.4389 74.3014 59.2128 74.6585 57.8955C75.4444 55.0066 78.1418 51.6404 80.2449 49.3487C81.0064 48.5176 81.9797 47.9094 83.0604 47.5893C84.1412 47.2691 85.2887 47.2491 86.38 47.5314L90.1861 48.5143C90.9283 48.7058 91.5696 49.1729 91.9795 49.8206C92.3893 50.4682 92.5369 51.2478 92.3922 52.0005Z" fill="#2F3BAB"/>
<path id="Vector_18" opacity="0.2" d="M80.5964 63.1047C80.5964 63.1047 77.9733 68.5568 74.2157 71.6772C72.8955 70.5485 72.084 69.7084 72.084 69.7084C72.084 69.7084 72.5067 67.6367 73.024 65.185C76.173 63.5219 79.4192 62.4732 80.5964 63.1047Z" fill="black"/>
<path id="Vector_19" d="M85.2484 53.1248C84.9894 52.9927 84.7186 52.8852 84.4396 52.8035C83.8697 52.6473 83.27 52.635 82.6942 52.7677C82.1185 52.9004 81.5846 53.1739 81.1405 53.5636L65.7222 64.8573L53.4595 68.9821L55.6751 74.2229L73.9562 69.7584L86.0804 58.9835C86.4976 58.5833 86.8137 58.0897 87.0025 57.5432C87.1912 56.9968 87.2473 56.4133 87.166 55.8409C87.0847 55.2686 86.8684 54.7237 86.535 54.2515C86.2016 53.7792 85.7606 53.393 85.2484 53.1248Z" fill="#2F3BAB"/>
<path id="Vector_20" d="M88.4014 45.4123C89.4003 43.9171 90.1886 41.8439 89.0888 40.4214C88.0033 39.0172 85.8621 39.224 84.1995 38.6027C81.8838 37.7372 80.5407 35.0167 80.9596 32.5803C81.3785 30.1439 83.3343 28.1242 85.6642 27.2978C87.9941 26.4714 90.6215 26.7402 92.9031 27.6918C95.7118 28.8633 98.1212 31.1295 99.1316 34.0001C100.142 36.8708 99.6018 40.3175 97.5058 42.5239C95.2588 44.8895 91.7321 45.5199 88.4697 45.4816" fill="#2F2E41"/>
<path id="Vector_21" d="M99.4223 37.1371C99.7082 38.7347 101.461 39.6421 103.072 39.8415C104.682 40.041 106.348 39.7852 107.917 40.2041C110.681 40.9426 112.504 43.6012 113.508 46.2807C114.511 48.9603 114.956 51.8524 116.26 54.3993C117.564 56.9463 120.092 59.1917 122.944 58.9535C122.385 60.3599 121.406 61.5596 120.141 62.3891C118.875 63.2185 117.384 63.6373 115.872 63.5883C114.359 63.5392 112.899 63.0248 111.69 62.115C110.48 61.2053 109.581 59.9447 109.115 58.5051C108.068 55.2713 109.27 51.4148 107.438 48.5514C106.424 46.9669 104.674 46.0349 102.986 45.2045C101.299 44.374 99.5271 43.5216 98.3955 42.019C97.2639 40.5165 97.0379 38.1435 98.4323 36.881" fill="#2F2E41"/>
<path id="Vector_22" d="M141.299 143H49.775C49.6848 143 49.5983 142.964 49.5345 142.9C49.4707 142.837 49.4348 142.75 49.4348 142.66C49.4348 142.57 49.4707 142.483 49.5345 142.419C49.5983 142.355 49.6848 142.32 49.775 142.32H141.299C141.389 142.32 141.476 142.355 141.54 142.419C141.603 142.483 141.639 142.57 141.639 142.66C141.639 142.75 141.603 142.837 141.54 142.9C141.476 142.964 141.389 143 141.299 143Z" fill="#CACACA"/>
<g id="$" filter="url(#filter0_d_752_34667)">
<path d="M34.567 45.7615C35.534 45.2947 36.4257 45.2297 37.2421 45.5664C38.0585 45.9031 38.6774 46.5082 39.099 47.3816C39.5056 48.2238 39.6965 48.9778 39.6717 49.6436C41.5862 50.1041 43.4325 49.9052 45.2106 49.0469C47.0198 48.1736 48.181 47.1131 48.6941 45.8655C49.1922 44.5866 49.0949 43.2297 48.4023 41.7948C47.7096 40.3599 46.6158 39.3687 45.1207 38.8211C43.6257 38.2735 41.995 38.0029 40.2289 38.0093C38.4939 38.0006 36.7439 37.9607 34.9788 37.8897C33.1987 37.7874 31.5009 37.3377 29.8854 36.5406C28.2698 35.7435 26.9953 34.3779 26.0618 32.4439C25.1282 30.5099 24.9691 28.5867 25.5845 26.6743C26.231 24.7469 27.6095 23.1007 29.7199 21.7359C28.7993 19.988 28.1045 18.7079 27.6356 17.8958C28.1261 17.1591 28.9952 16.4895 30.243 15.8873C30.5549 15.7367 31.0298 15.5652 31.6676 15.3727C32.0548 16.4935 32.6065 18.0348 33.3228 19.9968C35.4073 19.3752 37.3988 19.3177 39.2972 19.8244C41.2118 20.2849 42.6208 21.4509 43.5242 23.3225C44.4126 25.163 44.0457 26.4747 42.4237 27.2576C41.4567 27.7244 40.565 27.7894 39.7486 27.4527C38.9323 27.116 38.2982 26.4797 37.8465 25.5439C37.3948 24.6081 37.2356 23.8003 37.3691 23.1206C35.7955 22.6494 34.2132 22.7977 32.6224 23.5656C31.0315 24.3335 30.0263 25.3187 29.6067 26.5213C29.2184 27.7087 29.3178 28.9107 29.905 30.1273C30.4923 31.3438 31.3554 32.2156 32.4944 32.7427C33.6184 33.2386 34.8462 33.5114 36.1778 33.5609C37.4944 33.5793 38.9497 33.646 40.5437 33.7612C42.1227 33.8452 43.6081 33.9743 45 34.1486C46.3918 34.323 47.7325 34.8296 49.0221 35.6687C50.2967 36.4765 51.2953 37.6291 52.0181 39.1264C53.1775 41.5283 53.3225 43.9006 52.4533 46.2432C51.6003 48.5396 49.9018 50.3594 47.3579 51.7027C48.0505 53.1376 48.6103 54.0982 49.0373 54.5844C48.3908 55.3964 47.6777 55.9907 46.8978 56.3671C46.1492 56.7285 45.5183 56.9753 45.0053 57.1076C44.4245 55.4263 43.932 54.0872 43.5276 53.0901C41.3666 53.6331 39.3601 53.6594 37.5079 53.1688C35.6719 52.632 34.3172 51.459 33.4439 49.6498C32.5706 47.8405 32.945 46.5445 34.567 45.7615Z" fill="#FF9E58"/>
</g>
</g>
<defs>
<filter id="filter0_d_752_34667" x="22.3603" y="15.3727" width="30.6517" height="42.8779" filterUnits="userSpaceOnUse" color-interpolation-filters="sRGB">
<feFlood flood-opacity="0" result="BackgroundImageFix"/>
<feColorMatrix in="SourceAlpha" type="matrix" values="0 0 0 0 0 0 0 0 0 0 0 0 0 0 0 0 0 0 127 0" result="hardAlpha"/>
<feOffset dx="-2.8575" dy="1.143"/>
<feComposite in2="hardAlpha" operator="out"/>
<feColorMatrix type="matrix" values="0 0 0 0 0.535465 0 0 0 0 0.28445 0 0 0 0 0.204338 0 0 0 1 0"/>
<feBlend mode="normal" in2="BackgroundImageFix" result="effect1_dropShadow_752_34667"/>
<feBlend mode="normal" in="SourceGraphic" in2="effect1_dropShadow_752_34667" result="shape"/>
</filter>
</defs>
</svg>
