<svg width="82" height="84" viewBox="0 0 82 84" fill="none" xmlns="http://www.w3.org/2000/svg">
<g filter="url(#filter0_d_4_34)">
<rect x="8" width="66" height="66" rx="20" fill="#F5F5F5"/>
<g filter="url(#filter1_f_4_34)">
<path d="M51 19C51.1667 20.3333 52.5 22.8 56.5 22C54.8333 22.3333 52.1 24 54.5 28" stroke="#FF5C28" stroke-width="2"/>
</g>
<path d="M35.724 26.3697C35.5883 29.9472 35.1644 32.0428 33.0838 35.1364C32.7297 34.7925 32.2514 34.5758 31.728 34.5758H25.8564C24.789 34.5758 23.8992 35.4656 23.8992 36.533V48.2763C23.8992 49.3436 24.789 50.2335 25.8564 50.2335H31.728C32.2771 50.2335 32.7766 49.9958 33.1348 49.6219C33.3899 49.824 33.6277 50.0098 33.8993 50.1723C34.4766 50.5177 35.1496 50.7255 36.0094 50.8145C37.729 50.9926 40.4376 50.8595 46.7333 50.8859C46.9581 50.8859 47.1819 50.8048 47.3551 50.6616C48.6007 49.6455 49.2126 48.6003 49.4958 47.4914C49.6047 47.4322 49.7021 47.3522 49.7813 47.2569C50.7258 46.0763 51.1068 44.7136 50.9433 43.4852C50.9957 43.4427 51.0436 43.3948 51.0861 43.3424C52.1815 41.9733 52.5287 40.3535 52.136 38.9897C52.7784 38.1559 53.0559 37.177 52.9515 36.2679C52.8235 35.153 52.1101 34.1484 51.0351 33.6787C50.9133 33.6256 50.7806 33.5977 50.6477 33.5972H42.615C43.0448 30.3873 42.7167 27.4445 41.5854 25.4523C40.9444 24.3236 39.9661 23.6618 38.986 23.5155C37.2257 23.2994 35.8927 24.5361 35.724 26.3697ZM39.8831 26.4207C40.7744 27.9903 41.1913 31.0776 40.5559 34.3923C40.4485 34.955 40.9412 35.5526 41.5141 35.5544H50.3623C50.7279 35.7587 50.9562 36.0718 51.0045 36.4922C51.0497 36.8863 50.8795 37.3614 50.4846 37.8378H46.7256C46.2085 37.8378 45.733 38.2993 45.733 38.8164C45.733 39.3335 46.2086 39.8023 46.7256 39.795H50.3011C50.3755 40.3487 50.2387 41.0453 49.7914 41.7522H46.7256C46.2085 41.7522 45.733 42.2138 45.733 42.7308C45.733 43.2479 46.2086 43.7167 46.7256 43.7094H48.9963C49.0707 44.2632 48.9339 44.9597 48.4866 45.6667H46.7256C46.2085 45.6667 45.733 46.1282 45.733 46.6453C45.733 47.1623 46.2086 47.6312 46.7256 47.6239H47.3959C47.1954 48.0555 46.8772 48.4377 46.3154 48.9287C40.3758 48.9104 37.5448 49.0065 36.2031 48.8675C35.5119 48.7959 35.2392 48.6943 34.8983 48.4903C34.6145 48.3206 34.2228 47.9959 33.6852 47.5627V37.6441C36.7465 33.5516 37.5186 30.6891 37.6812 26.4615C37.9871 24.7764 39.4476 25.4754 39.8831 26.4207ZM25.8564 36.533H31.728C31.7058 40.4209 31.728 44.3578 31.728 48.2763H25.8564V36.533Z" fill="#333333"/>
<path d="M46.812 27.5196L47.6313 24.9981C47.649 24.9445 47.649 24.8866 47.6316 24.8329C47.6142 24.7792 47.5801 24.7324 47.5343 24.6994L46.812 27.5196ZM46.812 27.5196C46.7155 27.8166 46.7155 28.1366 46.8121 28.4336C46.9086 28.7306 47.0967 28.9894 47.3493 29.173C47.602 29.3566 47.9063 29.4555 48.2186 29.4555C48.5309 29.4555 48.8352 29.3567 49.0879 29.1731M46.812 27.5196L49.0879 29.1731M49.0879 29.1731L51.2328 27.6148M49.0879 29.1731L51.2328 27.6148M51.2328 27.6148C51.2783 27.5814 51.3333 27.5634 51.3898 27.5634C51.4463 27.5634 51.5014 27.5814 51.5469 27.6148L53.6918 29.1731L51.2328 27.6148ZM46.1454 21.915L46.1448 21.9148C46.1368 21.9363 46.1362 21.96 46.1433 21.9819C46.1504 22.0038 46.1648 22.0226 46.184 22.0352L46.1897 22.039L46.1896 22.0391L48.3346 23.5976C48.3346 23.5976 48.3347 23.5976 48.3347 23.5977L46.1454 21.915ZM46.1454 21.915L46.1491 21.9017M46.1454 21.915L46.1491 21.9017M46.1491 21.9017C46.1552 21.8795 46.1687 21.8599 46.1873 21.8464C46.206 21.8328 46.2287 21.826 46.2518 21.827L46.2517 21.8272M46.1491 21.9017L46.2517 21.8272M46.2517 21.8272H46.2585M46.2517 21.8272H46.2585M46.2585 21.8272H48.9095H46.2585ZM51.1357 18.1337L50.3163 20.6555C50.2203 20.9528 50.0324 21.2119 49.7796 21.3955C49.5268 21.5792 49.2222 21.6778 48.9098 21.6772L51.1357 18.1337ZM51.1357 18.1337C51.1531 18.0801 51.1871 18.0333 51.2328 18.0001M51.1357 18.1337L51.2328 18.0001M51.2328 18.0001C51.2784 17.967 51.3334 17.9491 51.3898 17.9491M51.2328 18.0001L51.3898 17.9491M51.3898 17.9491C51.4462 17.9491 51.5012 17.967 51.5469 18.0001M51.3898 17.9491L51.5469 18.0001M51.5469 18.0001C51.5925 18.0333 51.6265 18.0801 51.6439 18.1337L51.5469 18.0001ZM47.4461 24.8207L47.4465 24.821C47.4665 24.8354 47.4813 24.8558 47.4889 24.8793C47.4965 24.9027 47.4965 24.9279 47.4888 24.9514L47.4887 24.9518L46.6693 27.4732L46.6693 27.4732C46.5631 27.8004 46.5631 28.1528 46.6694 28.4799C46.7757 28.8071 46.9829 29.0922 47.2612 29.2944C47.5394 29.4966 47.8746 29.6055 48.2186 29.6055C48.5626 29.6055 48.8977 29.4966 49.176 29.2945L49.1761 29.2945L51.3209 27.7362L51.3215 27.7357C51.3413 27.7212 51.3653 27.7134 51.3898 27.7134C51.4144 27.7134 51.4383 27.7212 51.4581 27.7357L51.4587 27.7362L53.6023 29.2935C53.6025 29.2937 53.6028 29.2939 53.603 29.294C53.8801 29.4996 54.2159 29.6106 54.561 29.6106C54.9058 29.6106 55.2414 29.4998 55.5183 29.2945C55.7993 29.0946 56.0085 28.8096 56.1152 28.4816C56.2218 28.1534 56.2201 27.7996 56.1101 27.4725C56.11 27.4722 56.1099 27.472 56.1098 27.4717L55.291 24.9518L55.2908 24.9514C55.2831 24.9279 55.2831 24.9027 55.2907 24.8793C55.2983 24.8558 55.3132 24.8354 55.3332 24.821L55.3335 24.8207L57.4787 23.2621L57.4787 23.2621C57.7569 23.0599 57.964 22.7748 58.0703 22.4477C58.1766 22.1205 58.1766 21.7681 58.0703 21.441C57.9639 21.1139 57.7568 20.8288 57.4785 20.6266C57.2002 20.4244 56.8651 20.3156 56.5211 20.3156L53.8698 20.3156L53.8695 20.3156C53.8448 20.3156 53.8208 20.3078 53.8009 20.2933C53.7809 20.2788 53.7661 20.2584 53.7585 20.2349L53.7584 20.2346L52.939 17.7129L52.939 17.7129C52.8327 17.3858 52.6255 17.1007 52.3472 16.8986C52.0689 16.6964 51.7338 16.5875 51.3898 16.5875C51.0459 16.5875 50.7107 16.6964 50.4324 16.8986C50.1541 17.1007 49.947 17.3858 49.8406 17.7129L49.8406 17.7129L49.0212 20.2346L49.0211 20.2349C49.0136 20.2584 48.9987 20.2788 48.9788 20.2933C48.9588 20.3078 48.9348 20.3156 48.9101 20.3156H48.9098H46.2593C45.9142 20.3119 45.5771 20.4195 45.2979 20.6224C45.0189 20.8251 44.8126 21.1122 44.7093 21.4412C44.5995 21.768 44.5977 22.1215 44.7042 22.4494C44.8109 22.7776 45.0203 23.0628 45.3016 23.2626C45.3019 23.2628 45.3021 23.263 45.3023 23.2631L47.4461 24.8207ZM54.4922 28.0715L52.3476 26.5133L53.8698 21.6772V21.8272H53.8701H56.521C56.5458 21.8272 56.5699 21.835 56.5899 21.8496C56.6099 21.8641 56.6248 21.8846 56.6325 21.9082C56.6401 21.9317 56.6401 21.9571 56.6325 21.9806C56.6248 22.0041 56.61 22.0246 56.5899 22.0392L54.445 23.5976C54.445 23.5976 54.445 23.5977 54.4449 23.5977C54.1662 23.7996 53.9587 24.0847 53.8524 24.412C53.7461 24.7394 53.7464 25.092 53.8533 25.4192L54.6726 27.9404L54.6726 27.9405C54.6803 27.964 54.6803 27.9894 54.6726 28.0129C54.665 28.0365 54.6501 28.057 54.6301 28.0715C54.61 28.0861 54.5859 28.0939 54.5612 28.0939C54.5364 28.0939 54.5123 28.0861 54.4923 28.0715L54.4922 28.0715ZM50.4591 20.7016L51.2784 18.1801L51.2784 18.1801C51.286 18.1565 51.3009 18.136 51.3209 18.1215C51.341 18.1069 51.3651 18.0991 51.3898 18.0991C51.4146 18.0991 51.4387 18.1069 51.4587 18.1215C51.4787 18.136 51.4936 18.1565 51.5012 18.1801L51.5012 18.1801L52.3205 20.7016H50.4591Z" fill="#333333" stroke="#333333" stroke-width="0.3"/>
<path d="M51.9956 15.5259V14.3143C51.9956 14.1537 51.9318 13.9996 51.8182 13.886C51.7046 13.7724 51.5505 13.7085 51.3898 13.7085C51.2291 13.7085 51.075 13.7724 50.9614 13.886C50.8478 13.9996 50.784 14.1537 50.784 14.3143V15.5259C50.784 15.6866 50.8478 15.8407 50.9614 15.9543C51.075 16.0679 51.2291 16.1318 51.3898 16.1318C51.5505 16.1318 51.7046 16.0679 51.8182 15.9543C51.9318 15.8407 51.9956 15.6866 51.9956 15.5259Z" fill="#333333"/>
<path d="M47.1059 17.906C47.2257 17.906 47.3428 17.8704 47.4424 17.8039C47.542 17.7373 47.6196 17.6427 47.6655 17.532C47.7113 17.4213 47.7233 17.2995 47.7 17.182C47.6766 17.0645 47.6189 16.9566 47.5342 16.8719L46.6776 16.0152C46.564 15.9016 46.4099 15.8378 46.2493 15.8378C46.0886 15.8378 45.9345 15.9016 45.8209 16.0152C45.7073 16.1288 45.6435 16.2829 45.6435 16.4435C45.6435 16.6042 45.7073 16.7583 45.8209 16.8719L46.6776 17.7285C46.7338 17.7849 46.8005 17.8295 46.874 17.86C46.9475 17.8905 47.0263 17.9061 47.1059 17.906Z" fill="#333333"/>
<path d="M56.102 17.7285L56.9586 16.8719C57.0149 16.8156 57.0595 16.7488 57.0899 16.6753C57.1204 16.6019 57.1361 16.5231 57.1361 16.4435C57.1361 16.364 57.1204 16.2852 57.0899 16.2117C57.0595 16.1382 57.0149 16.0715 56.9586 16.0152C56.9024 15.959 56.8356 15.9143 56.7621 15.8839C56.6886 15.8535 56.6099 15.8378 56.5303 15.8378C56.4508 15.8378 56.372 15.8535 56.2985 15.8839C56.225 15.9143 56.1582 15.959 56.102 16.0152L55.2453 16.8719C55.1891 16.9281 55.1445 16.9949 55.114 17.0684C55.0836 17.1419 55.0679 17.2206 55.0679 17.3002C55.0679 17.3797 55.0836 17.4585 55.114 17.532C55.1445 17.6055 55.1891 17.6723 55.2453 17.7285C55.3589 17.8421 55.513 17.9059 55.6737 17.9059C55.7532 17.9059 55.832 17.8903 55.9055 17.8598C55.979 17.8294 56.0457 17.7848 56.102 17.7285Z" fill="#333333"/>
</g>
<defs>
<filter id="filter0_d_4_34" x="0" y="0" width="82" height="84" filterUnits="userSpaceOnUse" color-interpolation-filters="sRGB">
<feFlood flood-opacity="0" result="BackgroundImageFix"/>
<feColorMatrix in="SourceAlpha" type="matrix" values="0 0 0 0 0 0 0 0 0 0 0 0 0 0 0 0 0 0 127 0" result="hardAlpha"/>
<feOffset dy="10"/>
<feGaussianBlur stdDeviation="4"/>
<feComposite in2="hardAlpha" operator="out"/>
<feColorMatrix type="matrix" values="0 0 0 0 0 0 0 0 0 0 0 0 0 0 0 0 0 0 0.02 0"/>
<feBlend mode="normal" in2="BackgroundImageFix" result="effect1_dropShadow_4_34"/>
<feBlend mode="normal" in="SourceGraphic" in2="effect1_dropShadow_4_34" result="shape"/>
</filter>
<filter id="filter1_f_4_34" x="46.0077" y="14.876" width="14.6884" height="17.6385" filterUnits="userSpaceOnUse" color-interpolation-filters="sRGB">
<feFlood flood-opacity="0" result="BackgroundImageFix"/>
<feBlend mode="normal" in="SourceGraphic" in2="BackgroundImageFix" result="shape"/>
<feGaussianBlur stdDeviation="2" result="effect1_foregroundBlur_4_34"/>
</filter>
</defs>
</svg>
