<svg xmlns="http://www.w3.org/2000/svg" width="49" height="48" viewBox="0 0 49 48" fill="none">
  <path d="M47.074 37.2038H41.1851V22.4815C41.1851 21.9395 40.7457 21.5001 40.2036 21.5001C38.7707 21.5001 34.8069 21.5001 33.3332 21.5001V15.5426C32.9443 7.11112 37.3888 4.88895 16.648 5.79637C16.106 5.79637 15.6666 6.23587 15.6666 6.77785V21.5001C14.1792 21.5001 10.2274 21.5001 8.79619 21.5001C8.25412 21.5001 7.81471 21.9395 7.81471 22.4815V37.2038H1.92582C1.38375 37.2038 0.944336 37.6433 0.944336 38.1852V43.0927C0.944336 43.6346 1.38375 44.0741 1.92582 44.0741H3.88878V47.0186C3.88878 47.5606 4.32819 48.0001 4.87026 48.0001H9.77767C10.1495 48.0001 10.4893 47.79 10.6555 47.4575L12.3472 44.0741H36.6526L38.3443 47.4575C38.5105 47.79 38.8503 48.0001 39.2221 48.0001H44.1295C44.6716 48.0001 45.111 47.5606 45.111 47.0186V44.0741H47.074C47.616 44.0741 48.0555 43.6346 48.0555 43.0927V38.1852C48.0555 37.6433 47.616 37.2038 47.074 37.2038ZM9.77767 37.2038V35.2408H23.5184V37.2038H9.77767ZM17.6295 21.5001V19.5371H31.3703V21.5001H17.6295ZM25.4814 35.2408H39.2221V37.2038H25.4814V35.2408ZM39.2221 33.2778H25.4814V23.463H29.4073V28.3704C29.4073 28.7106 29.5834 29.0266 29.8728 29.2054C30.1622 29.3841 30.5235 29.4003 30.8277 29.2484L32.3517 28.4864L33.8758 29.2484C34.18 29.4005 34.5413 29.3842 34.8307 29.2054C35.12 29.0266 35.2962 28.7106 35.2962 28.3704V23.463H39.2221V33.2778ZM21.5555 7.75933V12.6667C21.5555 13.0069 21.7315 13.3228 22.021 13.5017C22.3103 13.6804 22.6717 13.6966 22.9759 13.5447L24.4999 12.7827L26.0239 13.5447C26.3281 13.6968 26.6895 13.6805 26.9788 13.5017C27.2682 13.3229 27.4443 13.0069 27.4443 12.6667V7.75933H29.4695C31.3703 7.75933 31.611 9.33335 31.3703 13.9336V17.5741H17.6295V7.75933H21.5555ZM13.7036 23.463V28.3704C13.7036 28.7106 13.8797 29.0266 14.1691 29.2054C14.4585 29.3841 14.8198 29.4003 15.124 29.2484L16.648 28.4864L18.1721 29.2484C18.4762 29.4005 18.8377 29.3842 19.1271 29.2054C19.4164 29.0266 19.5926 28.7106 19.5926 28.3704V23.463H23.5185V33.2778H9.77767V23.463H13.7036ZM46.0925 42.1112C40.1826 42.1112 4.55629 42.1112 2.9073 42.1112V39.1667C5.11769 39.1667 43.9606 39.1667 46.0925 39.1667V42.1112Z" fill="#1E1E1E"/>
  <path d="M37.4337 0C33.0044 0 29.3887 3.57062 29.3887 8C29.3887 12.4294 32.9592 16 37.3885 16C41.8177 16 45.3882 12.4294 45.3882 8C45.4334 3.57062 41.8629 0 37.4337 0ZM40.9138 6.46328L37.2529 10.8023C37.1173 10.9831 36.8913 11.0734 36.6653 11.0734C36.4393 11.0734 36.2134 10.9831 36.0778 10.8023L33.9987 8.31639C33.7275 8 33.7727 7.50283 34.0891 7.18644C34.4055 6.91526 34.9027 6.96045 35.219 7.27684L36.7105 9.03955L39.7387 5.42373C40.0099 5.10735 40.507 5.06215 40.8686 5.33333C41.1398 5.64972 41.185 6.14689 40.9138 6.46328Z" fill="#FF8761"/>
</svg>