<svg xmlns="http://www.w3.org/2000/svg" width="48" height="44" viewBox="0 0 48 44" fill="none">
  <path d="M40.32 22.28L31.71 30.91C31.387 30.0547 30.8111 29.3181 30.059 28.7982C29.3069 28.2784 28.4143 27.9999 27.5 28H11.6C10.5176 27.9993 9.44765 28.2311 8.46255 28.6797C7.47745 29.1282 6.60016 29.7831 5.89 30.6H1C0.734784 30.6 0.48043 30.7053 0.292893 30.8929C0.105357 31.0804 0 31.3348 0 31.6L0 42.44C0 42.7052 0.105357 42.9596 0.292893 43.1471C0.48043 43.3346 0.734784 43.44 1 43.44H31.48C31.6123 43.4394 31.7432 43.4126 31.8651 43.3611C31.9869 43.3096 32.0974 43.2345 32.19 43.14L46.67 28.65C47.09 28.2327 47.4233 27.7364 47.6507 27.1898C47.8781 26.6432 47.9952 26.057 47.9952 25.465C47.9952 24.8729 47.8781 24.2867 47.6507 23.7401C47.4233 23.1935 47.09 22.6973 46.67 22.28C45.8254 21.4428 44.6843 20.973 43.495 20.973C42.3057 20.973 41.1646 21.4428 40.32 22.28ZM45.26 27.23L31.07 41.44H2V32.56H4.62C4.21077 33.5072 3.99977 34.5282 4 35.56V38.56H6V35.56C6.01317 34.0825 6.60866 32.6699 7.65715 31.6289C8.70565 30.5879 10.1225 30.0026 11.6 30H27.5C28.163 30 28.7989 30.2634 29.2678 30.7322C29.7366 31.2011 30 31.8369 30 32.5C30 33.163 29.7366 33.7989 29.2678 34.2677C28.7989 34.7366 28.163 35 27.5 35H18V37H27.5C28.4931 36.9988 29.4579 36.6683 30.2432 36.0603C31.0285 35.4524 31.5901 34.6012 31.84 33.64L41.74 23.73C42.0877 23.3851 42.5291 23.15 43.0093 23.0538C43.4895 22.9576 43.9873 23.0045 44.4411 23.1888C44.8948 23.3731 45.2844 23.6865 45.5616 24.0903C45.8387 24.4941 45.9912 24.9703 46 25.46C46.0015 25.7895 45.9368 26.116 45.8097 26.4201C45.6825 26.7241 45.4956 26.9996 45.26 27.23Z" fill="black"/>
  <path d="M9 27.5601H34C34.2652 27.5601 34.5196 27.4547 34.7071 27.2672C34.8946 27.0796 35 26.8253 35 26.5601V1.56006C35 1.29484 34.8946 1.04049 34.7071 0.852952C34.5196 0.665415 34.2652 0.560059 34 0.560059H9C8.73478 0.560059 8.48043 0.665415 8.29289 0.852952C8.10536 1.04049 8 1.29484 8 1.56006V26.5601C8 26.8253 8.10536 27.0796 8.29289 27.2672C8.48043 27.4547 8.73478 27.5601 9 27.5601ZM18.5 2.56006H24.5V10.5601H18.5V2.56006ZM10 2.56006H16.5V11.5601C16.5 11.8253 16.6054 12.0796 16.7929 12.2672C16.9804 12.4547 17.2348 12.5601 17.5 12.5601H25.5C25.7652 12.5601 26.0196 12.4547 26.2071 12.2672C26.3946 12.0796 26.5 11.8253 26.5 11.5601V2.56006H33V25.5601H10V2.56006Z" fill="black"/>
  <path d="M24 19H20V23H24V19Z" fill="#FAFAFA"/>
  <path d="M30 19H26V23H30V19Z" fill="#FAFAFA"/>
</svg>