<svg xmlns="http://www.w3.org/2000/svg" width="46" height="46" viewBox="0 0 46 46" fill="none">
  <path d="M19.2268 31.1877H21.1839C21.3921 31.1877 21.5586 31.0212 21.5586 30.813V28.8559C23.599 28.5227 25.3063 26.8987 25.5145 24.8167C25.7643 22.0684 23.6407 19.7782 20.934 19.7782H19.4766C18.3523 19.7782 17.4362 18.8205 17.5611 17.6545C17.6444 16.6551 18.5605 15.9472 19.5599 15.9472H21.2671C21.8918 15.9472 22.4331 16.4053 22.558 16.9883C22.5996 17.1548 22.7662 17.2797 22.9328 17.2797H24.8899C25.0981 17.2797 25.3063 17.1132 25.2647 16.8633C25.0564 14.9062 23.4741 13.4072 21.517 13.2822V11.3668C21.517 11.1586 21.3504 10.992 21.1422 10.992H19.2268C19.0185 10.992 18.852 11.1586 18.852 11.3668V13.2822C16.4785 13.6154 14.6463 15.7807 14.8961 18.2791C15.146 20.6526 17.2696 22.4016 19.6848 22.4016H20.934C22.0583 22.4016 22.9744 23.3593 22.8495 24.5252C22.7662 25.5246 21.8501 26.2325 20.8507 26.2325H19.1018C18.4772 26.2325 17.9359 25.7744 17.811 25.1915C17.7693 25.0249 17.6028 24.9 17.4362 24.9H15.4791C15.2709 24.9 15.0627 25.0666 15.1043 25.3164C15.3125 27.2735 16.8949 28.7726 18.852 28.8975V30.813C18.852 31.0212 19.0185 31.1877 19.2268 31.1877Z" fill="#333333"/>
  <path d="M20.1845 35.5604C12.1895 35.5604 5.69358 29.0644 5.69358 21.0694C5.69358 13.0744 12.1895 6.57847 20.1845 6.57847C28.1795 6.57847 34.6755 13.0744 34.6755 21.0694C34.6755 22.1937 34.5506 23.2347 34.3424 24.2758C34.5089 24.2341 34.6755 24.2341 34.8421 24.2341C35.7165 24.2341 36.591 24.359 37.4238 24.6089C37.6736 23.4846 37.7569 22.277 37.7569 21.0694C37.7569 11.4088 29.8868 3.5387 20.2262 3.5387C10.5655 3.5387 2.65381 11.4088 2.65381 21.0694C2.65381 30.7301 10.5239 38.6001 20.1845 38.6001C22.5581 38.6001 24.8483 38.1421 26.8887 37.2676C26.4306 36.3932 26.0975 35.3938 25.9726 34.3112C24.2237 35.1023 22.2666 35.5604 20.1845 35.5604Z" fill="#333333"/>
  <path d="M34.842 25.7747C30.7612 25.7747 27.4299 29.0643 27.4299 33.1451C27.4299 37.2258 30.7195 40.5155 34.8003 40.5155C38.8811 40.5155 42.1707 37.2258 42.1707 33.1451C42.2124 29.0643 38.9228 25.7747 34.842 25.7747ZM38.0483 31.7293L34.6754 35.7268C34.5505 35.8933 34.3423 35.9766 34.1341 35.9766C33.9259 35.9766 33.7177 35.8933 33.5928 35.7268L31.6773 33.4365C31.4274 33.1451 31.4691 32.687 31.7606 32.3955C32.052 32.1457 32.5101 32.1873 32.8016 32.4788L34.1757 34.1028L36.9656 30.7715C37.2155 30.4801 37.6735 30.4384 38.0067 30.6883C38.2565 30.9797 38.2981 31.4378 38.0483 31.7293Z" fill="#FF8761"/>
</svg>