<svg xmlns="http://www.w3.org/2000/svg" width="43" height="48" viewBox="0 0 43 48" fill="none">
  <circle cx="20" cy="11" r="11" fill="#FF8761"/>
  <path fill-rule="evenodd" clip-rule="evenodd" d="M14.5806 20.9278H12.8951C10.2451 20.9278 8.09605 23.0759 8.09605 25.7269C8.09605 25.9649 8.09605 26.2049 8.09605 26.4439C8.09605 27.5237 8.4531 28.5209 9.05586 29.3233H5.15517C3.7884 29.3233 2.47632 29.8666 1.50979 30.8331C0.543254 31.7997 0 33.1108 0 34.4785V34.4823C0 35.8501 0.543254 37.1612 1.50979 38.1277C1.87452 38.4925 2.28821 38.7977 2.73548 39.0348C1.83421 39.9072 1.27367 41.13 1.27367 42.4843C1.27367 42.7224 1.27367 42.9623 1.27367 43.2013C1.27367 45.8514 3.42174 48.0004 6.07275 48.0004H36.9174C38.2852 48.0004 39.5963 47.4571 40.5628 46.4906C41.5293 45.5231 42.0726 44.212 42.0726 42.8452V42.8404C42.0726 41.4727 41.5293 40.1616 40.5628 39.195C40.1981 38.8303 39.7844 38.5261 39.3371 38.288C40.2384 37.4155 40.7989 36.1927 40.7989 34.8384C40.7989 34.6004 40.7989 34.3604 40.7989 34.1224C40.7989 31.4714 38.6509 29.3233 35.9998 29.3233H31.4177C32.0204 28.5209 32.3775 27.5237 32.3775 26.4439C32.3775 26.2049 32.3775 25.9649 32.3775 25.7269C32.3775 23.0759 30.2284 20.9278 27.5784 20.9278H25.893C29.2245 18.9794 31.4647 15.3638 31.4647 11.2279C31.4647 5.03135 26.4333 0 20.2368 0C14.0402 0 9.00885 5.03135 9.00885 11.2279C9.00885 15.3638 11.2491 18.9794 14.5806 20.9278ZM5.63412 39.6375H21.1947C22.5768 39.8496 23.6355 41.0427 23.6355 42.4843V43.2013C23.6355 44.7917 22.3455 46.0808 20.756 46.0808H6.07275C4.48234 46.0808 3.1933 44.7917 3.1933 43.2013V42.4843C3.1933 41.0427 4.25198 39.8496 5.63412 39.6375ZM36.5671 39.6049C36.3809 39.627 36.1918 39.6375 35.9998 39.6375H24.6202C25.2076 40.4342 25.5551 41.4189 25.5551 42.4843C25.5551 42.7224 25.5551 42.9623 25.5551 43.2013C25.5551 44.2811 25.198 45.2784 24.5953 46.0808H36.9174C37.7755 46.0808 38.599 45.74 39.2056 45.1325C39.8122 44.5259 40.153 43.7033 40.153 42.8452V42.8404C40.153 41.9823 39.8122 41.1588 39.2056 40.5522C38.599 39.9456 37.7755 39.6049 36.9174 39.6049H36.5671ZM36.4385 37.6853C37.8206 37.4741 38.8793 36.2801 38.8793 34.8384V34.1224C38.8793 32.532 37.5903 31.243 35.9998 31.243C31.8947 31.243 25.4227 31.243 21.3175 31.243C19.7271 31.243 18.4381 32.532 18.4381 34.1224C18.4381 34.3604 18.4381 34.6004 18.4381 34.8384C18.4381 36.2849 19.5025 37.4808 20.8914 37.6872C21.0373 37.691 21.1812 37.7016 21.3233 37.7179H22.6958C22.7755 37.6968 22.86 37.6853 22.9463 37.6853H36.4385ZM17.4773 31.243H5.15517C4.2971 31.243 3.47453 31.5837 2.86697 32.1903C2.26037 32.7969 1.91963 33.6204 1.91963 34.4785V34.4823C1.91963 35.3414 2.26037 36.1639 2.86697 36.7705C3.47453 37.3772 4.2971 37.7179 5.15517 37.7179H5.50553C5.69173 37.6968 5.88079 37.6853 6.07275 37.6853H17.4523C16.8649 36.8886 16.5185 35.9048 16.5185 34.8384C16.5185 34.6004 16.5185 34.3604 16.5185 34.1224C16.5185 33.0417 16.8745 32.0444 17.4773 31.243ZM30.4578 25.7269V26.4439C30.4578 28.0343 29.1688 29.3233 27.5784 29.3233C23.4733 29.3233 17.0003 29.3233 12.8951 29.3233C11.3047 29.3233 10.0157 28.0343 10.0157 26.4439C10.0157 26.2049 10.0157 25.9649 10.0157 25.7269C10.0157 24.1365 11.3047 22.8475 12.8951 22.8475C17.0003 22.8475 23.4733 22.8475 27.5784 22.8475C29.1688 22.8475 30.4578 24.1365 30.4578 25.7269ZM20.2368 1.91963C25.3747 1.91963 29.5451 6.09099 29.5451 11.2279C29.5451 16.3658 25.3747 20.5372 20.2368 20.5372C15.0989 20.5372 10.9285 16.3658 10.9285 11.2279C10.9285 6.09099 15.0989 1.91963 20.2368 1.91963Z" fill="black"/>
  <path fill-rule="evenodd" clip-rule="evenodd" d="M19.277 6.24168C18.0628 6.64384 17.1865 7.7889 17.1865 9.13744C17.1865 10.821 18.5533 12.1877 20.2368 12.1877C20.8607 12.1877 21.3675 12.6945 21.3675 13.3184C21.3675 13.9432 20.8607 14.4491 20.2368 14.4491C19.6129 14.4491 19.1062 13.9432 19.1062 13.3184C19.1062 12.7886 18.6762 12.3586 18.1463 12.3586C17.6165 12.3586 17.1865 12.7886 17.1865 13.3184C17.1865 14.6669 18.0628 15.812 19.277 16.2151V16.673C19.277 17.2028 19.707 17.6328 20.2368 17.6328C20.7666 17.6328 21.1966 17.2028 21.1966 16.673V16.2151C22.4108 15.812 23.2871 14.6669 23.2871 13.3184C23.2871 11.6349 21.9203 10.2681 20.2368 10.2681C19.6129 10.2681 19.1062 9.76133 19.1062 9.13744C19.1062 8.51356 19.6129 8.00678 20.2368 8.00678C20.8607 8.00678 21.3675 8.51356 21.3675 9.13744C21.3675 9.66726 21.7975 10.0973 22.3273 10.0973C22.8571 10.0973 23.2871 9.66726 23.2871 9.13744C23.2871 7.7889 22.4108 6.64384 21.1966 6.24168V5.78385C21.1966 5.25403 20.7666 4.82404 20.2368 4.82404C19.707 4.82404 19.277 5.25403 19.277 5.78385V6.24168Z" fill="white" stroke="#FF8761" stroke-width="0.5"/>
</svg>