<svg width="1280" height="61" viewBox="0 0 1280 61" fill="none" xmlns="http://www.w3.org/2000/svg">
<path opacity="0.5" d="M483.175 1.95472L483.588 0L484 1.95472C484.762 5.56495 487.739 8.38698 491.548 9.10906L493.611 9.5L491.548 9.89095C487.739 10.6129 484.762 13.435 484 17.0453L483.588 19L483.175 17.0453C482.413 13.435 479.436 10.6129 475.627 9.89095L473.564 9.5L475.627 9.10906C479.436 8.38698 482.413 5.56495 483.175 1.95472Z" fill="white"/>
<path opacity="0.7" d="M1179.57 4.26336L1180.05 2L1180.52 4.26336C1181.4 8.44362 1184.85 11.7112 1189.26 12.5473L1191.65 13L1189.26 13.4527C1184.85 14.2887 1181.4 17.5563 1180.52 21.7366L1180.05 24L1179.57 21.7366C1178.69 17.5563 1175.24 14.2887 1170.83 13.4527L1168.44 13L1170.83 12.5473C1175.24 11.7112 1178.69 8.44362 1179.57 4.26336Z" fill="white"/>
<path opacity="0.5" d="M886.802 46.6461L887.149 45L887.497 46.6461C888.138 49.6863 890.646 52.0627 893.853 52.6708L895.59 53L893.853 53.3292C890.646 53.9372 888.138 56.3137 887.497 59.3539L887.149 61L886.802 59.3539C886.161 56.3137 883.653 53.9372 880.446 53.3292L878.709 53L880.446 52.6708C883.653 52.0627 886.161 49.6863 886.802 46.6461Z" fill="white"/>
<g opacity="0.6">
<mask id="mask0_2107_10288" style="mask-type:alpha" maskUnits="userSpaceOnUse" x="7" y="7" width="65" height="54">
<path d="M7 7H71.3588V41C71.3588 52.0457 62.4045 61 51.3588 61H27C15.9543 61 7 52.0457 7 41V7Z" fill="url(#paint0_linear_2107_10288)"/>
</mask>
<g mask="url(#mask0_2107_10288)">
<path d="M27.8547 40.1687L28.5234 37L29.192 40.1687C30.4269 46.0211 35.2535 50.5958 41.4281 51.7663L44.7713 52.4L41.4281 53.0337C35.2535 54.2042 30.4269 58.7789 29.192 64.6313L28.5234 67.8L27.8547 64.6313C26.6198 58.7789 21.7932 54.2042 15.6186 53.0337L12.2754 52.4L15.6186 51.7663C21.7932 50.5958 26.6198 46.0211 27.8547 40.1687Z" fill="white"/>
<path d="M14.7897 13.5844L15.124 12L15.4583 13.5844C16.0758 16.5105 18.489 18.7979 21.5764 19.3831L23.248 19.7L21.5764 20.0169C18.489 20.6021 16.0758 22.8894 15.4583 25.8157L15.124 27.4L14.7897 25.8157C14.1722 22.8894 11.7589 20.6021 8.67159 20.0169L7 19.7L8.67159 19.3831C11.7589 18.7979 14.1722 16.5105 14.7897 13.5844Z" fill="white"/>
<path d="M41.9802 15.6246L42.2031 14.5684L42.426 15.6246C42.8376 17.5754 44.4465 19.1003 46.5047 19.4904L47.6191 19.7017L46.5047 19.913C44.4465 20.3031 42.8376 21.828 42.426 23.7788L42.2031 24.835L41.9802 23.7788C41.5686 21.828 39.9598 20.3031 37.9015 19.913L36.7871 19.7017L37.9015 19.4904C39.9598 19.1003 41.5686 17.5754 41.9802 15.6246Z" fill="white"/>
</g>
</g>
<defs>
<linearGradient id="paint0_linear_2107_10288" x1="60.6963" y1="376" x2="189.151" y2="332.425" gradientUnits="userSpaceOnUse">
<stop stop-color="#B7EF6F"/>
<stop offset="1" stop-color="#F3CEB0"/>
</linearGradient>
</defs>
</svg>
