<svg width="300" height="280" viewBox="0 0 300 280" fill="none" xmlns="http://www.w3.org/2000/svg">
<path d="M29.7118 255.186H18.8667V230.344H29.7118V255.186Z" fill="#E7E8E5"/>
<path d="M66.5144 255.186H55.6694V230.344H66.5144V255.186Z" fill="#E7E8E5"/>
<path d="M48.1135 255.186H37.2681V207.733H48.1135V255.186Z" fill="#F3F2F1"/>
<path d="M84.9173 255.186H74.0718V207.733H84.9173V255.186Z" fill="#F3F2F1"/>
<path d="M103.319 255.186H92.4731V209.091H103.319V255.186Z" fill="#E7E8E5"/>
<path d="M140.122 255.186H129.277V209.091H140.122V255.186Z" fill="#E7E8E5"/>
<path d="M176.925 255.186H166.08V209.091H176.925V255.186Z" fill="#E7E8E5"/>
<path d="M121.72 255.186H110.875V184.901H121.72V255.186Z" fill="#F3F2F1"/>
<path d="M158.524 255.186H147.679V191.779H158.524V255.186Z" fill="#F3F2F1"/>
<path d="M231.286 255.186H220.441V209.091H231.286V255.186Z" fill="#E7E8E5"/>
<path d="M212.885 255.186H202.04V217.938H212.885V255.186Z" fill="#F3F2F1"/>
<path d="M269.774 255.186H258.929V184.492H269.774V255.186Z" fill="#E7E8E5"/>
<path d="M251.373 255.186H240.526V217.938H251.373V255.186Z" fill="#F3F2F1"/>
<path d="M288.196 255.186H277.351V217.938H288.196V255.186Z" fill="#F3F2F1"/>
<path d="M195.327 255.186H184.482V201.493H195.327V255.186Z" fill="#E7E8E5"/>
<path d="M118.194 184.901C118.194 186.432 116.945 187.674 115.405 187.674C113.864 187.674 112.616 186.432 112.616 184.901C112.616 183.371 113.864 182.13 115.405 182.13C116.945 182.13 118.194 183.371 118.194 184.901Z" fill="#DADBD8"/>
<path d="M115.405 180.271C112.836 180.271 110.747 182.348 110.747 184.9C110.747 187.453 112.836 189.529 115.405 189.529C117.973 189.529 120.063 187.453 120.063 184.9C120.063 182.348 117.973 180.271 115.405 180.271ZM115.405 189.936C112.611 189.936 110.338 187.677 110.338 184.9C110.338 182.124 112.611 179.865 115.405 179.865C118.198 179.865 120.471 182.124 120.471 184.9C120.471 187.677 118.198 189.936 115.405 189.936Z" fill="#DADBD8"/>
<path d="M117.631 177.834L117.487 172.376L118.858 172.399L116.297 169.288L113.736 172.427L115.156 172.436L115.297 177.82L117.631 177.834Z" fill="#E7E8E5"/>
<path d="M27.3777 218.993C27.3777 220.525 26.1285 221.766 24.5885 221.766C23.048 221.766 21.7988 220.525 21.7988 218.993C21.7988 217.463 23.048 216.222 24.5885 216.222C26.1285 216.222 27.3777 217.463 27.3777 218.993Z" fill="#DADBD8"/>
<path d="M24.5875 214.468C22.0188 214.468 19.929 216.545 19.929 219.097C19.929 221.65 22.0188 223.727 24.5875 223.727C27.1559 223.727 29.2459 221.65 29.2459 219.097C29.2459 216.545 27.1559 214.468 24.5875 214.468ZM24.5875 224.133C21.7937 224.133 19.521 221.874 19.521 219.097C19.521 216.322 21.7937 214.062 24.5875 214.062C27.3809 214.062 29.6541 216.322 29.6541 219.097C29.6541 221.874 27.3809 224.133 24.5875 224.133Z" fill="#DADBD8"/>
<path d="M22.9029 201.801L23.052 207.476L21.626 207.453L24.2893 210.688L26.952 207.423L25.4757 207.414L25.3286 201.816L22.9029 201.801Z" fill="#E7E8E5"/>
<path d="M170.518 189.938L170.666 195.613L169.241 195.589L171.904 198.824L174.567 195.56L173.09 195.551L172.943 189.953L170.518 189.938Z" fill="#E7E8E5"/>
<path d="M204.113 240.209L171.445 209.755C150.748 199.824 118.791 185.187 115.064 185.393C110.889 185.638 31.666 216.686 1.49189 228.629L0.897461 227.148C5.33738 225.39 109.682 184.11 114.969 183.801L115.084 183.798C120.882 183.798 166.981 205.842 172.254 208.373L172.453 208.508L204.377 238.269C210.433 235.092 245.152 216.888 245.743 216.628C245.949 216.537 246.5 216.315 294.242 216.318V217.914C275.929 217.9 248.401 217.954 246.309 218.128C244.497 219.041 218.443 232.696 204.62 239.945L204.113 240.209Z" fill="#DADBD8"/>
<path d="M174.693 208.411C174.693 209.943 173.444 211.184 171.904 211.184C170.363 211.184 169.114 209.943 169.114 208.411C169.114 206.881 170.363 205.64 171.904 205.64C173.444 205.64 174.693 206.881 174.693 208.411Z" fill="#DADBD8"/>
<path d="M171.904 203.886C169.336 203.886 167.246 205.962 167.246 208.515C167.246 211.068 169.336 213.145 171.904 213.145C174.473 213.145 176.563 211.068 176.563 208.515C176.563 205.962 174.473 203.886 171.904 203.886ZM171.904 213.551C169.111 213.551 166.837 211.292 166.837 208.515C166.837 205.739 169.111 203.48 171.904 203.48C174.698 203.48 176.971 205.739 176.971 208.515C176.971 211.292 174.698 213.551 171.904 213.551Z" fill="#DADBD8"/>
<path d="M248.856 216.677C248.856 218.208 247.607 219.449 246.067 219.449C244.527 219.449 243.277 218.208 243.277 216.677C243.277 215.146 244.527 213.905 246.067 213.905C247.607 213.905 248.856 215.146 248.856 216.677Z" fill="#DADBD8"/>
<path d="M246.067 212.154C243.498 212.154 241.409 214.23 241.409 216.783C241.409 219.336 243.498 221.413 246.067 221.413C248.635 221.413 250.725 219.336 250.725 216.783C250.725 214.23 248.635 212.154 246.067 212.154ZM246.067 221.818C243.273 221.818 241 219.559 241 216.783C241 214.007 243.273 211.748 246.067 211.748C248.861 211.748 251.133 214.007 251.133 216.783C251.133 219.559 248.861 221.818 246.067 221.818Z" fill="#DADBD8"/>
<path d="M244.564 200.204L244.714 205.879L243.288 205.856L245.951 209.09L248.614 205.826L247.137 205.817L246.99 200.218L244.564 200.204Z" fill="#E7E8E5"/>
<path d="M285.601 147.344C285.498 140.919 280.178 135.776 273.744 135.879C267.308 135.982 262.157 141.293 262.26 147.717C262.364 154.143 267.683 159.286 274.118 159.183C280.553 159.079 285.705 153.768 285.601 147.344ZM249.522 147.922C249.306 134.485 260.08 123.377 273.539 123.162C286.997 122.946 298.123 133.703 298.339 147.139C298.555 160.576 287.781 171.683 274.323 171.899C260.864 172.115 249.739 161.359 249.522 147.922Z" fill="#F3F2F1"/>
<path d="M249.522 147.922C249.307 134.485 260.08 123.378 273.539 123.162L273.744 135.879C267.308 135.983 262.157 141.294 262.26 147.718C262.364 154.143 267.683 159.285 274.118 159.183L274.323 171.899C260.864 172.114 249.739 161.359 249.522 147.922Z" fill="#DADBD8"/>
<path d="M271.347 121.207C287.092 120.954 299.654 133.098 299.907 148.818L285.005 149.057C284.883 141.541 279.129 136.808 271.6 136.93L271.347 121.207Z" fill="#E7E8E5"/>
<path d="M71.0112 39.8066H60.0156V5.67899H71.0112V39.8066Z" fill="#E7E8E5"/>
<path d="M87.4285 39.8066H76.4331V13.4751H87.4285V39.8066Z" fill="#E7E8E5"/>
<path d="M102.627 39.8066H91.6318V24.1694H102.627V39.8066Z" fill="#E7E8E5"/>
<path d="M197.116 26.3526V7.22026C207.677 7.22026 216.367 15.8567 216.367 26.3526C216.367 36.848 207.677 45.4844 197.116 45.4844C186.722 45.4844 178.11 37.1208 177.87 26.795L197.116 26.3526Z" fill="#E7E8E5"/>
<path d="M193.537 19.1243L174.286 19.5566C174.286 14.5743 176.245 9.35224 179.74 5.78143C183.237 2.21123 188.228 0.135214 193.239 -0.00056076L193.537 19.1243Z" fill="#F3F2F1"/>
<path d="M24.1987 132.62L37.6743 122.005C43.5345 129.351 42.2731 140.188 34.8805 146.012C27.4881 151.836 16.5827 150.582 10.7228 143.236C4.86304 135.889 6.12396 125.051 13.5166 119.228C14.6937 118.301 15.9881 117.531 17.3661 116.938L24.1987 132.62Z" fill="#F3F2F1"/>
<path d="M20.543 115.199L25.2822 127.588L35.3118 119.12C35.3118 119.12 29.9996 113.683 20.543 115.199Z" fill="#DADBD8"/>
<path d="M282.001 270.819C282.001 270.909 222.778 270.982 149.741 270.982C76.6774 270.982 17.4673 270.909 17.4673 270.819C17.4673 270.73 76.6774 270.656 149.741 270.656C222.778 270.656 282.001 270.73 282.001 270.819Z" fill="#17282F"/>
<path d="M35.1042 47.4118C32.4741 41.4264 25.4594 38.6921 19.4359 41.3056C13.4126 43.9192 10.6619 50.8906 13.2916 56.8766C15.1957 61.2101 19.3985 63.8374 23.8591 63.9669C24.4233 65.2514 25.0603 66.7012 25.0603 66.7012L34.6194 62.5535C34.6194 62.5535 34.0026 60.9936 33.4222 59.6146C36.1434 56.2903 36.9485 51.6101 35.1042 47.4118Z" fill="#F87C14"/>
<path d="M31.1423 64.0065C31.1423 64.0065 31.1241 63.9602 31.0946 63.8683C31.0641 63.77 31.0218 63.6336 30.9674 63.4578C30.8587 63.0961 30.6976 62.5631 30.5082 61.8711C30.3196 61.1797 30.0992 60.3287 29.9069 59.327C29.72 58.3259 29.5559 57.1684 29.5715 55.8813C29.5798 55.2381 29.6207 54.5655 29.7559 53.8703C29.8312 53.5262 29.9569 53.1683 30.209 52.8811C30.4601 52.5933 30.8568 52.4206 31.2591 52.4657C31.4583 52.4882 31.661 52.5833 31.793 52.7447C31.9302 52.9005 32.0023 53.1139 31.9917 53.3204C31.9741 53.7371 31.7576 54.115 31.4664 54.4078C30.8563 54.9709 29.9984 55.2681 29.129 55.2318C28.2572 55.1974 27.3892 54.7795 26.7946 54.0918C26.5034 53.7483 26.2491 53.3435 26.181 52.8692C26.0991 52.4043 26.345 51.85 26.8408 51.6861C27.0848 51.601 27.3698 51.6685 27.5641 51.8281C27.7626 51.9839 27.8964 52.2123 27.945 52.4582C28.0388 52.9562 27.859 53.4367 27.6517 53.8678C27.2127 54.7307 26.4139 55.4502 25.4314 55.7036C24.4555 55.9545 23.3726 55.7105 22.6363 55.0566C22.262 54.74 22 54.2727 21.9857 53.7752C21.9803 53.5293 22.061 53.2628 22.2533 53.0882C22.4383 52.9068 22.7071 52.8386 22.9518 52.8586C23.1982 52.8767 23.4373 52.9794 23.621 53.1345C23.8084 53.2872 23.9498 53.483 24.062 53.687C24.2791 54.0981 24.4035 54.5461 24.4402 54.9972C24.5196 55.8982 24.246 56.8067 23.7014 57.4818C23.1618 58.1607 22.3876 58.6137 21.58 58.7695C21.1816 58.8477 20.7465 58.8646 20.3709 58.6782C20.0038 58.4967 19.7366 58.0725 19.8518 57.6602C19.9113 57.4599 20.0628 57.3016 20.2374 57.2097C20.413 57.1183 20.6093 57.0764 20.8016 57.0845C21.1953 57.1027 21.5244 57.3154 21.7961 57.5381C22.3286 58.0074 22.7993 58.4829 23.2619 58.9316C25.0939 60.7379 26.5034 62.269 27.4655 63.3364C27.9468 63.8708 28.3137 64.2912 28.5616 64.5765C28.6812 64.7173 28.7739 64.8262 28.8408 64.9044C28.9027 64.9789 28.9318 65.0195 28.9318 65.0195C28.9318 65.0195 28.8951 64.9851 28.8292 64.9144C28.7601 64.8381 28.6637 64.7323 28.5395 64.5966C28.2801 64.3119 27.905 63.9014 27.4234 63.3746C26.4488 62.319 25.0282 60.7992 23.1894 59.0048C22.7275 58.5605 22.2472 58.0812 21.7243 57.6245C21.4607 57.4086 21.1456 57.214 20.7974 57.2009C20.4587 57.1852 20.0684 57.3554 19.9681 57.6939C19.8709 58.0293 20.1019 58.4097 20.4272 58.5668C20.7622 58.7332 21.171 58.7207 21.5556 58.6437C22.332 58.4923 23.0785 58.0531 23.5956 57.3986C24.1176 56.7498 24.3787 55.8757 24.301 55.0091C24.2661 54.5761 24.1438 54.1438 23.937 53.754C23.7342 53.3704 23.3852 53.0282 22.941 53.0006C22.7268 52.9831 22.5035 53.0426 22.3524 53.1921C22.1948 53.3354 22.126 53.5544 22.1299 53.7734C22.1444 54.2188 22.3792 54.6512 22.7331 54.9484C23.4289 55.5678 24.467 55.8025 25.3947 55.5628C26.33 55.3226 27.0996 54.6318 27.5216 53.8028C27.7235 53.3873 27.8883 52.9249 27.8034 52.4857C27.7614 52.2717 27.6438 52.0727 27.4749 51.9401C27.3081 51.8056 27.0836 51.7536 26.8849 51.8218C26.6852 51.8856 26.5179 52.0433 26.419 52.231C26.3175 52.4181 26.2929 52.6384 26.3214 52.8511C26.3814 53.2809 26.6214 53.6726 26.9006 54.0011C27.4689 54.6612 28.3015 55.0642 29.1352 55.098C29.9664 55.1367 30.8007 54.8464 31.3757 54.3171C31.6496 54.0455 31.8515 53.6851 31.867 53.3179C31.8926 52.9487 31.6012 52.6165 31.2441 52.5852C30.8904 52.5432 30.5228 52.6984 30.297 52.9581C30.0633 53.2215 29.9406 53.56 29.8658 53.8947C29.7311 54.573 29.6858 55.2462 29.6748 55.8826C29.6528 57.1602 29.8085 58.3134 29.9873 59.3126C30.1713 60.3118 30.3833 61.1634 30.5631 61.8567C30.7497 62.5437 30.8954 63.0793 30.9955 63.4497C31.0439 63.6274 31.0818 63.765 31.1088 63.8639C31.1334 63.9577 31.1423 64.0065 31.1423 64.0065Z" fill="#17282F"/>
<path d="M34.6568 64.6307L26.4497 68.1922C26.1095 68.3398 25.7133 68.1847 25.5648 67.8468C25.416 67.5089 25.5714 67.1153 25.9118 66.9677L34.1187 63.4063C34.4591 63.2586 34.8553 63.4131 35.0039 63.7516C35.1524 64.0895 34.997 64.4831 34.6568 64.6307Z" fill="#17282F"/>
<path d="M34.8916 65.1634L26.6841 68.7248C26.344 68.8725 26.1885 69.266 26.3371 69.6039C26.4856 69.9424 26.8818 70.097 27.2219 69.9487L28.1231 69.5582L30.3115 71.3002C30.5618 71.4991 30.9027 71.5442 31.1966 71.4165L34.1294 70.1445C34.426 70.0156 34.6254 69.7322 34.6456 69.4112L34.8168 66.6538L35.4292 66.3879C35.7695 66.2402 35.925 65.8466 35.7762 65.5088C35.6276 65.1703 35.2314 65.0157 34.8916 65.1634Z" fill="#17282F"/>
<path d="M17.4612 59.1777C17.3476 59.1777 17.1353 59.0914 16.8473 58.9118C16.4636 58.6734 15.9605 58.2511 15.4374 57.6317C14.9135 57.0135 14.3907 56.1832 13.9991 55.1727C13.6061 54.1653 13.3628 52.9721 13.3858 51.7082L14.158 48.2763C14.5958 47.2852 15.1565 46.4793 15.7079 45.8862C16.2593 45.2905 16.7814 44.8913 17.1754 44.6711C17.4624 44.5097 17.6742 44.4327 17.7905 44.4327C17.834 44.4327 17.8643 44.4434 17.88 44.4646C18.0136 44.6411 17.3151 45.2912 16.5259 46.5144C15.7344 47.7195 14.9 49.589 14.8471 51.7414C14.8006 53.8956 15.5481 55.8009 16.2831 57.041C17.0153 58.298 17.6828 58.9794 17.5411 59.1496C17.5259 59.1684 17.4991 59.1777 17.4612 59.1777Z" fill="#F46F77"/>
<path d="M19.6488 44.0508C19.3959 44.0508 19.1953 43.9845 19.0905 43.833C18.9806 43.6654 19.0238 43.4176 19.2078 43.1592C19.3901 42.902 19.7155 42.638 20.1296 42.4609C20.4508 42.3233 20.7732 42.2601 21.0479 42.2601C21.1273 42.2601 21.2029 42.2657 21.2732 42.2757C21.5885 42.3208 21.7993 42.4596 21.846 42.6536L20.7075 43.7955C20.3293 43.9557 19.9516 44.0508 19.6488 44.0508Z" fill="#F46F77"/>
<path d="M34.5778 69.6723C34.5771 69.6968 34.3294 69.693 33.9381 69.7449C33.5473 69.7956 33.0134 69.9207 32.4694 70.1742C31.9263 70.4301 31.4891 70.7598 31.2009 71.027C30.9119 71.2941 30.7577 71.4869 30.7382 71.4718C30.7252 71.4631 30.8511 71.2466 31.1283 70.9538C31.404 70.6616 31.8464 70.3068 32.4069 70.0428C32.9681 69.7812 33.525 69.668 33.9273 69.6423C34.3314 69.616 34.5793 69.6573 34.5778 69.6723Z" fill="#33535F"/>
<path d="M34.8467 66.6755C34.8632 66.7118 33.3922 67.3856 31.5622 68.1796C29.7319 68.9736 28.2354 69.5881 28.2189 69.5512C28.2029 69.5142 29.6734 68.841 31.5039 68.0464C33.3337 67.2524 34.8307 66.6386 34.8467 66.6755Z" fill="#33535F"/>
<path d="M34.7579 67.8648C34.7665 67.8823 34.4724 68.0487 33.9854 68.2971C33.499 68.5455 32.8194 68.874 32.0594 69.2169C31.299 69.5598 30.6023 69.8514 30.0937 70.0509C29.5853 70.2518 29.2651 70.3619 29.2575 70.3438C29.2498 70.325 29.5558 70.1811 30.0531 69.9565C30.5915 69.7156 31.2597 69.4159 31.9992 69.0849C32.7365 68.7501 33.4035 68.4479 33.9404 68.2045C34.4382 67.9805 34.7488 67.8466 34.7579 67.8648Z" fill="#33535F"/>
<path d="M175.455 173.852H127.219C125.374 173.852 123.878 172.366 123.878 170.531V141.18C123.878 139.347 125.374 137.86 127.219 137.86H175.455C177.301 137.86 178.797 139.347 178.797 141.18V170.531C178.797 172.366 177.301 173.852 175.455 173.852Z" fill="white"/>
<path d="M175.456 173.853C175.456 173.843 175.611 173.847 175.908 173.804C176.202 173.763 176.649 173.661 177.148 173.358C177.644 173.064 178.193 172.542 178.513 171.756C178.863 170.969 178.713 169.958 178.74 168.854C178.728 164.406 178.713 157.986 178.693 150.055C178.689 148.071 178.686 145.992 178.683 143.826C178.682 143.284 178.682 142.737 178.681 142.186C178.667 141.633 178.716 141.067 178.613 140.54C178.395 139.478 177.59 138.515 176.508 138.161C175.973 137.955 175.395 137.985 174.793 137.985C174.196 137.986 173.595 137.987 172.988 137.987C171.775 137.988 170.542 137.989 169.292 137.99C166.791 137.992 164.216 137.995 161.577 137.997C151.017 138 139.409 138.004 127.224 138.008C126.495 138.013 125.772 138.26 125.21 138.717C124.649 139.172 124.248 139.814 124.098 140.514C124.022 140.864 124.024 141.219 124.026 141.597V142.713C124.026 143.456 124.026 144.196 124.026 144.933C124.024 147.882 124.024 150.789 124.023 153.644C124.02 159.354 124.017 164.864 124.014 170.111C123.992 170.771 124.056 171.389 124.352 171.952C124.627 172.509 125.074 172.977 125.606 173.285C126.142 173.598 126.754 173.741 127.375 173.722C128.009 173.723 128.639 173.723 129.264 173.724C131.766 173.727 134.194 173.729 136.542 173.731C141.238 173.738 145.611 173.744 149.605 173.749C157.586 173.769 164.046 173.785 168.52 173.796C170.747 173.808 172.478 173.817 173.663 173.824C174.244 173.83 174.69 173.835 175 173.838C175.302 173.843 175.456 173.853 175.456 173.853C175.456 173.853 175.302 173.863 175 173.868C174.69 173.872 174.244 173.877 173.663 173.883C172.478 173.889 170.747 173.899 168.52 173.911C164.046 173.921 157.586 173.937 149.605 173.957C145.611 173.962 141.238 173.968 136.542 173.975C134.194 173.978 131.766 173.98 129.264 173.983C128.639 173.983 128.009 173.984 127.375 173.984C126.729 174.006 126.047 173.852 125.473 173.514C124.894 173.182 124.412 172.675 124.111 172.071C123.789 171.477 123.718 170.756 123.742 170.111C123.74 164.864 123.737 159.354 123.733 153.644C123.733 150.789 123.732 147.882 123.731 144.933C123.731 144.196 123.731 143.456 123.731 142.713V141.597C123.73 141.232 123.726 140.835 123.81 140.452C123.974 139.687 124.412 138.986 125.024 138.488C125.637 137.99 126.429 137.719 127.224 137.714C139.409 137.718 151.017 137.722 161.577 137.726C164.216 137.728 166.791 137.73 169.292 137.732C170.542 137.733 171.775 137.734 172.988 137.736C173.595 137.736 174.196 137.737 174.793 137.738C175.377 137.739 176.013 137.708 176.588 137.931C177.752 138.316 178.614 139.351 178.846 140.493C178.955 141.076 178.9 141.636 178.914 142.186C178.912 142.737 178.912 143.284 178.911 143.826C178.908 145.992 178.904 148.071 178.901 150.055C178.881 157.986 178.866 164.406 178.854 168.854C178.852 169.408 178.85 169.932 178.847 170.424C178.851 170.92 178.762 171.389 178.594 171.789C178.258 172.592 177.688 173.118 177.178 173.409C176.666 173.709 176.211 173.802 175.912 173.834C175.611 173.867 175.456 173.853 175.456 173.853Z" fill="#17282F"/>
<path d="M150.599 158.76H148.492V167.094H150.599V158.76Z" fill="#F2575D"/>
<path d="M132.998 157.552H130.891V167.094H132.998V157.552Z" fill="#F2575D"/>
<path d="M137.397 155.563H135.29V167.094H137.397V155.563Z" fill="#F2575D"/>
<path d="M141.799 156.195H139.691V167.094H141.799V156.195Z" fill="#F2575D"/>
<path d="M146.199 152.509H144.092V167.094H146.199V152.509Z" fill="#F2575D"/>
<path d="M155 152.58H152.892V167.094H155V152.58Z" fill="#F2575D"/>
<path d="M159.401 157.347H157.293V167.094H159.401V157.347Z" fill="#F2575D"/>
<path d="M163.801 153.219H161.693V167.094H163.801V153.219Z" fill="#F2575D"/>
<path d="M168.201 150.094H166.093V167.094H168.201V150.094Z" fill="#F2575D"/>
<path d="M172.602 153.148H170.495V167.094H172.602V153.148Z" fill="#F2575D"/>
<path d="M146.517 144.93C146.517 145.021 142.776 145.094 138.161 145.094C133.546 145.094 129.805 145.021 129.805 144.93C129.805 144.841 133.546 144.768 138.161 144.768C142.776 144.768 146.517 144.841 146.517 144.93Z" fill="#17282F"/>
<path d="M263.589 32.9809H289.966C291.298 32.9809 292.379 34.0546 292.379 35.3791V61.5912C292.379 62.9158 291.298 63.9895 289.966 63.9895H271.717L264.377 69.9961V63.9895H263.589C262.257 63.9895 261.176 62.9158 261.176 61.5912V35.3791C261.176 34.0546 262.257 32.9809 263.589 32.9809Z" fill="white"/>
<path d="M272.42 38.5379C272.42 38.5929 274.564 38.6367 277.207 38.6367C279.852 38.6367 281.996 38.5929 281.996 38.5379C281.996 38.4828 279.852 38.4384 277.207 38.4384C274.564 38.4384 272.42 38.4828 272.42 38.5379Z" fill="#17282F"/>
<path d="M263.589 32.9829C263.589 32.9829 263.534 32.981 263.426 32.9842C263.318 32.9873 263.156 33.0011 262.95 33.0561C262.547 33.1562 261.914 33.4434 261.481 34.1623C261.267 34.5133 261.132 34.9751 261.142 35.4807C261.14 35.9812 261.139 36.5268 261.136 37.1162C261.133 38.2963 261.129 39.6509 261.124 41.1657C261.118 44.1972 261.112 47.87 261.104 52.0696C261.101 54.1707 261.098 56.4025 261.095 58.7532C261.094 59.3408 261.094 59.9352 261.093 60.5377C261.093 60.8387 261.092 61.1415 261.092 61.4456C261.088 61.7503 261.116 62.0775 261.221 62.3778C261.421 62.9848 261.873 63.5129 262.459 63.8069C262.751 63.9552 263.075 64.0453 263.406 64.0691C263.738 64.0879 264.052 64.0754 264.377 64.0791L264.289 63.9915C264.288 65.8848 264.287 67.9146 264.285 69.9981V70.1934L264.437 70.0695C266.784 68.1505 269.246 66.1383 271.78 64.066L271.717 64.0885C276.238 64.0891 280.984 64.0897 285.856 64.0904C286.969 64.0904 288.075 64.0904 289.173 64.0904L289.997 64.0891C290.282 64.0879 290.565 64.0309 290.832 63.9352C291.367 63.7431 291.827 63.3633 292.115 62.8815C292.26 62.6419 292.366 62.3785 292.425 62.1051C292.482 61.8304 292.478 61.5476 292.478 61.2854C292.478 60.7511 292.478 60.2186 292.477 59.6886C292.477 58.6287 292.477 57.5769 292.477 56.5352C292.475 52.3662 292.472 48.3442 292.47 44.5131C292.469 42.5979 292.468 40.7296 292.467 38.9151C292.465 38.0078 292.465 37.1137 292.464 36.2334C292.452 35.7935 292.494 35.3599 292.417 34.9107C292.328 34.4727 292.127 34.056 291.827 33.7319C291.533 33.4009 291.15 33.16 290.736 33.0242C290.32 32.8809 289.878 32.9041 289.472 32.9035C288.645 32.9047 287.833 32.9053 287.037 32.9066C285.446 32.9085 283.919 32.911 282.462 32.9128C276.635 32.9266 271.919 32.9366 268.652 32.9447C267.026 32.9523 265.762 32.9591 264.898 32.9635C264.473 32.9673 264.148 32.9704 263.922 32.9729C263.703 32.9767 263.589 32.9829 263.589 32.9829C263.589 32.9829 263.703 32.9904 263.922 32.9929C264.148 32.9954 264.473 32.9992 264.898 33.0036C265.762 33.0073 267.026 33.0136 268.652 33.0217C271.919 33.0292 276.635 33.0398 282.462 33.0536C283.919 33.0555 285.446 33.0574 287.037 33.0599C287.833 33.0605 288.645 33.0618 289.472 33.063C289.889 33.0636 290.299 33.0436 290.686 33.1781C291.072 33.3058 291.43 33.531 291.703 33.8414C291.983 34.1448 292.169 34.5334 292.252 34.9419C292.323 35.3486 292.283 35.7954 292.293 36.2334C292.293 37.1137 292.292 38.0078 292.291 38.9151C292.29 40.7296 292.288 42.5979 292.286 44.5131C292.285 48.3442 292.283 52.3662 292.281 56.5352C292.28 57.5769 292.28 58.6287 292.28 59.6886C292.28 60.2186 292.28 60.7511 292.28 61.2854C292.28 61.5563 292.283 61.8122 292.23 62.065C292.176 62.3165 292.079 62.5587 291.945 62.7796C291.68 63.2232 291.255 63.5729 290.763 63.7494C290.276 63.9465 289.726 63.8808 289.173 63.892C288.075 63.892 286.969 63.892 285.856 63.892C280.984 63.8927 276.238 63.8939 271.717 63.8945H271.683L271.656 63.9164C269.123 65.9912 266.664 68.0053 264.318 69.9268L264.471 69.9981C264.469 67.9146 264.468 65.8848 264.466 63.9915V63.9045L264.377 63.9033C264.057 63.8995 263.726 63.912 263.419 63.8958C263.111 63.8739 262.81 63.7907 262.538 63.653C261.992 63.3802 261.569 62.889 261.382 62.3247C261.284 62.0406 261.258 61.7497 261.261 61.4456C261.261 61.1415 261.26 60.8387 261.26 60.5377C261.26 59.9352 261.259 59.3408 261.258 58.7532C261.255 56.4025 261.252 54.1707 261.25 52.0696C261.242 47.87 261.235 44.1972 261.229 41.1657C261.224 39.6509 261.221 38.2963 261.218 37.1162C261.25 35.9487 261.063 34.8938 261.53 34.1899C261.944 33.4828 262.561 33.1906 262.957 33.0836C263.366 32.9754 263.591 32.9967 263.589 32.9829Z" fill="#17282F"/>
<path d="M272.122 36.9473H272.19C272.732 36.9473 273.171 36.5105 273.171 35.9718V30.9194C273.171 30.3807 272.732 29.9439 272.19 29.9439H272.122C271.58 29.9439 271.141 30.3807 271.141 30.9194V35.9718C271.141 36.5105 271.58 36.9473 272.122 36.9473Z" fill="#DADBD8"/>
<path d="M210.613 116.22L212.877 119.033V114.192H220.011C220.011 114.192 220.803 125.279 220.634 127.641C220.574 128.468 220.21 129.833 219.761 131.258C218.83 134.211 215.079 135.134 212.846 132.978C212.095 132.254 211.332 131.43 210.613 130.511C207.442 126.46 202.175 116.592 202.175 116.592L207.669 113.294L210.613 116.22Z" fill="#F8A58D"/>
<path d="M210.162 115.7C210.126 115.732 210.494 116.194 211.093 116.937C211.694 117.678 212.529 118.7 213.481 119.804C214.436 120.908 215.335 121.882 216.034 122.541C216.728 123.206 217.219 123.551 217.246 123.517C217.277 123.479 216.848 123.076 216.203 122.376C215.553 121.681 214.688 120.689 213.736 119.587C211.849 117.371 210.243 115.626 210.162 115.7Z" fill="#F68260"/>
<path d="M249.004 52.9602L249.325 78.713C249.38 83.0922 248.56 89.5362 241.589 89.3065C235.556 88.6539 233.956 82.9783 233.908 78.8913C233.886 76.9529 233.863 75.3361 233.848 75.1371C233.848 75.1371 227.244 74.6015 226.686 68.1188C226.417 64.9866 226.39 58.4888 226.435 52.6104C226.483 46.2966 231.41 41.082 237.746 40.6222L238.375 40.5765C245.198 40.4776 249.093 46.1808 249.004 52.9602Z" fill="#F8A58D"/>
<path d="M233.848 75.1372C233.848 75.1372 237.981 75.0783 242.166 72.0225C242.166 72.0225 240.441 76.9122 233.883 76.8009L233.848 75.1372Z" fill="#F68260"/>
<path d="M237.588 55.2665C237.718 55.3979 238.471 54.7947 239.564 54.7659C240.655 54.7209 241.473 55.2696 241.588 55.1294C241.644 55.0669 241.51 54.8278 241.153 54.5788C240.803 54.3311 240.209 54.0977 239.528 54.1208C238.848 54.1452 238.282 54.4168 237.961 54.6877C237.632 54.9605 237.525 55.2076 237.588 55.2665Z" fill="#17282F"/>
<path d="M236.99 57.8893C237.008 58.3536 237.418 58.7215 237.906 58.7127C238.393 58.7027 238.774 58.3204 238.757 57.8562C238.739 57.3919 238.329 57.024 237.842 57.0328C237.354 57.0421 236.973 57.4257 236.99 57.8893Z" fill="#17282F"/>
<path d="M234.851 62.8219C234.852 62.765 234.22 62.703 233.2 62.648C232.941 62.6405 232.696 62.6073 232.64 62.4371C232.566 62.2569 232.652 61.9747 232.755 61.6694C232.951 61.0362 233.155 60.3717 233.371 59.6753C234.22 56.8391 234.814 54.514 234.699 54.4808C234.584 54.4477 233.802 56.7202 232.952 59.5571C232.75 60.256 232.555 60.923 232.37 61.5599C232.295 61.8565 232.152 62.1969 232.31 62.5691C232.393 62.7543 232.592 62.8789 232.759 62.9108C232.927 62.9489 233.071 62.9414 233.199 62.9396C234.22 62.9202 234.851 62.8789 234.851 62.8219Z" fill="#17282F"/>
<path d="M238.054 50.6447C238.159 50.8856 239.034 50.7041 240.082 50.7579C241.131 50.7892 241.991 51.0408 242.112 50.8093C242.166 50.6985 242.003 50.4764 241.647 50.2618C241.294 50.0472 240.741 49.8588 240.113 49.8325C239.485 49.8081 238.921 49.9514 238.554 50.1366C238.185 50.3218 238.007 50.5302 238.054 50.6447Z" fill="#17282F"/>
<path d="M227.674 52.2704C227.788 52.4668 228.641 52.2491 229.674 52.2172C230.708 52.1671 231.566 52.3173 231.675 52.1121C231.723 52.0138 231.552 51.8374 231.192 51.6816C230.835 51.5258 230.283 51.4069 229.663 51.4307C229.044 51.4563 228.496 51.6184 228.143 51.803C227.788 51.9869 227.623 52.1765 227.674 52.2704Z" fill="#17282F"/>
<path d="M248.823 57.8028C248.932 57.7465 253.213 56.1585 253.397 60.6046C253.58 65.0514 249.05 64.3169 249.037 64.1899C249.023 64.0628 248.823 57.8028 248.823 57.8028Z" fill="#F8A58D"/>
<path d="M250.334 62.4493C250.354 62.4342 250.415 62.5006 250.549 62.555C250.68 62.6082 250.903 62.6401 251.132 62.5437C251.597 62.3516 251.965 61.5896 251.953 60.7874C251.948 60.3826 251.847 60.0003 251.69 59.6874C251.539 59.3677 251.319 59.1494 251.079 59.1168C250.84 59.0724 250.677 59.2207 250.627 59.3477C250.573 59.4747 250.605 59.5623 250.581 59.5711C250.569 59.5823 250.483 59.5004 250.511 59.3152C250.525 59.2263 250.573 59.1193 250.675 59.0292C250.779 58.9385 250.935 58.8878 251.102 58.8985C251.448 58.9085 251.771 59.2113 251.944 59.5548C252.137 59.8996 252.259 60.3282 252.266 60.783C252.274 61.6803 251.847 62.5375 251.208 62.7496C250.896 62.8441 250.63 62.7608 250.49 62.6607C250.347 62.5569 250.32 62.4586 250.334 62.4493Z" fill="#F68260"/>
<path d="M235.906 65.9004C235.857 65.7884 236.734 65.5268 237.349 64.7103C237.658 64.308 237.836 63.8694 237.969 63.549C238.099 63.2262 238.198 63.0235 238.247 63.0385C238.291 63.0522 238.281 63.2706 238.21 63.6222C238.134 63.9695 237.982 64.4663 237.633 64.9231C237.29 65.3842 236.829 65.6601 236.49 65.7921C236.148 65.9298 235.918 65.9385 235.906 65.9004Z" fill="#17282F"/>
<path d="M217.773 46.791C217.843 46.5301 218.035 46.3155 218.269 46.1778C218.779 45.8781 219.368 45.9181 219.936 45.9094C221.667 45.8812 223.386 45.3563 224.842 44.4271C225.524 43.4498 226.292 42.5313 227.125 41.6772C229.102 39.6512 230.73 38.2722 232.413 37.599C234.589 36.7286 238.23 36.3751 240.499 36.967C242.77 37.5589 244.808 39.3884 245.123 41.6997C246.396 40.6304 248.307 40.6392 249.858 41.2586L249.896 41.2417C251.623 41.8537 252.604 43.6663 253.113 45.4157C253.623 47.1658 253.84 49.0366 254.772 50.6052C254.967 50.9331 255.199 51.326 255.028 51.6676C254.897 51.931 254.559 52.0399 254.266 51.9967C253.973 51.9542 253.714 51.7934 253.462 51.6357C253.656 52.0937 253.848 52.5523 254.04 53.0103C253.416 53.1186 252.769 53.0685 252.162 52.8858C251.796 54.522 251.358 56.3909 250.934 57.4997C250.212 57.4978 249.551 57.5491 249.107 57.9464C248.502 58.487 248.232 59.5038 247.227 59.1177C246.715 58.9212 246.248 57.8551 246.078 57.337C244.942 53.9013 244.564 50.221 244.975 46.627C244.26 45.8693 243.397 45.2505 242.448 44.8144L242.526 44.8839C240.702 44.2544 238.64 43.6356 236.91 44.4859C235.568 45.146 234.78 46.5294 233.777 47.6338C231.875 49.7261 229.311 50.8636 226.477 50.9844C226.381 52.8101 226.535 55.3898 226.438 57.2156L224.893 54.2911L224.892 54.3061C224.765 54.0922 224.661 53.8763 224.559 53.6598L224.525 53.5941V53.586C224.363 53.2387 224.211 52.8908 224.008 52.5473L223.991 52.563C222.995 53.4358 221.528 52.1018 222.314 51.0382C222.47 50.8273 222.655 50.639 222.868 50.4838C222.414 50.9087 221.735 51.112 221.139 50.9293C220.542 50.7472 220.08 50.1478 220.132 49.5296C220.167 49.1079 220.471 48.7306 220.853 48.5642C220.05 48.6255 219.228 48.4516 218.527 48.0542C218.067 47.794 217.617 47.3654 217.773 46.791Z" fill="#17282F"/>
<path d="M243.07 42.4448C243.058 42.4616 243.344 42.6162 243.725 43.0398C244.103 43.4609 244.526 44.1948 244.727 45.1928C244.829 45.689 244.894 46.2439 244.894 46.8409C244.896 47.4378 244.848 48.0778 244.802 48.7517C244.758 49.4256 244.71 50.1376 244.753 50.8778C244.775 51.2482 244.819 51.6243 244.9 52.0003C244.982 52.3695 245.08 52.7705 245.36 53.0884C245.584 53.3474 245.958 53.4619 246.281 53.3956C246.607 53.3387 246.897 53.1659 247.11 52.9307C247.53 52.4439 247.634 51.8257 247.739 51.282L247.602 51.2983C247.826 51.7876 248.055 52.2706 248.395 52.6566C248.731 53.0452 249.194 53.3017 249.665 53.3437C249.9 53.3649 250.136 53.3274 250.338 53.2267C250.543 53.1272 250.693 52.9576 250.795 52.7793C250.892 52.5972 250.943 52.3976 250.934 52.2043C250.923 52.0122 250.847 51.8295 250.724 51.7L250.655 51.7613C251.158 52.3307 251.689 52.6372 252.057 52.8062C252.242 52.8913 252.391 52.942 252.491 52.9745C252.592 53.0039 252.645 53.0164 252.646 53.0127C252.648 53.0083 252.597 52.9876 252.5 52.9501C252.403 52.9107 252.258 52.8525 252.079 52.7624C251.722 52.5809 251.208 52.2668 250.726 51.7012L250.656 51.7625C250.876 51.994 250.888 52.4001 250.7 52.7261C250.604 52.8875 250.467 53.0383 250.286 53.1222C250.106 53.2104 249.891 53.2423 249.677 53.2216C249.243 53.1785 248.811 52.9376 248.498 52.5684C248.177 52.1999 247.955 51.7288 247.734 51.2388L247.64 51.0305L247.596 51.2551C247.493 51.7988 247.38 52.392 246.998 52.8306C246.808 53.0414 246.542 53.1972 246.256 53.2473C245.97 53.3017 245.668 53.2079 245.473 52.9864C245.228 52.7117 245.128 52.3319 245.048 51.9678C244.969 51.6011 244.924 51.2332 244.902 50.8697C244.857 50.1407 244.902 49.4337 244.942 48.7605C244.984 48.0866 245.028 47.4446 245.02 46.8396C245.014 46.2346 244.943 45.6727 244.832 45.1696C244.615 44.1591 244.168 43.4164 243.769 43.0004C243.367 42.5811 243.07 42.4448 243.07 42.4448Z" fill="#33535F"/>
<path d="M222.883 48.7539L222.936 48.7983C222.979 48.8302 223.033 48.8684 223.099 48.916C223.17 48.9691 223.26 49.0311 223.375 49.0924C223.488 49.1562 223.616 49.2344 223.772 49.3001C224.378 49.5861 225.35 49.8708 226.565 49.7994C227.769 49.7319 229.213 49.3083 230.503 48.3541C231.807 47.4224 232.951 46.0497 233.886 44.4786C234.361 43.6933 234.748 42.8881 235.175 42.1447C235.598 41.4008 236.065 40.7138 236.633 40.1707C237.192 39.6251 237.843 39.2215 238.513 39.0363C238.846 38.9381 239.183 38.9155 239.504 38.9231C239.827 38.94 240.131 39.0044 240.412 39.0964C240.974 39.2841 241.428 39.5925 241.773 39.9104C242.118 40.2308 242.35 40.5692 242.509 40.8596C242.806 41.4559 242.822 41.8382 242.846 41.8319L242.841 41.7637C242.832 41.7099 242.822 41.6454 242.81 41.5653C242.778 41.3914 242.703 41.1399 242.562 40.8327C242.409 40.5336 242.179 40.1826 241.832 39.8491C241.485 39.5181 241.024 39.1946 240.447 38.995C240.158 38.8968 239.844 38.8267 239.511 38.806C239.179 38.7948 238.825 38.8161 238.479 38.9155C237.783 39.102 237.11 39.515 236.534 40.07C235.952 40.6237 235.473 41.3226 235.044 42.0715C234.613 42.8199 234.226 43.6226 233.755 44.401C232.827 45.9608 231.7 47.3179 230.42 48.2408C229.154 49.1869 227.744 49.6117 226.558 49.6924C225.363 49.7757 224.403 49.5129 223.796 49.2463C223.185 48.9754 222.895 48.7351 222.883 48.7539Z" fill="#33535F"/>
<path d="M222.289 45.9055C222.284 45.9149 222.367 45.9718 222.524 46.0675C222.678 46.1664 222.915 46.2878 223.216 46.4173C223.518 46.5493 223.89 46.6726 224.313 46.7752C224.738 46.8709 225.214 46.9416 225.717 46.9604C226.22 46.9735 226.699 46.9335 227.129 46.8647C227.558 46.789 227.938 46.6901 228.247 46.5775C228.556 46.4674 228.801 46.3616 228.961 46.2721C229.123 46.1864 229.21 46.1351 229.205 46.1257C229.192 46.1001 228.831 46.2847 228.213 46.4755C227.905 46.5737 227.529 46.6601 227.107 46.727C226.684 46.7865 226.214 46.8221 225.722 46.809C225.228 46.7902 224.762 46.7252 224.344 46.6388C223.928 46.5456 223.558 46.4355 223.257 46.3178C222.652 46.0876 222.304 45.8811 222.289 45.9055Z" fill="#33535F"/>
<path d="M227.625 55.2663C227.754 55.3983 228.507 54.7951 229.601 54.7664C230.692 54.7213 231.51 55.27 231.624 55.1299C231.681 55.0673 231.546 54.8283 231.189 54.5793C230.839 54.3315 230.246 54.0981 229.565 54.1213C228.884 54.1457 228.319 54.4172 227.997 54.6888C227.668 54.961 227.562 55.2081 227.625 55.2663Z" fill="#17282F"/>
<path d="M227.855 57.8893C227.872 58.3536 228.282 58.7215 228.77 58.7127C229.257 58.7027 229.638 58.3204 229.621 57.8562C229.604 57.3919 229.193 57.024 228.706 57.0328C228.219 57.0421 227.837 57.4257 227.855 57.8893Z" fill="#17282F"/>
<path d="M261.902 248.924L263.255 265.115L268.041 277.616C268.386 278.516 267.892 279.519 266.964 279.8C266.444 279.957 265.885 279.858 265.455 279.527C262.721 277.424 252.867 269.695 252.757 268.687C252.615 267.383 250.104 251.464 250.104 251.464L261.902 248.924Z" fill="#33535F"/>
<path d="M266.964 279.8L252.486 266.843L252.629 268.043C252.726 268.699 252.737 269.055 253.171 269.464C254.332 270.561 257.725 273.919 265.301 279.801C265.742 280.144 266.433 279.976 266.964 279.8Z" fill="#17282F"/>
<path d="M255.336 261.796C255.773 262.032 255.972 262.631 255.751 263.075C255.53 263.518 254.92 263.725 254.479 263.495C254.038 263.266 253.777 262.555 254.046 262.139C254.315 261.722 255.045 261.519 255.418 261.847" fill="white"/>
<path d="M262.493 273.134C262.59 273.168 262.866 272.283 263.785 271.727C264.685 271.142 265.608 271.276 265.618 271.174C265.627 271.132 265.409 271.028 265.022 271.015C264.64 270.999 264.096 271.11 263.593 271.424C263.091 271.74 262.756 272.181 262.605 272.531C262.451 272.883 262.451 273.125 262.493 273.134Z" fill="#17282F"/>
<path d="M263.883 275.175C263.968 275.237 264.433 274.656 265.249 274.328C266.057 273.982 266.799 274.061 266.814 273.957C266.853 273.87 266.034 273.61 265.11 273.999C264.183 274.379 263.794 275.141 263.883 275.175Z" fill="#17282F"/>
<path d="M260.041 270.586C260.126 270.655 260.838 269.759 262.061 269.138C263.274 268.498 264.421 268.433 264.413 268.325C264.43 268.236 263.198 268.139 261.895 268.822C260.585 269.491 259.959 270.549 260.041 270.586Z" fill="#17282F"/>
<path d="M259.217 265.699C259.27 265.791 260.129 265.324 261.293 265.158C262.455 264.977 263.413 265.175 263.438 265.071C263.474 264.987 262.489 264.613 261.24 264.806C259.989 264.986 259.157 265.629 259.217 265.699Z" fill="#17282F"/>
<path d="M258.699 260.957C258.759 261.044 259.604 260.411 260.845 260.336C262.084 260.235 263.01 260.742 263.058 260.647C263.081 260.61 262.881 260.426 262.483 260.251C262.089 260.075 261.486 259.935 260.819 259.98C260.152 260.029 259.575 260.253 259.21 260.483C258.841 260.713 258.67 260.923 258.699 260.957Z" fill="#17282F"/>
<path d="M260.72 259.437C260.74 259.435 260.754 259.214 260.676 258.824C260.598 258.436 260.423 257.872 260.016 257.274C259.809 256.993 259.585 256.626 259.108 256.461C258.871 256.377 258.539 256.454 258.369 256.689C258.201 256.917 258.169 257.189 258.19 257.445C258.317 258.47 259.308 259.368 260.484 259.393C261.664 259.397 262.649 258.624 263.016 257.69C263.093 257.45 263.132 257.161 262.977 256.902C262.823 256.64 262.481 256.565 262.253 256.629C261.777 256.752 261.502 257.061 261.241 257.295C260.728 257.802 260.432 258.309 260.266 258.667C260.098 259.029 260.056 259.245 260.075 259.252C260.137 259.289 260.401 258.415 261.415 257.479C261.673 257.26 261.968 256.988 262.312 256.919C262.479 256.885 262.632 256.936 262.707 257.066C262.784 257.189 262.771 257.396 262.702 257.585C262.389 258.351 261.487 259.055 260.491 259.036C259.5 259.025 258.628 258.234 258.519 257.411C258.495 257.213 258.527 257.007 258.622 256.877C258.714 256.75 258.871 256.701 259.027 256.746C259.357 256.84 259.606 257.156 259.809 257.42C260.621 258.535 260.649 259.461 260.72 259.437Z" fill="#17282F"/>
<path d="M223.317 249.76L223.921 263.471C223.921 263.471 210.099 268.685 209.962 271.23L236.756 271.023L236.699 249.62L223.317 249.76Z" fill="#33535F"/>
<path d="M232.198 262.253C232.717 262.391 233.08 262.967 232.964 263.489C232.848 264.011 232.26 264.382 231.738 264.254C231.216 264.126 230.76 263.447 230.934 262.942C231.108 262.436 231.821 262.037 232.297 262.286" fill="#DADBD8"/>
<path d="M236.757 271.023L236.667 268.865L211.011 269.872C211.011 269.872 209.822 270.397 209.963 271.23L236.757 271.023Z" fill="#17282F"/>
<path d="M223.486 263.338C223.491 263.468 224.146 263.522 224.793 263.936C225.451 264.332 225.787 264.893 225.907 264.84C226.027 264.814 225.827 264.038 225.034 263.552C224.246 263.058 223.456 263.22 223.486 263.338Z" fill="#17282F"/>
<path d="M220.685 264.515C220.656 264.641 221.224 264.858 221.673 265.404C222.137 265.938 222.254 266.532 222.385 266.525C222.507 266.545 222.592 265.783 222.021 265.114C221.457 264.44 220.687 264.392 220.685 264.515Z" fill="#17282F"/>
<path d="M219.114 267.87C219.233 267.897 219.41 267.247 219.068 266.537C218.732 265.825 218.113 265.549 218.059 265.657C217.986 265.765 218.385 266.145 218.657 266.731C218.942 267.311 218.983 267.859 219.114 267.87Z" fill="#17282F"/>
<path d="M223.697 260.199C223.753 260.316 224.352 260.133 225.092 260.177C225.832 260.206 226.41 260.448 226.477 260.336C226.552 260.241 225.987 259.765 225.114 259.725C224.242 259.678 223.632 260.097 223.697 260.199Z" fill="#17282F"/>
<path d="M218.653 151.31C218.668 152.104 221.766 261.683 221.766 261.683H238.328L241.684 167.946C241.684 167.946 245.601 216.957 245.601 218.016C245.601 219.075 249.057 262.211 249.057 262.211L264.413 260.965L263.406 162.274L261.53 147.805L218.653 151.31Z" fill="#17282F"/>
<path d="M243.407 164.477C243.414 164.5 243.174 164.599 242.734 164.758C242.294 164.918 241.654 165.139 240.864 165.404L240.713 165.455L240.702 165.3C240.611 163.982 240.506 162.219 240.409 160.287C240.304 158.193 240.226 156.296 240.187 154.922C240.167 154.235 240.157 153.679 240.157 153.294C240.157 152.91 240.169 152.697 240.191 152.695C240.214 152.694 240.246 152.906 240.285 153.289C240.323 153.671 240.369 154.226 240.419 154.912C240.517 156.282 240.631 158.178 240.736 160.272C240.834 162.205 240.907 163.968 240.947 165.289L240.786 165.185C241.586 164.946 242.237 164.759 242.691 164.635C243.144 164.513 243.398 164.455 243.407 164.477Z" fill="#33535F"/>
<path d="M242.148 153.082C242.138 153.067 242.202 152.993 242.369 152.938C242.533 152.883 242.808 152.867 243.1 153.002C243.386 153.119 243.702 153.466 243.654 153.902C243.62 154.314 243.303 154.762 242.774 154.872C242.242 154.962 241.768 154.675 241.552 154.322C241.318 153.953 241.402 153.53 241.566 153.282C241.729 153.021 241.953 152.883 242.113 152.826C242.276 152.769 242.374 152.778 242.377 152.796C242.402 152.842 242.004 152.922 241.771 153.383C241.661 153.604 241.628 153.916 241.81 154.175C241.981 154.433 242.354 154.635 242.709 154.568C243.061 154.501 243.32 154.172 243.354 153.874C243.401 153.569 243.208 153.317 242.988 153.192C242.524 152.928 242.16 153.129 242.148 153.082Z" fill="#33535F"/>
<path d="M249.752 154.205C249.662 154.214 249.537 153.739 249.471 153.144C249.407 152.549 249.427 152.061 249.518 152.051C249.607 152.043 249.732 152.517 249.798 153.113C249.862 153.708 249.842 154.196 249.752 154.205Z" fill="#33535F"/>
<path d="M250.9 154.096C250.809 154.096 250.733 153.59 250.73 152.966C250.726 152.341 250.798 151.834 250.888 151.834C250.979 151.833 251.054 152.339 251.058 152.964C251.061 153.588 250.99 154.096 250.9 154.096Z" fill="#33535F"/>
<path d="M230.935 154.851C230.845 154.86 230.706 154.291 230.623 153.579C230.539 152.867 230.546 152.283 230.635 152.274C230.725 152.264 230.866 152.834 230.948 153.546C231.031 154.257 231.025 154.841 230.935 154.851Z" fill="#33535F"/>
<path d="M232.328 154.956C232.248 154.985 231.955 154.403 231.923 153.623C231.887 152.842 232.129 152.239 232.211 152.263C232.304 152.284 232.215 152.881 232.25 153.61C232.279 154.34 232.417 154.928 232.328 154.956Z" fill="#33535F"/>
<path d="M227.09 153.493C227.11 153.496 227.09 153.667 227.035 153.975C226.984 154.284 226.874 154.725 226.701 155.26C226.361 156.329 225.7 157.767 224.65 159.165C223.595 160.561 222.374 161.621 221.416 162.275C220.937 162.604 220.532 162.848 220.24 162.993C219.949 163.144 219.784 163.218 219.774 163.201C219.747 163.159 220.375 162.807 221.288 162.12C222.202 161.434 223.375 160.373 224.411 159.004C225.44 157.631 226.118 156.237 226.503 155.198C226.893 154.157 227.038 153.483 227.09 153.493Z" fill="#33535F"/>
<path d="M262.899 160.877C262.901 160.894 262.723 160.929 262.397 160.956C262.071 160.982 261.594 160.987 261.01 160.93C259.849 160.822 258.227 160.387 256.768 159.37C255.31 158.353 254.392 157.017 253.941 156C253.711 155.489 253.576 155.058 253.507 154.756C253.438 154.454 253.422 154.283 253.439 154.28C253.491 154.267 253.632 154.939 254.131 155.918C254.62 156.892 255.535 158.164 256.943 159.146C258.351 160.128 259.908 160.579 261.037 160.735C262.175 160.897 262.897 160.826 262.899 160.877Z" fill="#33535F"/>
<path d="M235.917 216.367C235.897 216.441 233.151 215.814 229.787 214.966C226.422 214.118 223.711 213.37 223.732 213.296C223.753 213.222 226.497 213.849 229.863 214.697C233.228 215.546 235.938 216.293 235.917 216.367Z" fill="#33535F"/>
<path d="M262.602 212.38C262.642 212.447 260.253 213.766 257.267 215.326C254.281 216.886 251.829 218.096 251.789 218.029C251.749 217.961 254.138 216.642 257.125 215.082C260.11 213.522 262.563 212.313 262.602 212.38Z" fill="#33535F"/>
<path d="M226.887 82.1509L234.41 79.2189L248.269 78.4393L254.782 80.9007L245.856 85.8262L238.161 85.5459L226.887 82.1509Z" fill="#F8A58D"/>
<path d="M218.014 152.51C218.695 152.626 264.102 154.543 264.102 154.543L262.506 113.969L262.375 106.003L259.796 81.8696C259.796 81.8696 253.009 79.5502 249.546 78.4427C249.546 78.4427 245.901 82.2175 238.973 82.1155C232.197 82.016 230.782 80.4981 230.782 80.4981L221.31 84.1065C221.31 84.1065 214.575 86.5066 213.416 89.468C212.288 92.3512 210.221 108.815 210.221 108.815H220.039L219.853 137.899L218.014 152.51Z" fill="#2F3BAB"/>
<path d="M254.783 111.607L247.972 108.584L246.564 98.3559L259.818 97.8479V107.343L254.783 111.607Z" fill="#2F3BAB"/>
<path d="M259.638 101.26C259.638 101.345 256.808 101.414 253.317 101.414C249.824 101.414 246.994 101.345 246.994 101.26C246.994 101.175 249.824 101.106 253.317 101.106C256.808 101.106 259.638 101.175 259.638 101.26Z" fill="#17282F"/>
<path d="M214.954 93.695C214.963 93.6944 214.987 93.7863 215.027 93.9647C215.074 94.1661 215.134 94.4258 215.208 94.7486C215.379 95.4288 215.654 96.4186 216.112 97.6268C216.564 98.8388 217.203 100.26 217.985 101.857C218.724 103.485 219.393 105.358 220.091 107.387L220.099 107.408V107.431C220.083 109.861 220.064 112.522 220.046 115.301C219.98 121.506 219.92 127.121 219.877 131.221C219.841 133.235 219.812 134.875 219.792 136.044C219.775 136.591 219.763 137.027 219.753 137.354C219.742 137.653 219.731 137.811 219.72 137.811C219.71 137.81 219.701 137.652 219.694 137.352C219.69 137.025 219.684 136.588 219.677 136.04C219.675 134.87 219.672 133.23 219.668 131.215C219.69 127.116 219.719 121.501 219.751 115.297C219.777 112.518 219.8 109.859 219.823 107.43L219.829 107.473C219.144 105.449 218.487 103.569 217.773 101.954C217.01 100.353 216.384 98.9095 215.953 97.6844C215.515 96.4605 215.264 95.4582 215.12 94.768C215.052 94.422 215.004 94.1549 214.982 93.9728C214.956 93.7913 214.946 93.6962 214.954 93.695Z" fill="#17282F"/>
<path d="M263.093 88.9478C263.114 88.9497 263.107 89.2582 263.085 89.8132C263.062 90.4226 263.032 91.2153 262.997 92.1689C262.915 94.2099 262.807 96.9317 262.687 99.94C262.551 102.95 262.426 105.672 262.334 107.712C262.278 108.665 262.232 109.457 262.197 110.066C262.159 110.622 262.128 110.928 262.108 110.928C262.087 110.927 262.079 110.619 262.083 110.062C262.094 109.452 262.108 108.659 262.125 107.704C262.176 105.713 262.267 102.965 262.393 99.9281C262.52 96.8929 262.659 94.1461 262.789 92.1583C262.853 91.1647 262.917 90.3606 262.971 89.8057C263.028 89.2507 263.074 88.946 263.093 88.9478Z" fill="#17282F"/>
<path d="M219.438 107.258C216.447 103.935 214.758 99.6219 214.979 95.1695C216.207 99.1751 218.513 103.072 219.438 107.258Z" fill="#2F3BAB"/>
<path d="M234.923 135.334C239.655 131.397 243.534 125.82 246.179 118.774C246.002 121.698 245.349 124.49 244.033 127.054C243.065 128.939 241.785 130.736 240.373 132.32C238.96 133.904 237.046 135.155 234.923 135.334Z" fill="#2F3BAB"/>
<path d="M247.014 115.704C247.024 115.706 247.01 115.796 246.976 115.963C246.932 116.165 246.878 116.406 246.813 116.696C246.743 117.015 246.645 117.402 246.507 117.844C246.375 118.288 246.234 118.798 246.029 119.345C245.662 120.453 245.124 121.738 244.463 123.134C243.779 124.52 242.951 126.007 241.965 127.495C240.966 128.976 239.908 130.312 238.885 131.474C237.841 132.617 236.852 133.604 235.958 134.36C235.526 134.756 235.103 135.076 234.739 135.365C234.378 135.658 234.053 135.893 233.781 136.075C233.534 136.242 233.329 136.381 233.157 136.497C233.012 136.591 232.934 136.636 232.928 136.628C232.922 136.62 232.99 136.559 233.123 136.449C233.284 136.321 233.478 136.167 233.712 135.984C233.973 135.788 234.286 135.541 234.635 135.237C234.988 134.938 235.399 134.609 235.819 134.206C236.691 133.435 237.656 132.44 238.681 131.296C239.685 130.133 240.729 128.803 241.72 127.333C242.698 125.856 243.526 124.384 244.219 123.016C244.889 121.636 245.443 120.368 245.834 119.275C246.049 118.736 246.203 118.233 246.349 117.797C246.502 117.36 246.616 116.98 246.702 116.667C246.788 116.383 246.859 116.147 246.919 115.95C246.972 115.786 247.004 115.702 247.014 115.704Z" fill="#17282F"/>
<path d="M245.702 103.006C245.712 103.008 245.693 103.15 245.649 103.419C245.596 103.717 245.527 104.109 245.44 104.598C245.352 105.111 245.231 105.735 245.047 106.45C244.868 107.167 244.695 107.991 244.413 108.878C244.28 109.325 244.141 109.792 243.996 110.278C243.85 110.764 243.66 111.257 243.483 111.775C243.141 112.816 242.684 113.893 242.221 115.034C241.236 117.29 240.02 119.715 238.538 122.143C237.035 124.561 235.416 126.741 233.842 128.639C233.031 129.568 232.274 130.463 231.496 131.239C231.113 131.631 230.757 132.023 230.389 132.375C230.019 132.723 229.663 133.059 229.323 133.38C228.657 134.033 227.997 134.561 227.436 135.045C226.879 135.535 226.375 135.926 225.956 136.237C225.557 136.536 225.237 136.775 224.995 136.958C224.774 137.12 224.654 137.201 224.649 137.193C224.642 137.185 224.749 137.088 224.959 136.911C225.193 136.718 225.5 136.464 225.884 136.148C226.291 135.824 226.784 135.421 227.328 134.922C227.877 134.427 228.526 133.89 229.18 133.23C229.514 132.906 229.864 132.567 230.228 132.215C230.59 131.861 230.941 131.466 231.319 131.072C232.085 130.293 232.831 129.395 233.633 128.467C235.188 126.569 236.792 124.395 238.287 121.99C239.76 119.575 240.978 117.166 241.971 114.927C242.438 113.795 242.903 112.726 243.252 111.694C243.433 111.18 243.628 110.69 243.78 110.209C243.931 109.726 244.074 109.263 244.213 108.82C244.507 107.94 244.693 107.122 244.887 106.411C245.086 105.702 245.223 105.083 245.328 104.575C245.437 104.091 245.524 103.703 245.59 103.409C245.654 103.143 245.692 103.004 245.702 103.006Z" fill="#17282F"/>
<path d="M209.826 90.3821C212.625 94.6093 223.956 111.734 227.307 116.798C227.677 117.356 227.217 118.086 226.549 118.003L206.417 115.486C206.202 115.459 206.008 115.345 205.88 115.171L186.651 89.0719C186.253 88.5332 186.674 87.7793 187.345 87.8281L208.058 89.3516C208.778 89.4042 209.43 89.7833 209.826 90.3821Z" fill="#DADBD8"/>
<path d="M209.826 90.3833C209.826 90.3833 209.785 90.2932 209.666 90.1436C209.545 89.996 209.344 89.7838 209.014 89.598C208.693 89.4003 208.213 89.2939 207.673 89.2745C207.127 89.2295 206.502 89.1788 205.8 89.1212C202.964 88.9004 198.888 88.5825 193.859 88.1902C192.597 88.0939 191.277 87.9938 189.901 87.8886C189.213 87.8361 188.511 87.7829 187.796 87.7291C187.61 87.7184 187.454 87.6947 187.241 87.6947C187.029 87.699 186.819 87.7892 186.662 87.9337C186.339 88.2152 186.257 88.7446 186.509 89.1087C188.263 91.4995 190.136 94.0523 192.106 96.7384C196.055 102.103 200.392 107.999 204.946 114.188C205.239 114.579 205.499 114.949 205.815 115.356C205.915 115.462 206.038 115.545 206.174 115.597C206.315 115.652 206.455 115.658 206.564 115.673L207.274 115.762C208.219 115.88 209.158 115.997 210.09 116.114C211.955 116.346 213.792 116.575 215.597 116.799C219.208 117.247 222.69 117.68 226.009 118.091C226.224 118.114 226.404 118.148 226.648 118.162C226.895 118.165 227.146 118.062 227.315 117.886C227.489 117.713 227.588 117.473 227.59 117.229C227.6 116.988 227.459 116.732 227.349 116.587C226.9 115.911 226.457 115.245 226.021 114.588C225.148 113.275 224.301 112 223.482 110.766C221.842 108.302 220.315 106.007 218.92 103.909C216.129 99.7329 213.868 96.3492 212.294 93.9941C211.513 92.8378 210.903 91.9356 210.478 91.3074C210.274 91.0121 210.115 90.7824 209.999 90.6135C209.889 90.4583 209.831 90.3801 209.826 90.3833C209.821 90.3864 209.87 90.4709 209.97 90.6323C210.08 90.805 210.229 91.0415 210.422 91.3443C210.834 91.9807 211.426 92.8948 212.185 94.0655C213.737 96.4337 215.968 99.8381 218.721 104.039C220.107 106.143 221.623 108.446 223.25 110.918C224.064 112.154 224.907 113.432 225.775 114.749C226.209 115.408 226.649 116.075 227.096 116.752C227.225 116.932 227.282 117.053 227.287 117.227C227.283 117.391 227.217 117.556 227.098 117.672C226.982 117.792 226.817 117.859 226.649 117.857C226.479 117.847 226.247 117.809 226.047 117.787C222.73 117.369 219.248 116.93 215.638 116.475C213.833 116.249 211.997 116.018 210.132 115.784C209.199 115.668 208.261 115.55 207.316 115.432L206.605 115.343C206.478 115.326 206.375 115.32 206.293 115.286C206.206 115.253 206.126 115.198 206.061 115.129C205.781 114.751 205.499 114.372 205.217 113.991C200.655 107.807 196.31 101.917 192.356 96.5569C190.379 93.8815 188.501 91.3393 186.742 88.9586C186.564 88.7045 186.619 88.336 186.847 88.1333C186.958 88.0319 187.102 87.9675 187.253 87.9643C187.402 87.9625 187.605 87.9856 187.777 87.995C188.492 88.0463 189.194 88.0964 189.883 88.1452C191.258 88.2428 192.58 88.336 193.842 88.4255C198.874 88.7727 202.953 89.0543 205.79 89.2508C206.493 89.2964 207.12 89.3377 207.666 89.3734C208.214 89.384 208.657 89.4741 208.982 89.6568C209.631 90.0154 209.806 90.4077 209.826 90.3833Z" fill="#17282F"/>
<path d="M186.651 89.0726C186.65 89.0826 186.795 89.1039 187.073 89.1352C187.379 89.1658 187.785 89.2065 188.294 89.2578C189.392 89.3542 190.933 89.4906 192.844 89.6589C196.747 89.9755 202.152 90.4141 208.315 90.9146L208.192 90.8433C209.16 92.273 210.16 93.7578 211.163 95.2913C215.244 101.528 218.81 107.261 221.504 111.339C222.843 113.384 223.957 115.019 224.732 116.144C225.113 116.683 225.415 117.112 225.64 117.43C225.851 117.722 225.966 117.872 225.976 117.865C225.985 117.859 225.888 117.696 225.696 117.392C225.485 117.065 225.199 116.626 224.841 116.072C224.082 114.897 223.015 113.244 221.704 111.212C219.062 107.102 215.529 101.352 211.443 95.1093C210.439 93.5745 209.437 92.0891 208.463 90.6594L208.419 90.5943L208.34 90.5887C202.174 90.1338 196.765 89.7352 192.861 89.4468C190.947 89.3198 189.403 89.2165 188.304 89.1433C187.792 89.1151 187.385 89.0926 187.077 89.0764C186.798 89.0645 186.652 89.0626 186.651 89.0726Z" fill="#17282F"/>
<path d="M199.134 92.8047H199.132L199.125 92.802L199.134 92.8047Z" fill="white"/>
<path d="M198.633 93.1035C198.684 92.8658 198.91 92.7669 199.131 92.8057C199.37 92.8758 199.492 92.9315 199.672 93.1073C199.854 93.285 199.93 93.5953 199.77 93.7924C199.57 94.0396 199.155 93.9488 198.914 93.7411C198.729 93.5822 198.584 93.3419 198.633 93.1035Z" fill="white"/>
<path d="M208.038 107.909C208.038 107.909 208.832 106.026 206.815 105.783C204.799 105.541 199.506 105.783 199.506 105.783C199.506 105.783 196.611 106.087 197.223 108.152C197.223 108.152 195.512 109.67 196.428 111.309C197.345 112.949 197.711 112.463 197.711 112.463C197.711 112.463 197.467 114.467 198.994 114.771C198.994 114.771 200.651 116.714 202.175 116.592C203.699 116.471 210.176 113.374 210.604 112.767C211.032 112.159 211.643 111.814 211.276 111.137C211.276 111.137 212.071 109.36 210.359 109.09C210.359 109.09 210.237 107.605 208.038 107.909Z" fill="#F8A58D"/>
<path d="M198.851 108.589C198.851 108.634 199.372 108.669 200.213 108.686C201.054 108.703 202.215 108.704 203.498 108.685C204.778 108.643 205.942 108.692 206.797 108.49C207.667 108.29 208.007 107.782 207.967 107.772C207.931 107.729 207.565 108.133 206.748 108.259C205.947 108.393 204.773 108.311 203.492 108.352C202.21 108.371 201.049 108.407 200.209 108.45C199.369 108.493 198.85 108.542 198.851 108.589Z" fill="#F68260"/>
<path d="M200.294 111.624C200.289 111.642 200.44 111.713 200.732 111.775C201.024 111.837 201.458 111.886 201.992 111.852C202.526 111.821 203.155 111.709 203.83 111.521C204.506 111.336 205.226 111.077 205.985 110.846C206.744 110.613 207.477 110.445 208.153 110.401C208.813 110.371 209.527 110.389 210.001 110.03C210.234 109.865 210.395 109.637 210.441 109.405C210.486 109.176 210.439 108.976 210.365 108.836C210.205 108.546 209.989 108.529 209.994 108.546C209.978 108.572 210.15 108.633 210.246 108.889C210.351 109.134 210.296 109.584 209.868 109.835C209.456 110.114 208.845 110.082 208.136 110.094C207.424 110.122 206.657 110.29 205.887 110.527C205.133 110.773 204.415 111.007 203.743 111.226C203.086 111.426 202.483 111.558 201.971 111.617C200.943 111.743 200.305 111.567 200.294 111.624Z" fill="#F68260"/>
<path d="M202.46 114.191C202.472 114.235 202.992 114.137 203.821 113.929C204.649 113.722 205.783 113.399 207.022 112.997C208.259 112.593 209.366 112.186 210.158 111.867C210.95 111.549 211.427 111.321 211.411 111.279C211.376 111.191 209.386 111.878 206.917 112.68C204.45 113.484 202.435 114.1 202.46 114.191Z" fill="#F68260"/>
<path d="M201.94 116.573C201.946 116.614 202.383 116.597 203.069 116.444C203.756 116.296 204.679 115.983 205.649 115.541C206.62 115.102 207.467 114.654 208.081 114.331C208.693 114.005 209.067 113.793 209.047 113.75C209.005 113.65 207.42 114.343 205.51 115.238C203.604 116.147 201.928 116.486 201.94 116.573Z" fill="#F68260"/>
<path d="M266.311 98.467C266.311 98.467 262.194 114.856 257.051 120.906C252.07 126.764 244.264 124.071 241.562 116.491C238.859 108.911 234.041 91.5982 234.041 91.5982L239.957 87.1039L250.176 106.786L254.781 93.3689L266.311 98.467Z" fill="#F8A58D"/>
<path d="M234.317 92.0527L229.979 85.8058C229.979 85.8058 228.539 85.473 228.131 85.2358C227.64 84.9499 227.156 82.4684 227.166 81.9848C227.176 81.5005 226.325 80.368 226.669 80.0489C227.014 79.7304 228.177 79.7066 228.114 79.2411C228.101 79.141 227.252 78.1061 227.926 77.3465C228.168 77.0718 229.148 76.8303 229.148 76.8303L229.078 74.4464C229.078 74.4464 230.374 71.6315 231.698 72.6501C231.698 72.6501 236.69 76.4612 237.193 77.0706C237.696 77.6794 239.617 85.6156 239.957 87.1042" fill="#F8A58D"/>
<path d="M239.958 87.1039C239.968 87.102 239.945 86.9569 239.891 86.6835C239.826 86.3819 239.741 85.9858 239.634 85.4903C239.401 84.4554 239.052 82.9593 238.579 81.1161C238.339 80.195 238.076 79.1864 237.743 78.1115C237.655 77.8431 237.57 77.5703 237.454 77.2943C237.347 76.9802 237.081 76.77 236.866 76.5748C236.411 76.1775 235.932 75.7871 235.439 75.3891C234.452 74.5945 233.403 73.7748 232.309 72.9302C232.027 72.7318 231.795 72.4753 231.395 72.3307C230.992 72.1993 230.563 72.3683 230.269 72.5967C229.667 73.0734 229.278 73.7116 228.939 74.3824L228.925 74.4124L228.926 74.4506C228.932 74.6808 228.939 74.9299 228.947 75.1795C228.963 75.7376 228.98 76.2907 228.996 76.8345L229.112 76.6818C228.81 76.7613 228.521 76.8501 228.233 76.9765C228.09 77.0447 227.945 77.1066 227.807 77.2524C227.703 77.3832 227.606 77.5277 227.565 77.6929C227.464 78.0214 227.534 78.358 227.641 78.6421C227.695 78.7866 227.764 78.9224 227.837 79.0513L227.947 79.2384L227.97 79.2778L227.965 79.269L227.958 79.3097C227.946 79.3635 227.829 79.4367 227.712 79.4836C227.591 79.5337 227.458 79.5725 227.324 79.6138C227.19 79.6551 227.053 79.6939 226.914 79.7483C226.776 79.8134 226.631 79.8453 226.498 80.0386C226.399 80.242 226.455 80.4059 226.486 80.5461C226.527 80.6887 226.578 80.8201 226.634 80.9465C226.742 81.1993 226.863 81.4383 226.952 81.6742C226.995 81.7949 227.027 81.8994 227.027 82.0089C227.03 82.1572 227.049 82.2836 227.066 82.4162C227.104 82.6765 227.153 82.9293 227.204 83.1796C227.315 83.6776 227.435 84.1601 227.612 84.6199C227.709 84.8489 227.783 85.0767 227.992 85.2838C228.233 85.464 228.447 85.4959 228.669 85.5791C229.109 85.7155 229.536 85.8213 229.953 85.9182L229.884 85.8713C231.223 87.7622 232.317 89.307 233.097 90.4082C233.469 90.9212 233.765 91.3311 233.988 91.6364C234.195 91.9155 234.307 92.0594 234.317 92.0525C234.327 92.0462 234.232 91.8898 234.042 91.5982C233.834 91.2835 233.554 90.8631 233.203 90.335C232.444 89.2194 231.379 87.6552 230.076 85.7399L230.051 85.7036L230.006 85.693C229.597 85.5929 229.172 85.4821 228.745 85.3445C228.545 85.2738 228.29 85.2018 228.161 85.0929C228.034 84.9722 227.937 84.7388 227.856 84.5279C227.692 84.09 227.576 83.6126 227.472 83.1239C227.423 82.8786 227.377 82.6296 227.343 82.3781C227.326 82.2542 227.309 82.1222 227.308 82.0095C227.309 81.8556 227.264 81.7048 227.219 81.5778C227.122 81.3182 227.001 81.0785 226.899 80.8345C226.847 80.7131 226.801 80.5911 226.767 80.4716C226.733 80.3558 226.721 80.2244 226.754 80.1781C226.774 80.1368 226.907 80.0612 227.021 80.0205C227.142 79.9736 227.275 79.9354 227.409 79.8947C227.545 79.854 227.684 79.8146 227.826 79.7564C227.96 79.692 228.134 79.6376 228.235 79.4211C228.261 79.3679 228.266 79.3116 228.264 79.254L228.237 79.1426L228.207 79.0888L228.099 78.9055C228.031 78.7847 227.97 78.6627 227.923 78.5357C227.829 78.2861 227.781 78.0145 227.856 77.778C227.885 77.656 227.959 77.5515 228.037 77.4514C228.102 77.3788 228.232 77.3093 228.358 77.253C228.616 77.1398 228.903 77.0509 229.186 76.9777L229.306 76.9465L229.303 76.8257C229.287 76.2814 229.271 75.7289 229.254 75.1708C229.247 74.9211 229.24 74.6721 229.233 74.4412L229.219 74.5094C229.533 73.8799 229.927 73.2511 230.452 72.8388C230.714 72.6386 231.027 72.5272 231.307 72.6186C231.575 72.7049 231.85 72.9658 232.126 73.1654C233.221 74.0057 234.273 74.8197 235.263 75.6062C235.758 75.9998 236.239 76.3865 236.689 76.7744C236.915 76.9765 237.134 77.1454 237.216 77.3963C237.326 77.6535 237.414 77.9244 237.504 78.1872C237.844 79.2496 238.12 80.2551 238.371 81.1705C238.851 82.9844 239.241 84.4604 239.52 85.5172C239.65 86.0071 239.753 86.3994 239.832 86.6972C239.905 86.9663 239.947 87.1064 239.958 87.1039Z" fill="#F68260"/>
<path d="M229.148 76.8305C229.15 76.8825 229.655 76.8431 230.442 76.9181C230.84 76.9482 231.268 77.0958 231.807 77.2285C232.36 77.3492 232.968 77.2873 233.572 77.2435C234.786 77.0796 235.81 77.5895 236.353 78.1395C236.912 78.6907 236.968 79.2201 237.024 79.2007C237.051 79.2138 237.077 78.6363 236.512 77.9924C236.237 77.6796 235.832 77.3693 235.319 77.159C234.811 76.93 234.164 76.885 233.551 76.9388C232.934 76.9838 232.361 77.0477 231.863 76.9519C231.365 76.8449 230.872 76.7042 230.459 76.7029C229.636 76.6816 229.145 76.7993 229.148 76.8305Z" fill="#F68260"/>
<path d="M230.915 76.6999C230.989 76.7374 231.19 76.4477 231.164 76.0354C231.141 75.6237 230.906 75.3596 230.837 75.4053C230.762 75.4485 230.841 75.7213 230.857 76.0541C230.881 76.3858 230.835 76.6661 230.915 76.6999Z" fill="#F68260"/>
<path d="M227.959 79.3298C227.955 79.408 229.667 79.4818 231.719 79.0376C232.232 78.9269 232.701 78.7848 233.101 78.8637C233.499 78.9356 233.805 79.2003 233.996 79.4506C234.374 79.9762 234.435 80.4166 234.49 80.3979C234.514 80.3991 234.543 79.9467 234.175 79.3273C233.984 79.032 233.653 78.6979 233.158 78.5871C232.66 78.4776 232.148 78.6359 231.654 78.7385C229.639 79.1753 227.956 79.2391 227.959 79.3298Z" fill="#F68260"/>
<path d="M227.297 81.5852C227.298 81.6246 227.653 81.6596 228.221 81.5896C228.79 81.527 229.551 81.3324 230.383 81.1704C230.8 81.0946 231.197 81.0302 231.546 81.0546C231.897 81.0746 232.188 81.1872 232.384 81.3556C232.795 81.6997 232.747 82.0901 232.792 82.0839C232.81 82.0876 232.853 82.0013 232.844 81.8317C232.834 81.6647 232.749 81.4169 232.532 81.1979C232.322 80.9739 231.964 80.8093 231.571 80.7743C231.174 80.7311 230.753 80.7931 230.326 80.8694C229.47 81.0371 228.73 81.2617 228.184 81.3762C227.641 81.4988 227.296 81.5401 227.297 81.5852Z" fill="#F68260"/>
<path d="M228.784 83.3731C228.732 83.4119 229.155 83.853 229.934 83.8512L229.78 83.7198C229.795 83.8549 229.81 83.9851 229.825 84.119C229.939 85.0012 230.098 85.7057 230.182 85.6932C230.266 85.6807 230.244 84.9599 230.131 84.0833C230.113 83.9506 230.095 83.8224 230.076 83.6872L230.056 83.5471L229.922 83.5552C229.27 83.5953 228.823 83.3062 228.784 83.3731Z" fill="#F68260"/>
<path d="M259.796 81.8671C259.796 81.8671 268.227 83.8968 268.209 95.0078C268.191 106.075 265.663 111.607 265.663 111.607L250.121 103.201L253.588 94.5486L259.796 81.8671Z" fill="#2F3BAB"/>
<path d="M265.664 111.608C265.659 111.618 265.548 111.569 265.34 111.468C265.106 111.349 264.808 111.199 264.439 111.013C263.625 110.586 262.505 110 261.126 109.278C258.296 107.763 254.416 105.685 250.044 103.344L249.919 103.277L249.969 103.145C250.236 102.454 250.518 101.722 250.804 100.98C251.796 98.4162 252.742 95.9754 253.605 93.7485C254.037 92.6398 254.45 91.5855 254.836 90.5963C255.209 89.6021 255.618 88.6886 256.066 87.8996C256.94 86.3091 257.975 85.1853 258.871 84.6741C259.311 84.4095 259.699 84.29 259.963 84.2387C260.096 84.2149 260.198 84.2011 260.267 84.1999C260.336 84.1961 260.372 84.1974 260.372 84.203C260.385 84.2437 259.784 84.2343 258.938 84.7818C258.089 85.3117 257.107 86.4261 256.269 88.0103C255.84 88.7974 255.451 89.6959 255.09 90.6908C254.713 91.6831 254.311 92.7412 253.888 93.853C253.033 96.0823 252.095 98.5269 251.111 101.094C250.824 101.835 250.542 102.566 250.275 103.258L250.2 103.06C254.552 105.438 258.414 107.548 261.231 109.087C262.589 109.845 263.693 110.461 264.496 110.909C264.853 111.115 265.142 111.283 265.37 111.414C265.568 111.533 265.669 111.599 265.664 111.608Z" fill="#17282F"/>
<path d="M53.7622 249.049C53.346 248.786 52.7282 248.9 52.4456 249.303C52.163 249.705 52.2747 250.331 52.6862 250.602C53.0979 250.873 53.844 250.758 54.0792 250.326C54.315 249.895 54.1428 249.168 53.6781 249.003" fill="white"/>
<path d="M58.4396 255.578C58.3479 255.655 57.9042 255.249 57.2208 255.071C56.542 254.876 55.9517 254.998 55.9126 254.885C55.8558 254.787 56.5085 254.441 57.3322 254.671C58.1575 254.892 58.539 255.524 58.4396 255.578Z" fill="white"/>
<path d="M59.3811 258.193C59.313 258.291 58.8122 258.043 58.1615 258.082C57.5098 258.101 57.0329 258.392 56.9567 258.301C56.8669 258.229 57.2911 257.704 58.1013 257.671C58.9106 257.632 59.4645 258.115 59.3811 258.193Z" fill="white"/>
<path d="M58.0743 261.333C57.9612 261.255 58.225 260.774 59.0101 260.535C59.7039 260.317 60.2767 260.562 60.2364 260.667C60.2088 260.782 59.7021 260.749 59.1341 260.932C58.5623 261.1 58.1633 261.413 58.0743 261.333Z" fill="white"/>
<path d="M60.4439 253.485C60.3288 253.521 60.0816 253.004 59.5917 252.534C59.1111 252.054 58.5873 251.817 58.6217 251.703C58.6397 251.593 59.3155 251.677 59.8848 252.238C60.4587 252.795 60.5535 253.465 60.4439 253.485Z" fill="white"/>
<path d="M62.2161 251.106C62.18 251.139 61.8061 250.839 61.3932 250.193C61.1884 249.871 60.9813 249.461 60.8214 248.978C60.742 248.737 60.6744 248.479 60.6246 248.207C60.603 248.075 60.5668 247.926 60.59 247.739C60.5934 247.557 60.7791 247.289 61.0267 247.272C61.2518 247.239 61.4618 247.348 61.5841 247.477C61.7102 247.606 61.7815 247.739 61.847 247.86C61.9817 248.106 62.087 248.356 62.1664 248.6C62.3233 249.089 62.3792 249.551 62.3762 249.935C62.3676 250.708 62.1652 251.151 62.1207 251.136C62.0545 251.122 62.147 250.666 62.0806 249.947C62.0471 249.589 61.965 249.167 61.8022 248.725C61.719 248.504 61.6162 248.279 61.4889 248.058C61.3646 247.82 61.2171 247.655 61.0865 247.684C61.0373 247.695 61.0223 247.704 61.0022 247.796C60.9879 247.884 61.0075 248.007 61.0287 248.138C61.0695 248.394 61.1251 248.637 61.1901 248.867C61.3201 249.325 61.4879 249.724 61.6512 250.049C61.9785 250.7 62.2655 251.063 62.2161 251.106Z" fill="white"/>
<path d="M61.9825 251.104C61.9404 251.084 62.0995 250.621 62.6469 250.07C62.9194 249.797 63.2933 249.515 63.7603 249.293C63.9945 249.184 64.2507 249.092 64.5259 249.026C64.8029 248.969 65.1624 248.882 65.515 249.189C65.685 249.363 65.6799 249.639 65.6056 249.798C65.537 249.969 65.4419 250.077 65.3557 250.193C65.1725 250.418 64.9603 250.602 64.7406 250.747C64.3005 251.039 63.8331 251.172 63.4433 251.209C62.6477 251.28 62.2048 251.006 62.2281 250.972C62.2458 250.901 62.6991 251.055 63.4005 250.918C63.746 250.85 64.15 250.703 64.5208 250.433C64.7059 250.299 64.8829 250.135 65.0333 249.941C65.2014 249.738 65.2921 249.525 65.2065 249.47C65.1259 249.38 64.84 249.358 64.6178 249.422C64.3697 249.477 64.1349 249.553 63.9177 249.643C63.4844 249.827 63.1239 250.061 62.8457 250.287C62.2874 250.744 62.0403 251.139 61.9825 251.104Z" fill="white"/>
<path d="M68.3223 263.412C68.3185 263.531 67.7179 263.587 67.1286 263.974C66.5279 264.346 66.2257 264.864 66.1149 264.817C66.0041 264.794 66.1804 264.08 66.9025 263.624C67.6203 263.162 68.3475 263.302 68.3223 263.412Z" fill="white"/>
<path d="M70.908 264.462C70.9357 264.578 70.4163 264.784 70.0102 265.29C69.5897 265.785 69.4889 266.332 69.3693 266.328C69.256 266.347 69.1697 265.648 69.6872 265.027C70.1985 264.402 70.9049 264.349 70.908 264.462Z" fill="white"/>
<path d="M72.3879 267.528C72.2783 267.554 72.109 266.959 72.4143 266.303C72.7159 265.645 73.2813 265.385 73.3329 265.484C73.4009 265.582 73.0376 265.934 72.7946 266.476C72.539 267.012 72.5069 267.516 72.3879 267.528Z" fill="white"/>
<path d="M68.0933 260.53C68.0429 260.639 67.4914 260.477 66.812 260.525C66.1321 260.561 65.6045 260.789 65.5415 260.687C65.4716 260.601 65.9854 260.156 66.7862 260.11C67.5864 260.058 68.1518 260.436 68.0933 260.53Z" fill="white"/>
<path d="M177.467 70.4338C177.479 70.4313 177.524 70.6171 177.6 70.9738C177.667 71.3311 177.804 71.8535 177.899 72.5393C178.132 73.9045 178.349 75.9036 178.366 78.3826C178.383 80.8597 178.16 83.8211 177.463 87.0296C177.119 88.6327 176.667 90.2995 176.048 91.9763C175.435 93.6532 174.705 95.3626 173.767 97.0131C172.837 98.6694 171.777 100.198 170.654 101.593C169.514 102.977 168.308 104.218 167.102 105.339C164.649 107.537 162.174 109.213 159.969 110.372C157.762 111.533 155.859 112.237 154.518 112.611C153.855 112.829 153.32 112.919 152.965 113.008C152.607 113.088 152.418 113.124 152.416 113.113C152.413 113.102 152.597 113.044 152.949 112.944C153.298 112.836 153.826 112.725 154.48 112.49C155.803 112.08 157.681 111.348 159.858 110.17C162.035 108.993 164.476 107.31 166.898 105.118C168.088 104 169.279 102.766 170.404 101.392C171.513 100.007 172.56 98.4935 173.48 96.8555C174.409 95.2212 175.134 93.5287 175.746 91.8681C176.364 90.2075 176.818 88.5557 177.168 86.9658C177.875 83.7848 178.122 80.8453 178.135 78.382C178.147 75.9174 177.967 73.9239 177.771 72.558C177.698 71.8717 177.581 71.3473 177.535 70.9863C177.48 70.6265 177.456 70.4363 177.467 70.4338Z" fill="#17282F"/>
<path d="M155.584 48.6008C164.927 51.1867 172.696 57.234 177.463 65.6271C183.191 75.7157 183.67 88.0368 178.744 98.5872C175.536 105.459 170.328 111.059 163.686 114.784C155.239 119.522 145.444 120.705 136.102 118.12C126.758 115.533 118.989 109.487 114.223 101.094C109.456 92.7001 108.264 82.9643 110.866 73.6803C113.468 64.3951 119.552 56.6728 127.999 51.9363C133.52 48.8404 139.617 47.2618 145.787 47.2618C149.057 47.2618 152.348 47.7054 155.584 48.6008ZM180.756 63.78C175.494 54.5123 166.914 47.8355 156.599 44.9805C146.282 42.1249 135.465 43.4332 126.141 48.6627C118.806 52.776 113.056 58.961 109.513 66.5481C104.074 78.1953 104.604 91.8003 110.928 102.941C116.192 112.21 124.771 118.886 135.086 121.74C138.66 122.729 142.292 123.219 145.903 123.219C152.716 123.219 159.45 121.475 165.545 118.057C174.856 112.835 181.568 104.307 184.444 94.044C187.32 83.7802 186.011 73.0321 180.756 63.78Z" fill="#17282F"/>
<path d="M115.044 95.9197C115.034 95.9248 114.979 95.8234 114.883 95.6269C114.776 95.3942 114.643 95.1076 114.481 94.7578C114.302 94.3812 114.099 93.9144 113.91 93.3544C113.716 92.7963 113.459 92.1712 113.277 91.4486C113.175 91.0888 113.07 90.7134 112.961 90.3236C112.854 89.9313 112.784 89.5139 112.689 89.086C112.485 88.2331 112.376 87.3034 112.239 86.3279C112.034 84.3701 111.97 82.1977 112.157 79.9302C112.37 77.6646 112.816 75.5366 113.36 73.6439C113.667 72.7072 113.937 71.81 114.288 71.0054C114.456 70.6006 114.598 70.2014 114.772 69.8341C114.948 69.4687 115.118 69.117 115.281 68.781C115.587 68.1009 115.949 67.5297 116.239 67.0141C116.523 66.4954 116.806 66.0712 117.047 65.7308C117.268 65.4148 117.449 65.1552 117.596 64.9456C117.724 64.7679 117.796 64.6778 117.805 64.6846C117.815 64.6909 117.761 64.7935 117.651 64.9825C117.518 65.2008 117.355 65.4705 117.155 65.799C116.931 66.1481 116.666 66.5799 116.398 67.1042C116.126 67.6248 115.78 68.1992 115.49 68.8805C115.334 69.2172 115.172 69.5688 115.004 69.9342C114.837 70.3015 114.702 70.7 114.541 71.1036C114.205 71.9051 113.946 72.7974 113.651 73.7278C113.127 75.6073 112.695 77.7153 112.483 79.959C112.298 82.204 112.354 84.3539 112.539 86.2954C112.667 87.2627 112.765 88.1856 112.956 89.0334C113.044 89.4582 113.107 89.8743 113.206 90.2648C113.308 90.6539 113.406 91.0281 113.5 91.3866C113.666 92.1074 113.906 92.7331 114.083 93.2931C114.254 93.8562 114.44 94.3274 114.599 94.7097C114.737 95.0676 114.851 95.3623 114.944 95.5994C115.019 95.8053 115.054 95.9154 115.044 95.9197Z" fill="#17282F"/>
<path d="M120.54 102.731C120.5 102.808 119.858 102.542 119.238 101.969C118.614 101.4 118.295 100.785 118.369 100.74C118.447 100.687 118.868 101.191 119.46 101.729C120.047 102.273 120.586 102.65 120.54 102.731Z" fill="#17282F"/>
<path d="M178.71 95.5109C183.544 85.1563 183.471 72.7132 177.408 62.0358C172.568 53.5114 164.676 47.3696 155.187 44.7436C145.699 42.1163 135.749 43.3201 127.171 48.1311C118.592 52.9414 112.413 60.7838 109.771 70.2142C107.128 79.6433 108.339 89.5318 113.18 98.0568C118.019 106.581 125.911 112.723 135.4 115.348C144.888 117.976 154.838 116.772 163.416 111.961C170.38 108.057 175.576 102.222 178.71 95.5109ZM109.479 63.4711C112.838 56.2769 118.405 50.0257 125.871 45.8398C135.063 40.6841 145.728 39.3945 155.897 42.2089C166.067 45.0239 174.525 51.6055 179.713 60.7431C190.424 79.6027 183.696 103.607 164.717 114.252C155.523 119.408 144.859 120.697 134.689 117.882C124.52 115.068 116.063 108.486 110.874 99.3495C104.377 87.9062 104.297 74.5677 109.479 63.4711Z" fill="#33535F"/>
<path d="M145.237 44.0098C139.077 44.0098 132.992 45.5859 127.481 48.6769C119.048 53.4052 112.974 61.1137 110.377 70.3827C107.779 79.6517 108.969 89.3705 113.728 97.7498C118.485 106.13 126.242 112.166 135.569 114.747C144.894 117.328 154.674 116.146 163.106 111.417C169.738 107.698 174.936 102.107 178.138 95.2483C183.056 84.716 182.578 72.4156 176.86 62.3438C172.102 53.9646 164.345 47.9285 155.018 45.3476C151.788 44.4528 148.502 44.0098 145.237 44.0098ZM145.351 117.336C141.973 117.336 138.574 116.878 135.231 115.952C125.58 113.281 117.554 107.036 112.631 98.3648C107.707 89.694 106.476 79.6379 109.164 70.0473C111.851 60.4561 118.136 52.4792 126.862 47.5869C135.586 42.6934 145.705 41.4695 155.356 44.1419C165.007 46.8123 173.033 53.0586 177.957 61.7288C183.874 72.1509 184.369 84.8781 179.281 95.7751C175.966 102.873 170.588 108.659 163.725 112.507C158.023 115.705 151.724 117.336 145.351 117.336ZM145.234 41.3788C138.624 41.3788 132.093 43.0694 126.18 46.3856C119.064 50.3762 113.486 56.3754 110.05 63.7354C104.773 75.0366 105.286 88.2349 111.422 99.0425C116.528 108.034 124.851 114.511 134.858 117.281C144.866 120.05 155.36 118.782 164.408 113.708C183.085 103.233 189.705 79.611 179.164 61.0511C174.059 52.06 165.736 45.5828 155.728 42.8129C152.261 41.8537 148.737 41.3788 145.234 41.3788ZM145.355 119.967C141.738 119.967 138.1 119.477 134.52 118.486C124.189 115.627 115.596 108.94 110.325 99.6575C103.99 88.5002 103.46 74.8739 108.908 63.2085C112.455 55.6095 118.214 49.4152 125.561 45.2956C134.9 40.058 145.734 38.7484 156.066 41.6072C166.398 44.4672 174.991 51.154 180.262 60.4361C191.142 79.5966 184.308 103.984 165.026 114.798C158.922 118.221 152.178 119.966 145.355 119.967Z" fill="#E7E8E5"/>
<path d="M146.362 114.405V64.0463H149.588V114.405H146.362ZM155.667 80.1571C155.483 78.4392 154.709 77.1015 153.345 76.1442C151.995 75.1868 150.237 74.7082 148.074 74.7082C146.552 74.7082 145.247 74.9377 144.159 75.3967C143.07 75.8556 142.238 76.4786 141.661 77.2654C141.084 78.0523 140.789 78.9506 140.775 79.9604C140.775 80.7997 140.966 81.5276 141.346 82.1439C141.739 82.7603 142.27 83.2849 142.939 83.7176C143.608 84.1373 144.349 84.4914 145.162 84.7799C145.975 85.0684 146.795 85.311 147.621 85.5077L151.398 86.452C152.919 86.8061 154.382 87.2847 155.785 87.888C157.201 88.4912 158.467 89.2519 159.581 90.1699C160.709 91.0879 161.601 92.196 162.257 93.4943C162.912 94.7926 163.24 96.3139 163.24 98.0581C163.24 100.419 162.637 102.497 161.43 104.294C160.224 106.077 158.48 107.474 156.198 108.484C153.929 109.481 151.182 109.979 147.956 109.979C144.821 109.979 142.1 109.494 139.792 108.523C137.497 107.553 135.7 106.136 134.402 104.274C133.117 102.412 132.422 100.143 132.317 97.4679H139.497C139.602 98.8712 140.035 100.038 140.795 100.969C141.556 101.901 142.546 102.596 143.766 103.055C144.998 103.514 146.375 103.743 147.897 103.743C149.483 103.743 150.873 103.507 152.067 103.035C153.273 102.55 154.218 101.881 154.9 101.028C155.581 100.163 155.929 99.1531 155.942 97.9991C155.929 96.9499 155.621 96.0844 155.018 95.4025C154.414 94.7074 153.568 94.1304 152.48 93.6714C151.405 93.1993 150.146 92.7796 148.703 92.4124L144.12 91.2321C140.802 90.3797 138.179 89.0879 136.251 87.3569C134.336 85.6127 133.379 83.298 133.379 80.4129C133.379 78.0392 134.022 75.9606 135.307 74.177C136.605 72.3935 138.369 71.0099 140.598 70.0264C142.828 69.0297 145.352 68.5313 148.172 68.5313C151.031 68.5313 153.536 69.0297 155.686 70.0264C157.85 71.0099 159.549 72.3804 160.781 74.1377C162.014 75.8819 162.65 77.8884 162.689 80.1571H155.667Z" fill="#F87C14"/>
</svg>
