<svg width="287" height="140" viewBox="0 0 287 140" fill="none" xmlns="http://www.w3.org/2000/svg">
<g clip-path="url(#clip0_847_9251)">
<path opacity="0.7" d="M182.425 119.799H25.4013C24.4822 119.799 23.601 119.474 22.9511 118.898C22.3012 118.322 21.9356 117.541 21.9346 116.727V35.7017C21.9356 34.887 22.3012 34.106 22.9511 33.5299C23.601 32.9538 24.4822 32.6298 25.4013 32.6289H182.425C183.344 32.6298 184.225 32.9539 184.875 33.5299C185.525 34.106 185.89 34.887 185.891 35.7017V116.727C185.89 117.541 185.525 118.322 184.875 118.898C184.225 119.474 183.344 119.798 182.425 119.799Z" fill="white"/>
<path d="M192.214 131.139H15.6133V27.5671C15.6144 26.6566 16.023 25.7837 16.7494 25.1398C17.4758 24.496 18.4606 24.1338 19.4879 24.1328H188.339C189.366 24.1338 190.351 24.496 191.077 25.1398C191.804 25.7837 192.212 26.6566 192.214 27.5671V131.139ZM16.429 130.416H191.398V27.5671C191.397 26.8483 191.074 26.1591 190.501 25.6508C189.927 25.1425 189.15 24.8566 188.339 24.8558H19.4879C18.6769 24.8566 17.8994 25.1425 17.3259 25.6508C16.7524 26.1591 16.4299 26.8483 16.429 27.5671V130.416Z" fill="#3F3D56"/>
<path d="M103.914 30.0991C104.815 30.0991 105.545 29.4517 105.545 28.6531C105.545 27.8544 104.815 27.207 103.914 27.207C103.013 27.207 102.282 27.8544 102.282 28.6531C102.282 29.4517 103.013 30.0991 103.914 30.0991Z" fill="#E6E6E6"/>
<path d="M77.5045 69.706C76.8592 69.706 76.2284 69.5363 75.6918 69.2186C75.1552 68.9008 74.737 68.4491 74.4901 67.9207C74.2431 67.3922 74.1785 66.8107 74.3044 66.2497C74.4303 65.6887 74.741 65.1734 75.1974 64.7689C75.6537 64.3645 76.235 64.089 76.868 63.9775C77.5009 63.8659 78.1569 63.9231 78.7531 64.142C79.3493 64.3609 79.8589 64.7316 80.2175 65.2072C80.576 65.6828 80.7673 66.2419 80.7673 66.8139C80.7664 67.5807 80.4223 68.3158 79.8106 68.8579C79.1989 69.4001 78.3696 69.7051 77.5045 69.706Z" fill="#CCCCCC"/>
<path d="M77.5045 79.1044C76.8592 79.1044 76.2284 78.9348 75.6918 78.617C75.1552 78.2992 74.737 77.8475 74.4901 77.3191C74.2431 76.7906 74.1785 76.2091 74.3044 75.6481C74.4303 75.0871 74.741 74.5718 75.1974 74.1674C75.6537 73.7629 76.235 73.4875 76.868 73.3759C77.5009 73.2643 78.1569 73.3216 78.7531 73.5404C79.3493 73.7593 79.8589 74.13 80.2175 74.6056C80.576 75.0812 80.7673 75.6404 80.7673 76.2124C80.7664 76.9791 80.4223 77.7142 79.8106 78.2564C79.1989 78.7985 78.3696 79.1035 77.5045 79.1044Z" fill="#EA954E"/>
<path d="M77.5045 88.5067C76.8592 88.5067 76.2284 88.3371 75.6918 88.0193C75.1552 87.7016 74.737 87.2499 74.4901 86.7214C74.2431 86.193 74.1785 85.6115 74.3044 85.0505C74.4303 84.4895 74.741 83.9742 75.1974 83.5697C75.6537 83.1652 76.235 82.8898 76.868 82.7782C77.5009 82.6666 78.1569 82.7239 78.7531 82.9428C79.3493 83.1617 79.8589 83.5324 80.2175 84.008C80.576 84.4836 80.7673 85.0427 80.7673 85.6147C80.7664 86.3814 80.4223 87.1165 79.8106 87.6587C79.1989 88.2009 78.3696 88.5059 77.5045 88.5067Z" fill="#EA954E"/>
<path d="M93.0026 64.4648C92.2995 64.4648 91.6252 64.7124 91.128 65.1531C90.6309 65.5938 90.3516 66.1914 90.3516 66.8146C90.3516 67.4378 90.6309 68.0355 91.128 68.4762C91.6252 68.9169 92.2995 69.1644 93.0026 69.1644H130.933C131.636 69.1644 132.31 68.9169 132.807 68.4762C133.305 68.0355 133.584 67.4378 133.584 66.8146C133.584 66.1914 133.305 65.5938 132.807 65.1531C132.31 64.7124 131.636 64.4648 130.933 64.4648H93.0026Z" fill="#CCCCCC"/>
<path d="M93.0026 73.8633C92.2995 73.8633 91.6252 74.1108 91.128 74.5515C90.6309 74.9922 90.3516 75.5899 90.3516 76.2131C90.3516 76.8363 90.6309 77.4339 91.128 77.8746C91.6252 78.3153 92.2995 78.5629 93.0026 78.5629H130.933C131.636 78.5629 132.31 78.3153 132.807 77.8746C133.305 77.4339 133.584 76.8363 133.584 76.2131C133.584 75.5899 133.305 74.9922 132.807 74.5515C132.31 74.1108 131.636 73.8633 130.933 73.8633H93.0026Z" fill="#EA954E"/>
<path d="M93.0026 83.2617C92.2995 83.2617 91.6252 83.5093 91.128 83.95C90.6309 84.3906 90.3516 84.9883 90.3516 85.6115C90.3516 86.2347 90.6309 86.8324 91.128 87.2731C91.6252 87.7137 92.2995 87.9613 93.0026 87.9613H130.933C131.636 87.9613 132.31 87.7137 132.807 87.2731C133.305 86.8324 133.584 86.2347 133.584 85.6115C133.584 84.9883 133.305 84.3906 132.807 83.95C132.31 83.5093 131.636 83.2617 130.933 83.2617H93.0026Z" fill="#EA954E"/>
<path d="M271.455 135.683L266.455 135.608L264.4 118.48L271.779 118.59L271.455 135.683Z" fill="#FFB8B8"/>
<path d="M262.909 134.286L272.551 134.429L272.449 139.81L256.736 139.576C256.749 138.87 256.92 138.172 257.237 137.524C257.554 136.876 258.013 136.289 258.586 135.798C259.159 135.307 259.836 134.92 260.578 134.661C261.319 134.401 262.111 134.274 262.909 134.286Z" fill="#2F2E41"/>
<path d="M221.841 135.64L217.207 133.977L222.237 117.34L229.078 119.794L221.841 135.64Z" fill="#FFB8B8"/>
<path d="M214.43 131.617L223.368 134.824L221.09 139.813L206.524 134.586C207.128 133.263 208.3 132.207 209.783 131.65C211.266 131.093 212.937 131.081 214.43 131.617Z" fill="#2F2E41"/>
<path d="M238.551 71.5493L223.869 105.892L217.751 129.752L224.277 132.644L254.05 81.31L265.062 132.825H271.588C271.588 132.825 274.571 71.7248 270.224 66.9375L238.551 71.5493Z" fill="#3A3632"/>
<path d="M220.349 109.154C226.695 109.154 231.839 104.594 231.839 98.9695C231.839 93.3448 226.695 88.7852 220.349 88.7852C214.004 88.7852 208.859 93.3448 208.859 98.9695C208.859 104.594 214.004 109.154 220.349 109.154Z" fill="#F87C14"/>
<path d="M245.689 24.0117C253.122 24.0117 259.148 18.6706 259.148 12.082C259.148 5.49345 253.122 0.152344 245.689 0.152344C238.255 0.152344 232.229 5.49345 232.229 12.082C232.229 18.6706 238.255 24.0117 245.689 24.0117Z" fill="#2F2E41"/>
<path d="M226.906 93.2624C227.479 93.0095 227.983 92.6481 228.382 92.2039C228.781 91.7597 229.065 91.2433 229.215 90.6912C229.364 90.1391 229.375 89.5647 229.247 89.0085C229.119 88.4522 228.854 87.9276 228.473 87.4716L238.683 37.3886L229.155 37.2773L222.065 86.803C221.243 87.422 220.706 88.2867 220.556 89.2333C220.405 90.1798 220.652 91.1424 221.249 91.9386C221.845 92.7348 222.751 93.3093 223.793 93.5533C224.836 93.7973 225.944 93.6938 226.906 93.2624Z" fill="#FFB8B8"/>
<path d="M285.411 83.4825C285.771 82.9965 286.003 82.4451 286.09 81.869C286.177 81.2928 286.118 80.7067 285.916 80.1537C285.713 79.6007 285.374 79.0949 284.922 78.6738C284.47 78.2526 283.917 77.9267 283.304 77.7202L265.072 38.4679C264.626 37.5073 263.949 36.6443 263.089 35.9391C262.228 35.2339 261.204 34.7034 260.089 34.3845C258.973 34.0655 257.793 33.9658 256.63 34.0922C255.466 34.2187 254.348 34.5683 253.353 35.1167L277.5 80.2186C277.189 81.1194 277.256 82.0896 277.688 82.9503C278.12 83.8109 278.889 84.5039 279.853 84.9015C280.817 85.2991 281.91 85.3744 282.931 85.1136C283.953 84.8529 284.833 84.2735 285.411 83.4825Z" fill="#FFB8B8"/>
<path d="M245.956 25.4571C251.488 25.4571 255.973 21.4819 255.973 16.5782C255.973 11.6745 251.488 7.69922 245.956 7.69922C240.423 7.69922 235.938 11.6745 235.938 16.5782C235.938 21.4819 240.423 25.4571 245.956 25.4571Z" fill="#FFB8B8"/>
<path d="M233.775 30.6166C239.553 28.4846 249.528 26.3775 260.604 30.9701C261.9 31.5056 263.054 32.2781 263.99 33.2368C264.925 34.1954 265.621 35.3186 266.033 36.5326L270.772 50.5836L264.654 56.0062L270.364 67.2128C270.364 67.2128 248.544 78.9618 238.756 71.7317L232.842 53.1141L225.093 51.3066L227.736 37.3847C228.015 35.8961 228.716 34.4945 229.772 33.3108C230.828 32.1272 232.205 31.2003 233.775 30.6166Z" fill="#CCCCCC"/>
<path d="M236.587 10.0125C240.499 12.1292 244.909 13.4172 249.475 13.7764L248.116 12.3337C249.105 12.6578 250.146 12.841 251.2 12.8764C251.728 12.89 252.252 12.7937 252.73 12.5954C253.208 12.3971 253.627 12.1022 253.953 11.7344C254.219 11.3524 254.378 10.9191 254.414 10.4712C254.451 10.0233 254.365 9.57424 254.163 9.16226C253.749 8.34053 253.105 7.62637 252.291 7.08775C250.85 6.07682 249.148 5.39777 247.338 5.11109C245.529 4.82442 243.667 4.93904 241.919 5.44473C240.721 5.76228 239.647 6.37271 238.822 7.20607C238.416 7.62586 238.134 8.12838 238.001 8.66854C237.869 9.2087 237.89 9.76959 238.062 10.3009" fill="#2F2E41"/>
<path d="M195.272 126.437H188.135V125.352C188.135 124.969 187.963 124.601 187.657 124.33C187.351 124.059 186.936 123.906 186.504 123.906H177.939C177.506 123.906 177.091 124.059 176.785 124.33C176.479 124.601 176.307 124.969 176.307 125.352V126.437H175.084V125.352C175.084 124.969 174.912 124.601 174.606 124.33C174.3 124.059 173.885 123.906 173.452 123.906H164.887C164.455 123.906 164.04 124.059 163.734 124.33C163.428 124.601 163.256 124.969 163.256 125.352V126.437H162.032V125.352C162.032 124.969 161.861 124.601 161.555 124.33C161.249 124.059 160.834 123.906 160.401 123.906H151.836C151.403 123.906 150.989 124.059 150.683 124.33C150.377 124.601 150.205 124.969 150.205 125.352V126.437H148.981V125.352C148.981 124.969 148.809 124.601 148.503 124.33C148.197 124.059 147.782 123.906 147.35 123.906H138.785C138.352 123.906 137.937 124.059 137.631 124.33C137.325 124.601 137.153 124.969 137.153 125.352V126.437H135.93V125.352C135.93 124.969 135.758 124.601 135.452 124.33C135.146 124.059 134.731 123.906 134.298 123.906H125.734C125.301 123.906 124.886 124.059 124.58 124.33C124.274 124.601 124.102 124.969 124.102 125.352V126.437H122.879V125.352C122.879 124.969 122.707 124.601 122.401 124.33C122.095 124.059 121.68 123.906 121.247 123.906H112.682C112.25 123.906 111.835 124.059 111.529 124.33C111.223 124.601 111.051 124.969 111.051 125.352V126.437H109.827V125.352C109.827 124.969 109.655 124.601 109.35 124.33C109.044 124.059 108.629 123.906 108.196 123.906H99.631C99.1983 123.906 98.7834 124.059 98.4774 124.33C98.1715 124.601 97.9996 124.969 97.9996 125.352V126.437H96.776V125.352C96.776 124.969 96.6042 124.601 96.2982 124.33C95.9923 124.059 95.5773 123.906 95.1446 123.906H86.5797C86.147 123.906 85.7321 124.059 85.4261 124.33C85.1202 124.601 84.9483 124.969 84.9483 125.352V126.437H83.7248V125.352C83.7248 124.969 83.5529 124.601 83.2469 124.33C82.941 124.059 82.526 123.906 82.0933 123.906H73.5284C73.0958 123.906 72.6808 124.059 72.3749 124.33C72.0689 124.601 71.897 124.969 71.897 125.352V126.437H70.6735V125.352C70.6735 124.969 70.5016 124.601 70.1956 124.33C69.8897 124.059 69.4747 123.906 69.0421 123.906H60.4772C60.0445 123.906 59.6295 124.059 59.3236 124.33C59.0176 124.601 58.8457 124.969 58.8457 125.352V126.437H57.6222V125.352C57.6222 124.969 57.4503 124.601 57.1444 124.33C56.8384 124.059 56.4235 123.906 55.9908 123.906H47.4259C46.9932 123.906 46.5782 124.059 46.2723 124.33C45.9663 124.601 45.7945 124.969 45.7945 125.352V126.437H44.5709V125.352C44.5709 124.969 44.399 124.601 44.0931 124.33C43.7871 124.059 43.3722 123.906 42.9395 123.906H34.3746C33.9419 123.906 33.527 124.059 33.221 124.33C32.9151 124.601 32.7432 124.969 32.7432 125.352V126.437H31.5196V125.352C31.5196 124.969 31.3477 124.601 31.0418 124.33C30.7358 124.059 30.3209 123.906 29.8882 123.906H21.3233C20.8906 123.906 20.4757 124.059 20.1697 124.33C19.8638 124.601 19.6919 124.969 19.6919 125.352V126.437H12.5544C9.47162 126.437 6.51507 127.522 4.33519 129.454C2.15531 131.387 0.930664 134.007 0.930664 136.74C0.930664 137.555 1.29591 138.336 1.94605 138.913C2.59619 139.489 3.47797 139.813 4.39741 139.813H203.43C204.349 139.813 205.231 139.489 205.881 138.913C206.531 138.336 206.896 137.555 206.896 136.74C206.896 134.007 205.672 131.387 203.492 129.454C201.312 127.522 198.355 126.437 195.272 126.437Z" fill="#3F3D56"/>
<path d="M222.729 98.3278V99.4719H217.468V98.3278H222.729ZM220.715 96.1767V101.765H219.487V96.1767H220.715Z" fill="white"/>
</g>
<path d="M257.307 89.4452C257.144 87.5971 255.045 86.4593 253.404 87.0176C251.763 87.5758 250.686 89.3586 250.36 91.1815C250.203 91.9492 250.189 92.7427 250.317 93.5166C250.445 94.2905 250.713 95.0294 251.107 95.6911C251.513 96.3445 252.085 96.8581 252.755 97.1709C253.424 97.4838 254.162 97.5827 254.882 97.456C256.505 97.0827 257.63 95.3729 257.951 93.6164C258.273 91.86 257.954 90.0491 257.635 88.2921" fill="#2F2E41"/>
<defs>
<clipPath id="clip0_847_9251">
<rect width="285.19" height="139.814" fill="white" transform="translate(0.930664)"/>
</clipPath>
</defs>
</svg>
