<svg width="309" height="212" viewBox="0 0 309 212" fill="none" xmlns="http://www.w3.org/2000/svg">
<g opacity="0.8">
<path d="M303.546 211.497H20.4637C17.4511 211.497 15.0088 210.117 15.0088 208.414C15.0088 206.711 17.4511 205.33 20.4637 205.33H303.546C306.558 205.33 309 206.711 309 208.414C309 210.117 306.558 211.497 303.546 211.497Z" fill="#C8C8C8"/>
<path d="M276.308 151.016H98.1518C89.458 151.016 82.4097 143.983 82.4097 135.308V16.6597C82.4097 7.98477 89.458 0.951736 98.1518 0.951736H276.308C285.002 0.951736 292.05 7.98477 292.05 16.6597V135.308C292.05 143.983 285.002 151.016 276.308 151.016Z" fill="white"/>
<path d="M292.05 23.7598H82.4097V16.6599C82.4097 7.98498 89.458 0.951954 98.1518 0.951954H276.308C285.002 0.951954 292.05 7.98498 292.05 16.6599V23.7598Z" fill="#E7E7E6"/>
<path d="M256.973 15.7993H132.955C131.049 15.7993 129.503 14.2576 129.503 12.3556C129.503 10.4537 131.049 8.91193 132.955 8.91193H256.973C258.879 8.91193 260.425 10.4537 260.425 12.3556C260.425 14.2576 258.879 15.7993 256.973 15.7993Z" fill="#F8F8F8"/>
<path d="M97.4646 12.3557C97.4646 13.9095 96.2022 15.1699 94.6443 15.1699C93.0871 15.1699 91.8247 13.9095 91.8247 12.3557C91.8247 10.8019 93.0871 9.54222 94.6443 9.54222C96.2022 9.54222 97.4646 10.8019 97.4646 12.3557Z" fill="#F8F8F8"/>
<path d="M107.992 12.3557C107.992 13.9095 106.729 15.1699 105.171 15.1699C103.614 15.1699 102.352 13.9095 102.352 12.3557C102.352 10.8019 103.614 9.54222 105.171 9.54222C106.729 9.54222 107.992 10.8019 107.992 12.3557Z" fill="#F8F8F8"/>
<path d="M118.345 12.3557C118.345 13.9095 117.083 15.1699 115.526 15.1699C113.968 15.1699 112.706 13.9095 112.706 12.3557C112.706 10.8019 113.968 9.54222 115.526 9.54222C117.083 9.54222 118.345 10.8019 118.345 12.3557Z" fill="#F8F8F8"/>
<path d="M202.194 56.6093L184.469 74.296L166.744 56.6101L156.049 67.2829L173.773 84.9689L156.049 102.655L166.744 113.328L184.469 95.641L202.194 113.328L212.89 102.655L195.165 84.9689L212.89 67.2822L202.194 56.6093Z" fill="#D8D7D5"/>
<path d="M258.055 205.491H185.456L191.19 123.54C191.533 118.652 195.781 114.689 200.681 114.689H255.539C260.437 114.689 264.132 118.652 263.79 123.54L258.055 205.491Z" fill="#427CC8"/>
<path d="M247.374 205.491H174.775L180.51 123.54C180.852 118.652 185.101 114.689 190 114.689H244.858C249.757 114.689 253.451 118.652 253.109 123.54L247.374 205.491Z" fill="#5891D4"/>
<path d="M217.953 114.689C220.663 117.207 221.73 119.595 222.177 121.415C223.091 125.133 222.31 130.11 222.308 130.155C223.71 131.814 225.495 134.049 227.411 136.801C227.411 136.801 231.695 142.955 234.717 149.341C238.483 157.297 244.585 170.195 241.737 183.916C239.555 194.43 232.104 205.491 232.104 205.491H190.798L195.859 114.679L217.953 114.689Z" fill="#427CC8"/>
<path d="M140.664 63.2836C140.867 62.6342 144.189 52.4417 151.995 48.971C155.731 47.3099 159.941 47.1514 159.941 47.1514C160.376 47.1351 162.173 47.0811 164.594 47.4775C164.594 47.4775 170.18 48.1525 174.254 51.0342C181.422 56.1063 185.576 68.8054 184.812 79.8498C184.54 83.7774 183.606 87.81 186.165 90.8274C187.546 92.4552 189.836 92.9958 193.084 93.9891C199.833 96.0523 210.934 98.659 215.397 107.674C219.86 116.688 220.404 129.395 217.465 132.871C214.527 136.346 144.391 136.02 141.907 133.305C139.424 130.59 134.852 117.448 134.308 107.022C133.824 97.7532 140.331 93.9152 141.907 82.4907C143.005 74.534 141.825 67.7539 140.664 63.2836Z" fill="#232221"/>
<path d="M180.359 62.4371C181.696 65.0396 183.613 69.235 185.011 74.6638C186.115 78.9558 186.227 81.4119 186.321 83.2492C186.369 84.1679 186.409 84.9402 186.573 85.7089C186.737 86.4776 187.029 87.2336 187.556 88.0918C188.723 90.0016 190.259 91.1604 192.01 91.9263C194.641 93.0759 197.749 93.392 201.059 94.2183C204.37 95.0425 207.88 96.3568 211.349 99.4659C216.539 104.12 218.343 109.867 218.952 111.902C219.815 114.78 220.132 117.524 220.132 120.011C220.132 125.126 218.787 129.151 218.087 130.986C218.017 131.17 218.109 131.375 218.293 131.445C218.477 131.515 218.683 131.423 218.752 131.239C219.469 129.361 220.844 125.25 220.844 120.011C220.844 117.464 220.519 114.65 219.635 111.699C219.014 109.63 217.17 103.732 211.825 98.938C207.059 94.6602 202.159 93.6627 197.968 92.8158C195.871 92.3924 193.95 92.0016 192.297 91.2762C190.644 90.548 189.257 89.5022 188.163 87.7217C187.672 86.9181 187.419 86.2552 187.27 85.5604C186.815 83.4844 187.376 80.9906 185.701 74.4876C184.286 68.992 182.346 64.7462 180.992 62.1132C180.903 61.9384 180.688 61.8695 180.513 61.959C180.338 62.0485 180.269 62.2624 180.359 62.4371Z" fill="#232221"/>
<path d="M142.908 79.4002C141.595 82.3551 139.477 87.0329 136.708 92.7487C134.436 97.4407 132.9 100.406 131.924 102.607C130.948 104.803 130.523 106.267 130.524 107.889C130.524 108.254 130.545 108.624 130.585 109.012C130.928 112.325 132.496 115.66 133.971 118.182C135.446 120.702 136.835 122.403 136.843 122.413C136.967 122.565 137.191 122.588 137.343 122.465C137.496 122.341 137.519 122.117 137.395 121.965L137.336 121.891C137.039 121.517 135.675 119.759 134.313 117.351C132.95 114.943 131.594 111.884 131.293 108.939C131.256 108.572 131.236 108.226 131.236 107.889C131.237 106.399 131.613 105.065 132.575 102.894C133.536 100.728 135.074 97.7555 137.35 93.0578C140.122 87.3327 142.244 82.6478 143.559 79.688C143.638 79.5089 143.557 79.2994 143.378 79.2198C143.198 79.1402 142.988 79.2212 142.908 79.4002Z" fill="#232221"/>
<path d="M153.961 102.206C153.961 102.206 171.96 102.206 172.039 102.206C186.333 102.206 201.991 112.413 211.392 122.387C218.913 130.365 224.416 140.063 228.591 150.192C234.029 163.386 239.355 181.666 232.703 195.32C231.71 197.359 229.458 201.83 224.683 204.243C219.431 206.897 213.943 205.313 212.24 205.313C201.138 205.313 102.743 205.342 102.743 205.342C100.113 179.838 105.179 160.623 108.838 150.14C112.238 140.4 116.213 129.402 126.59 118.96C136.528 108.959 147.484 104.35 153.961 102.206Z" fill="#FBFBFB"/>
<path d="M153.138 102.205L140.512 205.781L132.349 205.719L144.993 105.436L153.138 102.205Z" fill="#FBFBFB"/>
<path d="M162.965 109.828C168.029 109.847 172.149 105.767 172.168 100.714L172.243 81.0264L153.906 80.9568L153.832 100.645C153.812 105.697 157.902 109.809 162.965 109.828Z" fill="#FFB6B6"/>
<path d="M153.852 95.1336L165.795 89.0122C165.674 90.0438 164.995 94.8765 160.735 98.2143C158.016 100.346 155.157 100.832 153.837 100.971L153.852 95.1336Z" fill="#D39E9E"/>
<path d="M172.688 74.927C172.747 74.63 173.532 74.1803 173.773 74.0261C174.181 73.7661 174.622 73.5586 175.083 73.4108C175.977 73.1238 176.96 73.057 177.879 73.2673C179.708 73.6851 181.329 75.2183 181.633 77.0954C181.81 78.1852 181.557 79.3135 181.089 80.3146C180.384 81.8194 179.19 83.084 177.748 83.9131C176.553 84.5995 175.193 84.9888 173.817 85.0705C173.542 85.0868 170.724 85.0215 170.746 84.9142C171.393 81.5849 172.041 78.2563 172.688 74.927Z" fill="#F79994"/>
<path d="M175.202 75.1173C174.985 76.5866 173.691 84.3344 166.692 89.8086C165.403 90.8168 156.832 97.5209 148.99 94.2491C138.913 90.0452 140.012 73.5294 140.083 72.6349C140.323 69.6111 141.03 60.7052 148.422 55.9536C154.455 52.0751 160.992 53.5017 161.918 53.7191C162.895 53.9479 169.118 55.5145 172.926 61.6026C176.382 67.128 175.557 72.7138 175.202 75.1173Z" fill="#FFB6B6"/>
<path d="M145.802 72.646C145.64 73.9356 144.644 74.8727 143.577 74.7384C142.51 74.6048 141.777 73.4517 141.939 72.1622C142.101 70.8727 143.098 69.9356 144.165 70.0691C145.231 70.2034 145.965 71.3565 145.802 72.646Z" fill="#232221"/>
<path d="M157.446 74.1054C157.284 75.3949 156.288 76.3313 155.221 76.1978C154.154 76.0642 153.421 74.9104 153.583 73.6216C153.745 72.332 154.742 71.3949 155.809 71.5285C156.875 71.6621 157.609 72.8159 157.446 74.1054Z" fill="#232221"/>
<path d="M148.933 74.2909L147.148 76.6966C146.96 76.9488 146.868 77.2472 146.869 77.5378C146.868 78.0103 147.109 78.4799 147.55 78.747L149.188 79.7424C149.415 79.8802 149.71 79.8085 149.848 79.5825C149.986 79.3566 149.914 79.0625 149.687 78.9246L148.048 77.9293C147.905 77.8419 147.83 77.6934 147.828 77.5378C147.829 77.4426 147.857 77.3509 147.919 77.2664L149.704 74.8607C149.862 74.6483 149.817 74.3484 149.604 74.1907C149.39 74.0337 149.09 74.0785 148.933 74.2909Z" fill="#232221"/>
<path d="M161.353 80.1787C161.17 81.626 159.847 82.6512 158.397 82.4693C156.947 82.2882 155.919 80.9681 156.102 79.5208C156.284 78.0743 157.607 77.0484 159.056 77.2303C160.507 77.4121 161.534 78.7322 161.353 80.1787Z" fill="#D39E9E"/>
<path d="M174.398 81.5294L174.397 81.437C174.397 81.2153 174.42 80.6953 174.606 80.0928C174.794 79.4889 175.139 78.8083 175.786 78.2278C176.887 77.236 178.195 77.1649 178.544 77.1599C178.809 77.1557 179.019 76.9376 179.015 76.6726C179.01 76.4083 178.791 76.1979 178.527 76.2029C178.089 76.2114 176.518 76.2868 175.144 77.5152C174.343 78.2342 173.914 79.0825 173.69 79.81C173.464 80.5383 173.438 81.1514 173.437 81.437L173.439 81.5571C173.447 81.8214 173.668 82.0296 173.933 82.0218C174.197 82.0139 174.406 81.7937 174.398 81.5294Z" fill="#232221"/>
<path d="M175.386 78.7323C175.392 78.7308 175.476 78.7188 175.602 78.7188C175.758 78.7188 175.976 78.7379 176.198 78.8111C176.421 78.885 176.646 79.0072 176.846 79.2225C177.212 79.614 177.266 80.1042 177.266 80.3422L177.262 80.4623C177.239 80.7258 177.436 80.9568 177.7 80.9788C177.964 81.0008 178.196 80.8047 178.218 80.5411C178.221 80.507 178.226 80.4353 178.226 80.3422C178.226 79.9798 178.153 79.2267 177.551 78.5724C177.226 78.2214 176.845 78.0147 176.498 77.901C176.149 77.7873 175.832 77.7617 175.602 77.761C175.414 77.761 175.283 77.7788 175.238 77.7859C174.976 77.8271 174.797 78.0722 174.838 78.333C174.879 78.5944 175.125 78.7728 175.386 78.7323Z" fill="#232221"/>
<path d="M141.455 76.0032C140.954 75.9407 140.471 76.0302 140.042 76.2235C140.093 77.6416 140.23 79.3603 140.542 81.1848C140.627 81.204 140.708 81.2317 140.796 81.243C142.246 81.4249 143.569 80.399 143.752 78.9524C143.933 77.5052 142.906 76.1851 141.455 76.0032Z" fill="#D39E9E"/>
<path d="M147.263 84.4615C147.539 84.1261 148.413 83.1599 149.907 82.789C150.326 82.6838 150.724 82.6434 151.092 82.6434C152.215 82.6426 153.064 83.0277 153.333 83.1613C153.571 83.2778 153.859 83.1805 153.976 82.9432C154.093 82.7059 153.996 82.4188 153.758 82.3023C153.425 82.1389 152.433 81.6863 151.092 81.6856C150.653 81.6856 150.175 81.7347 149.674 81.8597C147.883 82.308 146.857 83.4483 146.522 83.8526C146.354 84.0565 146.383 84.3585 146.588 84.5268C146.792 84.6945 147.095 84.6654 147.263 84.4615Z" fill="#232221"/>
<path d="M139.26 68.0857H150.797C150.797 68.0857 151.233 64.3386 152.376 62.4928C153.519 60.6462 155.26 59.5059 155.26 59.5059C154.998 60.1674 154.7 61.0434 154.471 62.0992C154.308 62.8516 154.091 63.8505 154.104 65.1535C154.104 65.1535 154.108 65.6466 154.39 68.0857H164.403C164.173 67.4775 163.68 65.9287 164.104 64.0132C164.474 62.3407 165.353 61.2402 165.795 60.7549C165.455 63.7525 165.836 66.1411 166.199 67.6516C166.832 70.2832 167.887 72.22 168.676 73.6658C169.432 75.0548 170.174 76.1631 170.745 76.9546C170.745 76.9546 172.104 75.2416 173.206 74.5759C174.308 73.9102 175.433 73.3105 175.433 73.3105C175.686 72.0011 175.913 70.0118 175.559 67.6516C174.832 62.7926 172.132 59.6189 171.002 58.4331C167.172 54.4132 162.589 53.5109 160.92 53.2068C157.359 52.5574 154.504 53.0988 153.519 53.3148C152.748 53.4839 150.96 53.9287 148.879 55.0121C147.435 55.7638 143.345 57.9535 140.92 62.7507C140.346 63.886 139.596 65.6928 139.26 68.0857Z" fill="#232221"/>
<path d="M151.519 103.062C151.519 103.062 140.349 148.727 139.043 164.041C137.736 179.355 137.247 205.781 137.247 205.781L102.743 205.342C102.041 200.397 101.412 193.671 101.655 185.708C102.224 167.095 107.206 153.253 109.165 148.239C113.777 136.434 119.347 122.178 133.818 111.746C140.51 106.922 147.019 104.419 151.519 103.062Z" fill="#2F3BAB"/>
<path d="M128.757 131.893L114.388 205.491H122.988L128.757 131.893Z" fill="white"/>
<path d="M130.91 118.689C130.12 123.121 128.886 130.527 127.782 139.782C126.43 151.124 126.633 153.845 124.412 182.78C124.079 187.118 123.634 192.789 123.273 197.375C123.093 199.668 122.932 201.69 122.818 203.138C122.703 204.587 122.634 205.46 122.634 205.462C122.618 205.658 122.764 205.829 122.96 205.845C123.157 205.86 123.328 205.715 123.343 205.518C123.343 205.518 124.455 191.513 125.122 182.835C127.343 153.886 127.14 151.172 128.489 139.866C129.59 130.629 130.823 123.236 131.611 118.814C131.645 118.62 131.516 118.436 131.323 118.402C131.129 118.367 130.945 118.496 130.91 118.689Z" fill="#232221"/>
<path d="M162.593 189.048C163.898 190.397 164.65 191.694 165.083 192.591C166.445 195.412 166.492 198.094 166.525 199.99C166.545 201.12 166.48 202.058 166.417 202.706C166.417 202.706 149.546 197.275 147.042 197.492C144.837 197.684 133.845 200.489 131.26 201.153C130.901 201.246 130.527 201.236 130.174 201.127L126.471 199.99L122.98 200.139C121.727 200.192 120.868 198.913 121.379 197.77C121.505 197.486 121.676 197.176 121.899 196.841C123.423 194.56 124.947 192.931 124.947 192.931L119.352 193.938C118.81 193.94 117.921 193.864 117.616 193.321C117.163 192.511 118.278 191.145 119.042 190.229C120.813 188.105 122.749 186.963 123.369 186.605C125.555 185.34 127.593 184.161 130.933 183.156C133.566 182.365 140.814 180.068 149.736 182.328C155.584 183.809 159.877 186.735 162.593 189.048Z" fill="#F79994"/>
<path d="M161.702 188.315C161.776 188.885 162.167 192.353 159.669 195.32C156.884 198.627 152.838 198.545 152.347 198.527L166.417 202.706C166.417 202.706 166.521 197.684 166.272 196.449C166.024 195.214 165.157 192.362 164.264 191.143C163.372 189.923 161.702 188.315 161.702 188.315Z" fill="#F79994"/>
<path d="M126.734 200.231C128.333 198.484 131.092 195.901 135.184 193.863C139.039 191.942 142.553 191.265 144.851 191.004C145.047 190.981 145.187 190.805 145.165 190.61C145.143 190.415 144.966 190.275 144.771 190.297C142.416 190.565 138.816 191.259 134.865 193.227C130.674 195.316 127.847 197.962 126.208 199.751C126.075 199.896 126.085 200.121 126.231 200.253C126.376 200.386 126.601 200.376 126.734 200.231Z" fill="#232221"/>
<path d="M123.287 200.319C125.81 196.028 128.583 193.817 130.628 192.584L130.64 192.577C130.805 192.482 132.625 191.49 140.202 188.648C140.386 188.579 140.479 188.374 140.41 188.19C140.341 188.007 140.136 187.914 139.952 187.983C131.849 191.023 130.302 191.951 130.26 191.976C128.133 193.256 125.255 195.563 122.674 199.959C122.574 200.128 122.631 200.346 122.8 200.445C122.97 200.545 123.188 200.488 123.287 200.319Z" fill="#232221"/>
<path d="M124.988 193.176C127.006 190.207 129.087 188.852 130.594 188.148C131.936 187.523 133.662 187.036 135.045 186.712C135.737 186.55 136.344 186.427 136.776 186.345C137.209 186.263 137.465 186.223 137.465 186.222C137.66 186.192 137.792 186.01 137.761 185.816C137.73 185.622 137.548 185.49 137.354 185.521C137.338 185.526 133.134 186.187 130.293 187.505C128.691 188.248 126.486 189.701 124.398 192.778C124.288 192.94 124.331 193.161 124.493 193.271C124.656 193.381 124.877 193.338 124.988 193.176Z" fill="#232221"/>
<path d="M173.918 102.206C173.918 102.206 170.39 128.364 169.9 144.003C169.41 159.643 168.909 186.361 168.909 186.361L162.594 189.048C162.594 189.048 165.608 197.927 165.795 200.697C165.982 203.466 165.795 205.782 165.795 205.782C175.031 205.602 182.536 205.83 187.697 206.073C192.086 206.28 198.623 206.319 211.697 206.398C216.346 206.427 220.274 206.406 224.684 204.243C225.207 203.987 229.636 201.756 232.922 197.276C235.048 194.375 238.386 188.227 236.513 173.002C235.726 166.595 232.989 146.553 217.411 127.549C208.511 116.692 199.727 111.427 197.284 110.026C189.874 105.776 183.355 104.044 182.002 103.695C178.776 102.864 175.987 102.439 173.918 102.206Z" fill="#2F3BAB"/>
<path d="M195.118 152.203C195.286 156.296 195.005 163.641 191.234 171.59C189.216 175.842 186.766 179.072 184.703 181.359C189.202 180.203 193.701 179.045 198.2 177.889L195.118 152.203Z" fill="white"/>
<path d="M213.461 174.123C213.46 174.123 203.608 176.54 193.1 179.235C187.846 180.583 182.428 182.001 177.995 183.22C175.778 183.831 173.807 184.391 172.225 184.87C170.641 185.35 169.451 185.744 168.769 186.034C166.153 187.147 164.575 187.819 163.65 188.213C162.725 188.607 162.455 188.721 162.454 188.722C162.273 188.798 162.189 189.007 162.266 189.188C162.343 189.368 162.552 189.452 162.733 189.375C162.733 189.375 163.817 188.914 169.048 186.687C169.673 186.42 170.859 186.025 172.431 185.55C177.941 183.883 188.246 181.197 197.168 178.93C201.629 177.797 205.745 176.767 208.745 176.021C210.246 175.648 211.467 175.346 212.314 175.137C213.16 174.928 213.63 174.813 213.631 174.813C213.822 174.766 213.939 174.574 213.892 174.383C213.845 174.192 213.652 174.076 213.461 174.123Z" fill="#232221"/>
<path d="M216.28 133.907C216.28 133.907 216.508 134.334 216.908 135.118C218.309 137.865 221.816 144.972 224.97 153.237C228.125 161.499 230.92 170.928 230.917 178.261C230.917 180.755 230.594 183.003 229.868 184.874C228.99 187.14 227.068 191.98 222.284 195.488C220.041 197.132 217.728 198.079 214.902 198.653C212.077 199.225 208.742 199.415 204.503 199.527C202.313 199.585 199.91 199.623 197.307 199.623C191.1 199.623 183.76 199.411 175.479 198.768C175.283 198.752 175.111 198.899 175.096 199.095C175.081 199.29 175.227 199.461 175.424 199.476C183.725 200.121 191.084 200.333 197.307 200.333C199.917 200.333 202.326 200.295 204.522 200.237C208.771 200.124 212.141 199.936 215.044 199.349C217.945 198.763 220.38 197.769 222.706 196.06C227.669 192.42 229.646 187.415 230.532 185.131C231.301 183.147 231.628 180.815 231.629 178.261C231.625 169.686 227.938 158.54 224.264 149.508C220.587 140.479 216.912 133.58 216.908 133.573C216.817 133.399 216.601 133.334 216.427 133.426C216.253 133.518 216.188 133.733 216.28 133.907Z" fill="white"/>
<path d="M210.797 120.168C202.736 123.35 198.941 127.672 197.03 130.613C196.979 130.694 194.762 134.163 194.762 145.92C194.762 153.163 195.603 163.555 198.318 178.247C198.354 178.44 198.54 178.568 198.733 178.532C198.926 178.496 199.055 178.311 199.019 178.118C196.31 163.459 195.474 153.108 195.474 145.92C195.474 140.085 196.025 136.334 196.57 134.053C196.842 132.912 197.113 132.139 197.313 131.656C197.413 131.415 197.494 131.246 197.55 131.14L197.612 131.027L197.626 131.003L197.628 130.999L197.531 130.938L197.628 131L197.628 130.999L197.531 130.938L197.628 131C199.481 128.156 203.133 123.964 211.059 120.828C211.242 120.757 211.331 120.55 211.259 120.367C211.187 120.185 210.979 120.096 210.797 120.168Z" fill="#232221"/>
<path d="M164.392 206.403H111.505V200.082H167.125V203.677C167.125 205.183 165.902 206.403 164.392 206.403Z" fill="#3F3D56"/>
<path d="M117.293 206.403H44.3134C42.6454 206.403 41.1276 205.054 40.9238 203.389L34.2972 149.303C34.0933 147.638 35.2804 146.289 36.9484 146.289H109.929C111.597 146.289 113.114 147.638 113.318 149.303L119.945 203.389C120.149 205.054 118.962 206.403 117.293 206.403Z" fill="#3F3D56"/>
<path d="M113.021 206.403H40.0409C38.3729 206.403 36.8552 205.054 36.6513 203.389L30.0247 149.303C29.8209 147.638 31.008 146.289 32.676 146.289H105.656C107.325 146.289 108.842 147.638 109.046 149.303L115.672 203.389C115.876 205.054 114.689 206.403 113.021 206.403Z" fill="#E1B799"/>
<path d="M30.0251 149.303C30.5532 149.158 32.4871 166.021 43.5316 181.201C45.4418 183.827 48.8885 188.493 54.7428 193.04C54.7428 193.04 60.696 197.664 82.8791 206.403C81.6829 206.403 80.4874 206.403 79.2912 206.403C76.3498 206.403 73.4085 206.403 70.4671 206.403C66.7439 206.403 63.0207 206.403 59.2976 206.403C55.7574 206.403 52.2165 206.403 48.6763 206.403C46.7768 206.403 44.8774 206.406 42.9778 206.405C41.4647 206.404 39.5823 206.741 38.2317 205.899C37.1139 205.201 36.6252 203.821 36.4653 202.515C36.3521 201.591 36.3648 200.657 36.2606 199.732C36.1571 198.817 35.9802 197.909 35.8679 196.992C35.6228 194.991 35.3775 192.991 35.1325 190.989C34.7314 187.717 34.3306 184.444 33.9295 181.171C33.497 177.641 33.0645 174.112 32.6323 170.582C32.2307 167.305 31.829 164.028 31.4277 160.751C31.1195 158.234 30.8564 155.712 30.5029 153.202C30.0968 150.321 29.8963 149.337 30.0251 149.303Z" fill="#D3A789"/>
<path d="M32.6763 146.644H105.657C107.131 146.636 108.52 147.868 108.693 149.346L115.32 203.433C115.343 203.627 115.52 203.766 115.716 203.743C115.911 203.718 116.05 203.541 116.026 203.347L109.4 149.259C109.165 147.409 107.518 145.942 105.657 145.934H32.6763C32.4799 145.934 32.3203 146.093 32.3203 146.289C32.3203 146.485 32.4799 146.644 32.6763 146.644Z" fill="#232221"/>
<path d="M230.745 119.976H238.848C240.45 119.976 241.887 120.624 242.928 121.667C243.968 122.71 244.606 124.143 244.606 125.713C244.606 125.858 244.601 126.005 244.59 126.152L242.116 159.019C242.101 159.215 242.249 159.385 242.445 159.399C242.641 159.414 242.812 159.268 242.826 159.072L245.3 126.205C245.312 126.04 245.318 125.876 245.318 125.713C245.318 122.183 242.446 119.266 238.848 119.265H230.745C230.547 119.265 230.389 119.424 230.389 119.62C230.389 119.816 230.547 119.976 230.745 119.976Z" fill="white"/>
<path d="M92.0799 157.683H7.80273C3.68994 157.683 0.355957 154.356 0.355957 150.252V94.1253C0.355957 90.0215 3.68994 86.6943 7.80273 86.6943H92.0799C96.1925 86.6943 99.5269 90.0215 99.5269 94.1253V150.252C99.5269 154.356 96.1925 157.683 92.0799 157.683Z" fill="#F8F8F8"/>
<path d="M99.5269 97.4846H0.355957V94.1255C0.355957 90.0217 3.68994 86.6946 7.80273 86.6946H92.0799C96.1925 86.6946 99.5269 90.0217 99.5269 94.1255V97.4846Z" fill="#E7E7E6"/>
<path d="M82.9333 93.7185H24.2664C23.3647 93.7185 22.6338 92.9896 22.6338 92.0894C22.6338 91.1899 23.3647 90.4602 24.2664 90.4602H82.9333C83.8355 90.4602 84.566 91.1899 84.566 92.0894C84.566 92.9896 83.8355 93.7185 82.9333 93.7185Z" fill="#F8F8F8"/>
<path d="M7.47787 92.0892C7.47787 92.8246 6.88077 93.4207 6.14396 93.4207C5.40716 93.4207 4.81006 92.8246 4.81006 92.0892C4.81006 91.3546 5.40716 90.7585 6.14396 90.7585C6.88077 90.7585 7.47787 91.3546 7.47787 92.0892Z" fill="#F8F8F8"/>
<path d="M12.4572 92.0892C12.4572 92.8246 11.8598 93.4207 11.1233 93.4207C10.3865 93.4207 9.78906 92.8246 9.78906 92.0892C9.78906 91.3546 10.3865 90.7585 11.1233 90.7585C11.8598 90.7585 12.4572 91.3546 12.4572 92.0892Z" fill="#F8F8F8"/>
<path d="M17.3554 92.0892C17.3554 92.8246 16.7582 93.4207 16.0215 93.4207C15.2847 93.4207 14.6875 92.8246 14.6875 92.0892C14.6875 91.3546 15.2847 90.7585 16.0215 90.7585C16.7582 90.7585 17.3554 91.3546 17.3554 92.0892Z" fill="#F8F8F8"/>
<path d="M57.0199 113.024L48.6351 121.391L40.2505 113.024L35.1909 118.073L43.5756 126.439L35.1909 134.805L40.2505 139.854L48.6351 131.488L57.0199 139.854L62.0795 134.805L53.6947 126.439L62.0795 118.073L57.0199 113.024Z" fill="#D8D7D5"/>
<path d="M92.0799 157.683V157.328H7.80279C5.84358 157.328 4.07299 156.536 2.78886 155.255C1.50501 153.974 0.712024 152.207 0.712024 150.253V94.1255C0.712024 92.1702 1.50501 90.404 2.78886 89.1223C4.07299 87.8413 5.84358 87.0505 7.80279 87.0498H92.0799C94.0394 87.0505 95.8095 87.8413 97.094 89.1223C98.3778 90.404 99.171 92.1702 99.171 94.1255V150.253C99.171 152.207 98.3778 153.974 97.094 155.255C95.8095 156.536 94.0394 157.328 92.0799 157.328V157.683V158.038C96.3898 158.038 99.8823 154.552 99.883 150.253V94.1255C99.8823 89.8257 96.3898 86.34 92.0799 86.3393H7.80279C3.49305 86.34 0.00028481 89.8257 0 94.1255V150.253C0.00028481 154.552 3.49305 158.038 7.80279 158.038H92.0799V157.683Z" fill="#232221"/>
<path d="M126.699 48.4755L137.715 53.0361C137.896 53.1107 138.104 53.0247 138.18 52.8436C138.255 52.6624 138.169 52.4549 137.988 52.3796L126.972 47.8198C126.79 47.7445 126.582 47.8304 126.507 48.0116C126.431 48.1928 126.518 48.4009 126.699 48.4755Z" fill="#F25D26"/>
<path d="M126.115 36.3749L140.056 49.5869C140.199 49.7219 140.424 49.7162 140.56 49.5741C140.695 49.4313 140.689 49.2068 140.547 49.0718L126.605 35.8598C126.462 35.7248 126.237 35.7305 126.101 35.8726C125.966 36.0154 125.972 36.2399 126.115 36.3749Z" fill="#F25D26"/>
<path d="M138.151 36.0743L143.283 46.816C143.368 46.9937 143.58 47.0683 143.757 46.9844C143.935 46.8999 144.01 46.6874 143.925 46.5105L138.794 35.7688C138.709 35.5919 138.497 35.5166 138.319 35.6011C138.141 35.6857 138.067 35.8974 138.151 36.0743Z" fill="#F25D26"/>
<path d="M266.702 107.664L270.029 98.9597L279.018 102.381L275.691 111.085L266.702 107.664ZM271.87 94.9412C272.869 92.3281 273.874 90.2997 274.883 88.8574C275.892 87.4151 277.227 86.2485 278.889 85.3597C279.86 84.8155 280.876 84.4162 281.941 84.1611C283.004 83.9068 284.014 83.5934 284.97 83.2212C285.925 82.8496 286.8 82.3572 287.593 81.7462C288.386 81.1345 289.028 80.1874 289.52 78.9021C290.349 76.7323 290.33 74.9867 289.461 73.6666C288.593 72.3466 287.337 71.3739 285.695 70.7487C283.341 69.8528 281.472 69.8904 280.085 70.8588C278.697 71.8272 277.469 73.3767 276.401 75.5075L267.811 72.2378C268.641 70.068 269.75 68.2315 271.137 66.7302C272.524 65.229 274.11 64.1071 275.894 63.3647C277.677 62.6236 279.618 62.2705 281.714 62.3075C283.809 62.3437 285.968 62.7849 288.188 63.6297C292.982 65.4542 296.394 67.8698 298.424 70.8744C300.452 73.8798 300.629 77.5743 298.953 81.9601C298.411 83.3782 297.792 84.5625 297.098 85.516C296.402 86.4688 295.601 87.2673 294.695 87.9117C293.787 88.5561 292.767 89.094 291.637 89.526C290.504 89.9586 289.255 90.37 287.884 90.7622C286.62 91.1437 285.565 91.5416 284.721 91.9551C283.875 92.3693 283.161 92.8716 282.581 93.462C281.999 94.0524 281.515 94.7188 281.131 95.4599C280.745 96.2016 280.367 97.0599 279.994 98.0339L271.87 94.9412Z" fill="#FFD9BE"/>
<path d="M43.0465 57.9814L40.9257 52.5697L46.5142 50.3893L48.635 55.8003L43.0465 57.9814ZM40.0874 49.9438C39.4505 48.3196 39.0619 46.9626 38.9218 45.8742C38.7816 44.7864 38.9081 43.6887 39.3022 42.5825C39.5219 41.9253 39.8237 41.3157 40.2081 40.753C40.5917 40.191 40.9263 39.6234 41.2117 39.0514C41.4965 38.4802 41.6933 37.887 41.8029 37.2731C41.9123 36.6585 41.8107 35.9523 41.4975 35.1537C40.9688 33.8045 40.2265 33.006 39.2708 32.7601C38.3151 32.5136 37.3263 32.5903 36.3056 32.9882C34.8424 33.5594 33.9946 34.3594 33.7612 35.3861C33.5273 36.4148 33.6113 37.644 34.0132 39.0742L28.673 41.1587C28.1443 39.8095 27.8846 38.498 27.8943 37.2234C27.904 35.9502 28.1649 34.7687 28.677 33.6795C29.1887 32.591 29.9363 31.6163 30.9201 30.7559C31.903 29.8962 33.0848 29.1971 34.4652 28.6585C37.446 27.4955 40.036 27.1829 42.236 27.7214C44.4355 28.2607 46.0698 29.8926 47.1387 32.6188C47.4844 33.5005 47.6958 34.3061 47.7763 35.0372C47.8553 35.7683 47.8212 36.4724 47.6731 37.1488C47.525 37.8259 47.28 38.5015 46.9395 39.1736C46.5983 39.8472 46.1938 40.5598 45.726 41.3143C45.3022 42.0198 44.9826 42.6443 44.7662 43.1886C44.55 43.7335 44.4316 44.2649 44.4116 44.78C44.391 45.2958 44.4477 45.806 44.5812 46.309C44.7147 46.8127 44.9008 47.3676 45.138 47.9729L40.0874 49.9438Z" fill="#FFD9BE"/>
<path d="M265.958 181.801L267.419 205.049H289.305L290.765 181.801H265.958Z" fill="white" stroke="#CCCCCC" stroke-width="0.882857"/>
<path d="M269.012 161.667V181.799H287.712V161.667C287.712 156.515 283.527 152.338 278.362 152.338C273.197 152.338 269.012 156.515 269.012 161.667Z" fill="#F0F0F0" stroke="#D5D5D5" stroke-width="0.882857"/>
<path d="M271.969 156.712C271.966 157.913 271.583 158.476 271.172 159.095C270.76 159.709 270.32 160.378 270.324 161.643C270.32 162.908 270.76 163.577 271.172 164.191C271.583 164.811 271.966 165.375 271.969 166.576C271.966 167.777 271.583 168.34 271.172 168.959C270.76 169.573 270.32 170.242 270.324 171.507C270.32 172.773 270.76 173.443 271.172 174.057C271.583 174.676 271.966 175.24 271.969 176.442C271.966 177.644 271.583 178.208 271.172 178.827C270.76 179.442 270.32 180.111 270.324 181.377C270.324 181.465 270.403 181.537 270.502 181.537C270.6 181.537 270.68 181.465 270.68 181.377C270.683 180.175 271.067 179.611 271.477 178.992C271.89 178.378 272.329 177.708 272.325 176.442C272.329 175.176 271.89 174.507 271.477 173.892C271.067 173.273 270.683 172.709 270.68 171.507C270.683 170.306 271.067 169.743 271.477 169.124C271.89 168.51 272.329 167.841 272.325 166.576C272.329 165.311 271.89 164.641 271.477 164.027C271.067 163.408 270.683 162.844 270.68 161.643C270.683 160.442 271.067 159.879 271.477 159.26C271.89 158.646 272.329 157.977 272.325 156.712C272.325 156.623 272.245 156.552 272.147 156.552C272.049 156.552 271.969 156.623 271.969 156.712Z" fill="#A5A5A5"/>
<path d="M276.277 154.396C276.273 155.712 275.851 156.334 275.402 157.011C274.951 157.683 274.473 158.41 274.477 159.79C274.473 161.171 274.951 161.898 275.402 162.571C275.851 163.248 276.273 163.869 276.277 165.187C276.273 166.503 275.851 167.124 275.402 167.801C274.951 168.473 274.473 169.2 274.477 170.58C274.473 171.962 274.951 172.69 275.402 173.362C275.851 174.039 276.273 174.661 276.277 175.979C276.273 177.297 275.851 177.918 275.402 178.595C274.951 179.268 274.473 179.996 274.477 181.377C274.477 181.465 274.556 181.537 274.655 181.537C274.753 181.537 274.833 181.465 274.833 181.377C274.836 180.059 275.258 179.437 275.708 178.76C276.158 178.088 276.636 177.36 276.633 175.979C276.636 174.597 276.158 173.87 275.708 173.198C275.258 172.52 274.836 171.898 274.833 170.58C274.836 169.264 275.258 168.643 275.708 167.966C276.158 167.294 276.636 166.567 276.633 165.187C276.636 163.805 276.158 163.078 275.708 162.406C275.258 161.729 274.836 161.107 274.833 159.79C274.836 158.474 275.258 157.852 275.708 157.176C276.158 156.504 276.636 155.776 276.633 154.396C276.633 154.307 276.553 154.236 276.455 154.236C276.356 154.236 276.277 154.307 276.277 154.396Z" fill="#A5A5A5"/>
<path d="M282.612 154.62C282.608 155.925 282.189 156.541 281.744 157.212C281.297 157.879 280.823 158.6 280.827 159.97C280.823 161.339 281.297 162.061 281.744 162.728C282.189 163.399 282.608 164.015 282.612 165.32C282.608 166.626 282.189 167.242 281.744 167.913C281.297 168.579 280.823 169.301 280.827 170.67C280.823 172.04 281.297 172.762 281.744 173.429C282.189 174.101 282.608 174.717 282.612 176.024C282.608 177.33 282.189 177.947 281.744 178.618C281.297 179.285 280.823 180.007 280.827 181.377C280.827 181.465 280.906 181.537 281.005 181.537C281.103 181.537 281.183 181.465 281.183 181.377C281.186 180.071 281.605 179.454 282.05 178.783C282.497 178.116 282.971 177.394 282.968 176.024C282.971 174.653 282.497 173.931 282.05 173.265C281.605 172.593 281.186 171.976 281.183 170.67C281.186 169.365 281.605 168.749 282.05 168.078C282.497 167.411 282.971 166.69 282.968 165.32C282.971 163.951 282.497 163.229 282.05 162.562C281.605 161.891 281.186 161.275 281.183 159.97C281.186 158.664 281.605 158.048 282.05 157.377C282.497 156.711 282.971 155.989 282.968 154.62C282.968 154.531 282.888 154.46 282.79 154.46C282.691 154.46 282.612 154.531 282.612 154.62Z" fill="#A5A5A5"/>
<path d="M287.038 157.845C287.034 158.989 286.67 159.524 286.278 160.115C285.884 160.701 285.464 161.342 285.468 162.55C285.464 163.758 285.884 164.4 286.278 164.986C286.67 165.576 287.034 166.111 287.038 167.256C287.034 168.4 286.67 168.935 286.278 169.526C285.884 170.112 285.464 170.753 285.468 171.961C285.464 173.17 285.884 173.811 286.278 174.397C286.67 174.988 287.034 175.524 287.038 176.669C287.034 177.814 286.67 178.35 286.278 178.94C285.884 179.527 285.464 180.168 285.468 181.377C285.468 181.465 285.548 181.537 285.646 181.537C285.744 181.537 285.824 181.465 285.824 181.377C285.827 180.232 286.192 179.696 286.584 179.105C286.977 178.519 287.397 177.878 287.394 176.669C287.397 175.46 286.977 174.818 286.584 174.232C286.192 173.641 285.827 173.106 285.824 171.961C285.827 170.817 286.192 170.281 286.584 169.691C286.977 169.105 287.397 168.464 287.394 167.256C287.397 166.047 286.977 165.406 286.584 164.82C286.192 164.23 285.827 163.695 285.824 162.55C285.827 161.405 286.192 160.87 286.584 160.279C286.977 159.694 287.397 159.053 287.394 157.845C287.394 157.756 287.314 157.685 287.216 157.685C287.118 157.685 287.038 157.756 287.038 157.845Z" fill="#A5A5A5"/>
<path d="M289.768 185.128C288.851 187.403 287.302 190.535 284.692 193.771C282.086 197.003 279.354 199.181 277.324 200.562C277.243 200.617 277.222 200.728 277.277 200.809C277.332 200.89 277.443 200.91 277.525 200.856C279.576 199.46 282.336 197.259 284.97 193.993C287.607 190.724 289.171 187.559 290.098 185.26C290.134 185.169 290.09 185.066 289.999 185.029C289.908 184.993 289.805 185.037 289.768 185.128Z" fill="#232221"/>
</g>
</svg>
